<?xml version="1.0" encoding="utf-8"?>
<!-- Generator: Adobe Illustrator 22.1.0, SVG Export Plug-In . SVG Version: 6.00 Build 0)  -->
<svg version="1.2" baseProfile="tiny" id="Layer_1" xmlns="http://www.w3.org/2000/svg" xmlns:xlink="http://www.w3.org/1999/xlink"
	 x="0px" y="0px" viewBox="0 0 166.22 166.22" xml:space="preserve">
<g id="Layer_2_1_">
	<g id="Layer_1-2">
		<rect fill="#FF6B00" width="166.22" height="166.22"/>
		<rect x="38.34" y="66.93" fill="#F1D09F" width="89.54" height="3.32"/>
		<rect x="118.74" y="125.27" fill="#F1D09F" width="22.05" height="22.05"/>
		<path fill="#FED925" d="M116.57,39c0-7.298,5.917-13.215,13.215-13.215S143,31.702,143,39"/>
		<path fill="#FED925" d="M0,25.76c7.29,0.005,13.196,5.92,13.19,13.21c0,0.01,0,0.02,0,0.03H0"/>
		<polyline fill="#CE7A23" points="118.74,125.27 129.76,113.36 140.79,125.27 		"/>
		<path fill="#FFFFFF" d="M49.65,30c0.002-3.767,2.709-6.989,6.42-7.64c-0.44-0.072-0.884-0.109-1.33-0.11
			c-4.283-0.154-7.88,3.194-8.033,7.477s3.194,7.88,7.477,8.033c0.186,0.007,0.371,0.007,0.557,0c0.446-0.001,0.89-0.038,1.33-0.11
			C52.355,36.999,49.647,33.771,49.65,30z"/>
	</g>
</g>
</svg>
