<?xml version="1.0" encoding="utf-8"?>
<!-- Generator: Adobe Illustrator 22.1.0, SVG Export Plug-In . SVG Version: 6.00 Build 0)  -->
<svg version="1.2" baseProfile="tiny" id="Layer_1_copy"
	 xmlns="http://www.w3.org/2000/svg" xmlns:xlink="http://www.w3.org/1999/xlink" x="0px" y="0px" viewBox="0 0 139.5 64.9"
	 xml:space="preserve">
<path d="M139.5,55.4c0,5.3-3.1,9.5-7,9.5H7c-3.9,0-7-4.3-7-9.5V9.5C0,4.2,3.1,0,7,0h125.5c3.9,0,7,4.3,7,9.5V55.4L139.5,55.4z"/>
<g>
	<path fill="#F89820" d="M83.2,52.2c-5.9,4.4-14.5,6.7-21.8,6.7c-10.3,0-19.6-3.8-26.7-10.2c-0.6-0.5-0.1-1.2,0.6-0.8
		c7.6,4.4,17,7.1,26.7,7.1c6.5,0,13.7-1.4,20.4-4.2C83.3,50.4,84.1,51.5,83.2,52.2z"/>
	<path fill="#F89820" d="M85.6,49.4c-0.8-1-5-0.5-6.9-0.2c-0.6,0.1-0.7-0.4-0.1-0.8c3.4-2.4,8.9-1.7,9.6-0.9c0.6,0.8-0.2,6.4-3.3,9
		c-0.5,0.4-0.9,0.2-0.7-0.3C84.8,54.3,86.4,50.3,85.6,49.4z"/>
</g>
<path fill="#FFFFFF" d="M78.9,31.6v-2.3c0-0.4,0.3-0.6,0.6-0.6h10.3c0.3,0,0.6,0.2,0.6,0.6v2c0,0.3-0.3,0.8-0.8,1.5l-5.4,7.6
	c2,0,4.1,0.3,5.9,1.3c0.4,0.2,0.5,0.6,0.5,0.9v2.5c0,0.3-0.4,0.7-0.8,0.5c-3.2-1.7-7.4-1.9-10.9,0c-0.4,0.2-0.7-0.2-0.7-0.5v-2.3
	c0-0.4,0-1,0.4-1.6l6.2-8.9h-5.4C79.1,32.2,78.9,31.9,78.9,31.6z"/>
<path fill="#FFFFFF" d="M41.1,46H38c-0.3,0-0.5-0.2-0.6-0.5V29.4c0-0.3,0.3-0.6,0.6-0.6h2.9c0.3,0,0.6,0.2,0.6,0.5v2.1h0.1
	c0.8-2,2.2-3,4.1-3c2,0,3.2,1,4.1,3c0.8-2,2.5-3,4.3-3c1.3,0,2.8,0.5,3.6,1.8c1,1.4,0.8,3.3,0.8,5.1v10.2c0,0.3-0.3,0.6-0.6,0.6
	h-3.1c-0.3,0-0.6-0.3-0.6-0.6v-8.6c0-0.7,0.1-2.4-0.1-3c-0.2-1.1-0.9-1.4-1.8-1.4c-0.8,0-1.6,0.5-1.9,1.3s-0.3,2.2-0.3,3.1v8.6
	c0,0.3-0.3,0.6-0.6,0.6h-3.1c-0.3,0-0.6-0.3-0.6-0.6v-8.6c0-1.8,0.3-4.5-1.9-4.5c-2.3,0-2.2,2.6-2.2,4.5v8.6
	C41.8,45.7,41.5,46,41.1,46z"/>
<path fill="#FFFFFF" d="M99.3,28.4c4.7,0,7.2,4,7.2,9.1c0,4.9-2.8,8.8-7.2,8.8c-4.6,0-7.1-4-7.1-9C92.2,32.3,94.7,28.4,99.3,28.4z
	 M99.3,31.7c-2.3,0-2.5,3.2-2.5,5.1c0,2,0,6.2,2.4,6.2s2.6-3.4,2.6-5.5c0-1.4-0.1-3-0.5-4.3C101,32.1,100.3,31.7,99.3,31.7z"/>
<path fill="#FFFFFF" d="M112.5,46h-3.1c-0.3,0-0.6-0.3-0.6-0.6V29.3c0-0.3,0.3-0.5,0.6-0.5h2.9c0.3,0,0.5,0.2,0.6,0.5v2.5h0.1
	c0.9-2.2,2.1-3.3,4.3-3.3c1.4,0,2.8,0.5,3.7,1.9c0.8,1.3,0.8,3.5,0.8,5v10.1c0,0.3-0.3,0.5-0.6,0.5H118c-0.3,0-0.5-0.2-0.6-0.5v-8.8
	c0-1.8,0.2-4.3-2-4.3c-0.8,0-1.5,0.5-1.8,1.3c-0.4,1-0.5,2-0.5,3.1v8.7C113.1,45.7,112.9,46,112.5,46z"/>
<g>
	<path fill="#FFFFFF" d="M76.2,43c-0.6-0.8-1.2-1.4-1.2-2.9v-4.9c0-2.1,0.1-4-1.4-5.4c-1.2-1.2-3.2-1.6-4.7-1.6c-3,0-6.3,1.1-7,4.8
		c-0.1,0.4,0.2,0.6,0.5,0.7l3,0.3c0.3,0,0.5-0.3,0.5-0.6c0.3-1.3,1.3-1.9,2.5-1.9c0.6,0,1.4,0.2,1.8,0.8c0.4,0.6,0.4,1.5,0.4,2.3V35
		c-1.8,0.2-4.2,0.3-5.9,1.1c-2,0.9-3.4,2.6-3.4,5.1c0,3.3,2.1,4.9,4.7,4.9c2.2,0,3.5-0.5,5.2-2.3c0.6,0.8,0.8,1.2,1.8,2.1
		c0.2,0.1,0.5,0.1,0.7-0.1l0,0c0.6-0.6,1.8-1.6,2.4-2.1C76.5,43.6,76.4,43.3,76.2,43z M70,41.6c-0.5,0.9-1.3,1.4-2.2,1.4
		c-1.2,0-1.9-0.9-1.9-2.3c0-2.7,2.4-3.2,4.7-3.2v0.7C70.6,39.5,70.6,40.5,70,41.6z"/>
</g>
<path fill="#FFFFFF" d="M35,43c-0.6-0.8-1.2-1.4-1.2-2.9v-4.9c0-2.1,0.1-4-1.4-5.4c-1.2-1.2-3.2-1.6-4.7-1.6c-3,0-6.3,1.1-7,4.8
	c-0.1,0.4,0.2,0.6,0.5,0.7l3,0.3c0.3,0,0.5-0.3,0.5-0.6c0.3-1.3,1.3-1.9,2.5-1.9c0.6,0,1.4,0.2,1.8,0.8s0.4,1.5,0.4,2.3V35
	c-1.8,0.2-4.2,0.3-5.9,1.1c-2,0.9-3.4,2.6-3.4,5.1c0,3.3,2.1,4.9,4.7,4.9c2.2,0,3.5-0.5,5.2-2.3c0.6,0.8,0.8,1.2,1.8,2.1
	c0.2,0.1,0.5,0.1,0.7-0.1l0,0c0.6-0.6,1.8-1.6,2.4-2.1C35.2,43.6,35.2,43.3,35,43z M28.8,41.6c-0.5,0.9-1.3,1.4-2.2,1.4
	c-1.2,0-1.9-0.9-1.9-2.3c0-2.7,2.4-3.2,4.7-3.2v0.7C29.4,39.5,29.4,40.5,28.8,41.6z"/>
<g>
	<path fill="#FFFFFF" d="M23.8,11.7h1.4l3.7,9.5h-1.4l-1-2.9h-4l-1.1,2.9h-1.3L23.8,11.7z M22.8,17.3H26l-1.6-4.4l0,0L22.8,17.3z"/>
	<path fill="#FFFFFF" d="M31.7,21.2h-1.2l-2.6-6.9h1.3l1.9,5.8l0,0l1.9-5.8h1.2L31.7,21.2z"/>
	<path fill="#FFFFFF" d="M40.8,21.2c-0.2,0.1-0.5,0.2-0.8,0.2c-0.6,0-1-0.3-1-1.1c-0.6,0.7-1.5,1.1-2.4,1.1c-1.3,0-2.3-0.6-2.3-1.9
		c0-1.6,1.2-1.9,2.3-2.1c1.3-0.2,2.3-0.2,2.3-1c0-1-0.8-1.1-1.5-1.1c-1,0-1.7,0.3-1.7,1.3h-1.1c0.1-1.7,1.4-2.3,2.9-2.3
		c1.2,0,2.6,0.3,2.6,1.9v3.6c0,0.5,0,0.8,0.4,0.8c0.1,0,0.2,0,0.3-0.1C40.8,20.3,40.8,21.2,40.8,21.2z M38.9,17.6
		c-0.4,0.3-1.3,0.3-2.1,0.5c-0.7,0.1-1.4,0.4-1.4,1.2c0,0.7,0.6,1,1.3,1c1.5,0,2.1-0.9,2.1-1.6L38.9,17.6L38.9,17.6z"/>
	<path fill="#FFFFFF" d="M42.7,13.1h-1.1v-1.4h1.1V13.1z M41.6,14.3h1.1v6.9h-1.1V14.3z"/>
	<path fill="#FFFFFF" d="M44.3,11.7h1.1v9.5h-1.1V11.7z"/>
	<path fill="#FFFFFF" d="M52.9,21.2c-0.2,0.1-0.5,0.2-0.8,0.2c-0.6,0-1-0.3-1-1.1c-0.6,0.7-1.5,1.1-2.4,1.1c-1.3,0-2.3-0.6-2.3-1.9
		c0-1.6,1.2-1.9,2.3-2.1c1.3-0.2,2.3-0.2,2.3-1c0-1-0.8-1.1-1.5-1.1c-1,0-1.7,0.3-1.7,1.3h-1.1c0.1-1.7,1.4-2.3,2.9-2.3
		c1.2,0,2.6,0.3,2.6,1.9v3.6c0,0.5,0,0.8,0.4,0.8c0.1,0,0.2,0,0.3-0.1C52.9,20.3,52.9,21.2,52.9,21.2z M51.1,17.6
		c-0.4,0.3-1.3,0.3-2.1,0.5c-0.7,0.1-1.4,0.4-1.4,1.2c0,0.7,0.6,1,1.3,1c1.5,0,2.1-0.9,2.1-1.6L51.1,17.6L51.1,17.6z"/>
	<path fill="#FFFFFF" d="M53.7,11.7h1.1v3.6l0,0c0.4-0.8,1.3-1.1,2.2-1.1c2.1,0,3.2,1.7,3.2,3.6s-1,3.6-3.2,3.6
		c-0.7,0-1.7-0.3-2.2-1.1l0,0v0.9h-1.1V11.7z M56.9,15.1c-1.5,0-2.1,1.3-2.1,2.6c0,1.4,0.6,2.6,2.2,2.6s2.1-1.3,2.1-2.7
		C59,16.4,58.4,15.1,56.9,15.1z"/>
	<path fill="#FFFFFF" d="M61.1,11.7h1.1v9.5h-1.1V11.7z"/>
	<path fill="#FFFFFF" d="M69.6,19c-0.3,1.5-1.4,2.4-3,2.4c-2.2,0-3.2-1.5-3.3-3.6c0-2.1,1.4-3.6,3.2-3.6c2.4,0,3.2,2.3,3.1,4h-5.2
		c0,1.2,0.6,2.3,2.2,2.3c0.9,0,1.6-0.5,1.8-1.4L69.6,19L69.6,19z M68.5,17.1c-0.1-1.1-0.9-2-2-2c-1.2,0-1.9,0.9-2,2H68.5z"/>
	<path fill="#FFFFFF" d="M80.7,21.2c-0.2,0.1-0.5,0.2-0.8,0.2c-0.6,0-1-0.3-1-1.1c-0.6,0.7-1.5,1.1-2.4,1.1c-1.3,0-2.3-0.6-2.3-1.9
		c0-1.6,1.2-1.9,2.3-2.1c1.3-0.2,2.3-0.2,2.3-1c0-1-0.8-1.1-1.5-1.1c-1,0-1.7,0.3-1.7,1.3h-1.1c0.1-1.7,1.4-2.3,2.9-2.3
		c1.2,0,2.6,0.3,2.6,1.9v3.6c0,0.5,0,0.8,0.4,0.8c0.1,0,0.2,0,0.3-0.1C80.7,20.5,80.7,21.2,80.7,21.2z M78.8,17.6
		c-0.4,0.3-1.3,0.3-2.1,0.5c-0.7,0.1-1.4,0.4-1.4,1.2c0,0.7,0.6,1,1.3,1c1.5,0,2.1-0.9,2.1-1.6L78.8,17.6L78.8,17.6z"/>
	<path fill="#FFFFFF" d="M83.3,14.3h1.4v1h-1.4v4.3c0,0.5,0.1,0.6,0.9,0.6h0.5v1h-0.9c-1.2,0-1.6-0.2-1.6-1.5v-4.4H81v-1h1.2v-2.1
		h1.1L83.3,14.3L83.3,14.3z"/>
</g>
</svg>
