<?xml version="1.0" encoding="utf-8"?>
<!-- Generator: Adobe Illustrator 22.1.0, SVG Export Plug-In . SVG Version: 6.00 Build 0)  -->
<svg version="1.2" baseProfile="tiny" id="Layer_1" xmlns="http://www.w3.org/2000/svg" xmlns:xlink="http://www.w3.org/1999/xlink"
	 x="0px" y="0px" viewBox="0 0 106.04 14.13" xml:space="preserve">
<g id="Layer_2_1_">
	<g id="Layer_1-2">
		<g>
			<path fill="#FFFFFF" d="M6.812,3.995c0,1.514-0.899,3.003-3.5,3.003H2.259L1.845,9.99H0.733L1.88,1.843h2.093
				C5.747,1.843,6.812,2.528,6.812,3.995z M5.629,3.995c0-0.958-0.674-1.277-1.738-1.277H2.862L2.389,6.111h0.946
				C5.18,6.111,5.629,5.047,5.629,3.995z"/>
		</g>
		<g>
			<path fill="#FFFFFF" d="M8.94,9.233c0.142,0,0.284-0.035,0.425-0.095l0.225,0.792C9.271,10.073,9,10.132,8.728,10.132
				c-0.828,0-1.266-0.508-1.124-1.537l1.041-7.344l1.088-0.13L8.656,8.772C8.621,9.104,8.68,9.233,8.94,9.233z"/>
		</g>
		<g>
			<path fill="#FFFFFF" d="M16.228,4.148l-0.674,4.423c-0.012,0.095-0.023,0.178-0.023,0.248c0,0.343,0.153,0.474,0.402,0.567
				l-0.308,0.745c-0.626-0.082-1.017-0.366-1.1-1.04c-0.485,0.626-1.124,1.04-1.856,1.04c-1.301,0-1.987-0.958-1.987-2.389
				c0-1.703,0.899-4.127,3.323-4.127C14.749,3.616,15.399,3.746,16.228,4.148z M11.84,7.755c0,1.041,0.391,1.514,1.088,1.514
				c0.663,0,1.147-0.496,1.632-1.146l0.52-3.441c-0.354-0.154-0.615-0.201-1.052-0.201C12.443,4.479,11.84,6.359,11.84,7.755z"/>
			<path fill="#FFFFFF" d="M16.762,12.509l-0.047-0.852c1.289-0.213,1.727-0.721,2.211-1.69L18.571,9.99l-1.194-6.232h1.135
				l0.875,5.404l2.389-5.404h1.123l-2.885,6.292C19.411,11.374,18.488,12.32,16.762,12.509z"/>
			<path fill="#FFFFFF" d="M31.854,6.194c0,1.502-0.769,3.938-3.216,3.938c-1.549,0-2.389-0.993-2.389-2.578
				c0-1.537,0.792-3.938,3.229-3.938C31.026,3.616,31.854,4.609,31.854,6.194z M27.384,7.673c0,1.088,0.45,1.584,1.289,1.584
				c1.62,0,2.046-1.986,2.046-3.181c0-1.088-0.449-1.585-1.277-1.585C27.821,4.491,27.384,6.479,27.384,7.673z"/>
			<path fill="#FFFFFF" d="M38.467,5.556L37.84,9.99h-1.076l0.615-4.352c0.13-0.935-0.213-1.112-0.769-1.112
				c-0.686,0-1.384,0.84-1.88,1.727L34.222,9.99h-1.076l0.875-6.232h0.922l-0.095,1.219c0.58-0.816,1.336-1.36,2.164-1.36
				C38.065,3.616,38.633,4.373,38.467,5.556z"/>
			<path fill="#FFFFFF" d="M44.064,7.944L43.165,9.99h-1.147l3.737-8.147h1.407l1.431,8.147h-1.147l-0.319-2.046H44.064z
				 M46.323,2.776l-1.869,4.258h2.531L46.323,2.776z"/>
			<path fill="#FFFFFF" d="M55.348,6.064c0,1.75-0.875,4.067-3.311,4.067c-0.426,0-0.792-0.07-1.183-0.201l-0.331,2.472l-1.1,0.143
				l1.23-8.787h0.922l-0.024,0.793c0.663-0.733,1.253-0.935,1.904-0.935C54.639,3.616,55.348,4.491,55.348,6.064z M51.504,5.378
				L50.996,9.08c0.39,0.142,0.662,0.188,1.1,0.188c1.549,0,2.129-1.892,2.129-3.287c0-1.111-0.461-1.502-1.112-1.502
				S51.954,4.905,51.504,5.378z"/>
			<path fill="#FFFFFF" d="M62.304,6.064c0,1.75-0.875,4.067-3.311,4.067c-0.426,0-0.792-0.07-1.183-0.201l-0.331,2.472l-1.1,0.143
				l1.229-8.787h0.923l-0.024,0.793c0.663-0.733,1.254-0.935,1.904-0.935C61.595,3.616,62.304,4.491,62.304,6.064z M58.461,5.378
				L57.952,9.08c0.391,0.142,0.662,0.188,1.1,0.188c1.55,0,2.129-1.892,2.129-3.287c0-1.111-0.461-1.502-1.111-1.502
				S58.91,4.905,58.461,5.378z"/>
		</g>
		<g>
			<path fill="#FFFFFF" d="M65.141,9.233c0.142,0,0.283-0.035,0.426-0.095l0.225,0.792c-0.319,0.143-0.592,0.201-0.863,0.201
				c-0.828,0-1.266-0.508-1.123-1.537l1.04-7.344l1.088-0.13l-1.076,7.651C64.821,9.104,64.881,9.233,65.141,9.233z"/>
		</g>
		<g>
			<path fill="#FFFFFF" d="M68.04,7.673c0.023,1.135,0.556,1.549,1.348,1.549c0.58,0,1.101-0.178,1.668-0.579l0.461,0.732
				c-0.674,0.485-1.407,0.757-2.235,0.757c-1.525,0-2.377-0.958-2.377-2.53c0-1.703,0.84-3.985,3.205-3.985
				c1.324,0,1.975,0.757,1.975,1.585C72.084,6.951,70.216,7.436,68.04,7.673z M70.949,5.236c0-0.296-0.178-0.757-0.852-0.757
				c-1.301,0-1.845,1.229-1.999,2.365C69.885,6.644,70.949,6.301,70.949,5.236z"/>
			<path fill="#FFFFFF" d="M82.423,9.99l0.237-3.713C82.73,5,82.825,3.746,82.908,3.001L80.33,9.067h-1.064l-0.981-6.055
				c-0.106,0.899-0.366,2.224-0.627,3.418L76.9,9.99h-1.064l1.821-8.147h1.407l0.923,5.9l2.412-5.9h1.573L83.499,9.99H82.423z"/>
			<path fill="#FFFFFF" d="M89.227,9.99l0.083-1.147c-0.58,0.793-1.194,1.289-2.058,1.289c-1.112,0-1.668-0.721-1.502-1.939
				l0.627-4.435h1.075l-0.614,4.388c-0.118,0.852,0.095,1.135,0.65,1.135c0.78,0,1.407-0.744,1.892-1.466l0.568-4.057h1.076
				L90.148,9.99H89.227z"/>
			<path fill="#FFFFFF" d="M96.855,4.385L96.324,5.07c-0.426-0.401-0.982-0.591-1.479-0.591c-0.805,0-1.289,0.319-1.289,0.84
				c0,0.496,0.414,0.697,1.254,0.946c1.17,0.354,1.762,0.863,1.762,1.892c0,1.36-1.289,1.975-2.59,1.975
				c-1.088,0-1.821-0.426-2.306-0.898l0.662-0.674c0.413,0.438,1.028,0.697,1.69,0.697c1.112,0,1.407-0.639,1.407-1.017
				c0-0.627-0.331-0.816-1.312-1.147c-1.159-0.39-1.667-0.863-1.667-1.715c0-0.815,0.733-1.762,2.389-1.762
				C95.674,3.616,96.324,3.912,96.855,4.385z"/>
			<path fill="#FFFFFF" d="M97.827,9.99l0.876-6.232h1.088L98.916,9.99H97.827z M100.299,1.57c-0.059,0.391-0.366,0.674-0.804,0.674
				c-0.473,0-0.745-0.354-0.686-0.792c0.059-0.402,0.378-0.686,0.804-0.686C100.098,0.767,100.358,1.121,100.299,1.57z"/>
			<path fill="#FFFFFF" d="M106.048,4.302l-0.579,0.675c-0.379-0.331-0.733-0.462-1.219-0.462c-1.572,0-2.034,1.869-2.034,3.158
				c0,1.088,0.474,1.537,1.266,1.537c0.544,0,0.946-0.178,1.442-0.485l0.438,0.757c-0.615,0.438-1.266,0.65-1.952,0.65
				c-1.478,0-2.329-0.945-2.329-2.542c0-1.632,0.852-3.974,3.157-3.974C104.937,3.616,105.539,3.817,106.048,4.302z"/>
		</g>
	</g>
</g>
</svg>
