<?xml version="1.0" encoding="utf-8"?>
<!-- Generator: Adobe Illustrator 22.1.0, SVG Export Plug-In . SVG Version: 6.00 Build 0)  -->
<svg version="1.2" baseProfile="tiny" id="Layer_1" xmlns="http://www.w3.org/2000/svg" xmlns:xlink="http://www.w3.org/1999/xlink"
	 x="0px" y="0px" viewBox="0 0 15.811 19.861" xml:space="preserve">
<g id="Layer_2_1_">
	<g id="Layer_1-2">
		<g id="IkUSof">
			<path fill="#FFFFFF" d="M15.291,6.73c-0.386-0.587-0.916-1.066-1.54-1.39c-1.323-0.674-2.876-0.725-4.24-0.14
				c-1.69,0.63-1.28,0.71-3,0c-1.868-0.797-4.039-0.195-5.23,1.45C0.553,7.586,0.118,8.717,0.031,9.9c-0.18,2.454,0.415,4.902,1.7,7
				c0.494,0.895,1.133,1.703,1.89,2.39c0.556,0.532,1.362,0.709,2.09,0.46c0.32-0.11,0.64-0.22,1-0.35c0.992-0.43,2.118-0.43,3.11,0
				l0.74,0.28c0.929,0.353,1.98,0.08,2.62-0.68c0.927-0.958,1.673-2.076,2.2-3.3c0.17-0.37,0.29-0.76,0.43-1.14
				c-2.241-1.048-3.209-3.715-2.161-5.956C14.009,7.837,14.578,7.187,15.291,6.73z M11.751,0h-0.34
				c-1.893,0.39-3.316,1.958-3.52,3.88c-0.05,0.72,0,0.79,0.74,0.67C10.635,3.988,11.95,2.072,11.751,0z"/>
			<path d="M15.291,6.73c-2.089,1.325-2.709,4.093-1.384,6.183c0.461,0.727,1.122,1.306,1.904,1.667c-0.14,0.38-0.26,0.77-0.43,1.14
				c-0.527,1.224-1.273,2.342-2.2,3.3c-0.659,0.74-1.713,0.984-2.63,0.61l-0.74-0.28c-0.992-0.43-2.118-0.43-3.11,0
				c-0.31,0.13-0.63,0.24-1,0.35c-0.728,0.249-1.534,0.072-2.09-0.46c-0.757-0.687-1.396-1.495-1.89-2.39
				c-1.271-2.085-1.862-4.514-1.69-6.95c0.086-1.183,0.521-2.314,1.25-3.25c1.183-1.643,3.343-2.252,5.21-1.47
				c1.74,0.73,1.33,0.65,3,0c1.364-0.585,2.917-0.534,4.24,0.14C14.365,5.647,14.902,6.133,15.291,6.73z"/>
			<path d="M11.751,0c0.198,2.072-1.116,3.988-3.12,4.55c-0.71,0.12-0.79,0-0.74-0.67C8.095,1.958,9.519,0.39,11.411,0H11.751z"/>
		</g>
	</g>
</g>
</svg>
