<?xml version="1.0" encoding="utf-8"?>
<!-- Generator: Adobe Illustrator 22.1.0, SVG Export Plug-In . SVG Version: 6.00 Build 0)  -->
<svg version="1.2" baseProfile="tiny" id="Layer_1" xmlns="http://www.w3.org/2000/svg" xmlns:xlink="http://www.w3.org/1999/xlink"
	 x="0px" y="0px" viewBox="0 0 514.53 133.896" xml:space="preserve">
<g>
	<g transform="translate(-120 -52)">
		<g>
			<g>
				<path fill="#302F35" d="M160.369,69.488c-10.822,0-19.12,3.461-24.891,10.384c-4.537,8.989-8.04,13.481-10.513,13.481
					c-1.754,0-3.041-0.88-3.865-2.642c-0.826-1.759-1.187-3.612-1.083-5.556c-0.104-5.949,1.392-11.172,4.483-15.667
					C132.642,57.829,145.682,52,163.616,52c15.562,0,27.674,4.708,36.332,14.118c8.658,9.413,12.987,22.379,12.987,38.894
					c0,11.175-1.341,21.346-4.02,30.514c-2.682,9.171-6.16,16.731-10.436,22.68c-4.278,5.952-9.252,10.993-14.919,15.12
					c-10.204,7.651-21.543,11.842-34.013,12.57h-0.928c-6.083,0-11.904-1.885-17.47-5.647c-2.681-1.822-3.918-4.31-3.71-7.469
					c0-0.365,0-0.789,0-1.275c0-15.303,1.906-31.667,5.721-49.096c3.812-17.426,8.45-30.878,13.914-40.351
					c1.546-2.67,3.71-4.127,6.494-4.372c3.71,0,6.802,2.491,9.276,7.469c-4.537,6.803-8.812,18.28-12.832,34.43
					c-4.02,16.154-5.979,29.939-5.875,41.353v2.915c0,2.795,0.232,4.858,0.696,6.193c0.464,1.338,1.365,2.004,2.706,2.004
					c12.883,0,24.452-6.617,34.708-19.856c10.255-13.236,15.383-28.419,15.383-45.543c0-10.686-3.247-19.552-9.74-26.597
					C181.395,73.012,172.221,69.488,160.369,69.488z"/>
				<path fill="#302F35" d="M220.199,153.651c0-10.079,2.628-18.792,7.885-26.141c5.256-7.347,11.8-11.021,19.635-11.021
					c5.152,0,9.249,2.035,12.291,6.103c3.039,4.071,4.561,9.2,4.561,15.394c0,1.822-0.154,3.766-0.464,5.83
					c5.667-2.306,10.46-5.767,14.378-10.384c0.618-0.729,1.416-1.093,2.396-1.093c0.978,0,1.957,0.729,2.937,2.186
					c0.979,1.457,1.469,2.764,1.469,3.917c0,1.156-0.154,1.976-0.463,2.459c-4.02,6.194-11.494,11.417-22.418,15.667
					c-4.537,14.09-11.904,21.132-22.108,21.132c-5.875,0-10.694-2.245-14.455-6.74C222.079,166.467,220.199,160.696,220.199,153.651
					z M241.534,164.582c2.885,0,5.153-1.093,6.803-3.279c1.647-2.186,2.679-4.855,3.092-8.015c-4.124-1.822-6.184-4.947-6.184-9.382
					c0-4.432,1.546-8.896,4.638-13.39l-2.783-0.547h-0.155c-4.227,0-7.628,2.218-10.204,6.649
					c-2.578,4.435-3.865,8.958-3.865,13.572c0,4.617,0.747,8.169,2.242,10.657C236.611,163.338,238.751,164.582,241.534,164.582z"/>
				<path fill="#302F35" d="M357.022,138.349c1.442,0.245,3.375,0.365,5.797,0.365c2.42,0,5.539-0.365,9.354-1.093
					c0.928-0.606,1.983-0.911,3.169-0.911c1.184,0,2.188,0.578,3.015,1.73c0.824,1.156,1.237,2.673,1.237,4.554
					c0,1.884-0.98,3.25-2.937,4.099c-5.566,1.944-10.23,2.915-13.992,2.915c-3.764,0-6.779-0.242-9.044-0.729
					c-3.814,9.109-8.349,16.154-13.605,21.131c-5.464,5.102-10.566,7.771-15.306,8.016h-1.546c-6.392,0-10.771-3.825-13.142-11.477
					c-4.227,7.287-9.329,10.931-15.306,10.931c-5.979,0-10.721-2.063-14.224-6.194c-3.505-4.127-5.256-9.351-5.256-15.666
					c0-6.314,1.392-12.57,4.174-18.764c1.237-2.67,2.42-5.038,3.556-7.105c1.133-2.063,2.319-4.127,3.556-6.194
					c1.237-2.063,1.957-3.279,2.165-3.643c1.855-3.399,3.889-5.101,6.107-5.101c2.215,0,4.043,0.76,5.488,2.277
					c1.442,1.52,2.165,2.855,2.165,4.008c0,1.156-0.053,1.822-0.155,2.004c-0.104,0.182-0.594,0.882-1.469,2.095
					c-0.877,1.215-1.855,2.613-2.938,4.19c-1.082,1.58-2.191,3.37-3.324,5.374c-1.136,2.004-2.319,4.463-3.556,7.378
					c-1.237,2.915-1.855,6.316-1.855,10.202c0,6.922,1.7,10.628,5.102,11.113c0.928,0.364,1.546,0.547,1.855,0.547
					c3.092,0,7.368-7.894,12.832-23.683l4.483-11.295c2.061-6.558,4.121-9.957,6.184-10.202l1.546-0.182
					c2.575,0,3.865,1.275,3.865,3.826c0,2.186-0.671,4.95-2.01,8.289c-1.34,3.342-2.114,5.375-2.319,6.103l0.618,2.186
					c-0.618,1.458-1.29,3.16-2.01,5.101c-0.208,0.609-0.618,1.793-1.237,3.553c-0.618,1.762-0.928,3.734-0.928,5.921
					c0,7.167,2.421,10.748,7.267,10.748c2.988,0,6.08-1.851,9.276-5.557c3.193-3.703,5.771-8.471,7.73-14.3
					c0.102-0.242,0.256-0.547,0.464-0.911c-3.71-2.67-6.597-6.04-8.658-10.11c-2.063-4.068-3.092-8.226-3.092-12.479
					c0-4.25,1.237-7.802,3.71-10.657c2.474-2.853,6.081-4.341,10.822-4.463c4.121,0.123,7.421,2.158,9.895,6.103
					c2.474,3.948,3.71,9.08,3.71,15.394C358.259,131.185,357.846,134.706,357.022,138.349z M346.2,133.977
					c1.133-3.521,1.701-6.558,1.701-9.108c0-4.127-1.237-6.194-3.711-6.194c-1.855,0-2.783,1.884-2.783,5.647
					C341.407,128.088,343.004,131.307,346.2,133.977z"/>
				<path fill="#302F35" d="M404.793,115.76c4.74,0,7.112,2.673,7.112,8.016c0,3.279-1.29,8.807-3.865,16.578
					c-4.846,14.209-5.67,21.314-2.474,21.314c2.474,0,6.544-2.852,12.214-8.562c0.824-0.849,1.725-1.275,2.706-1.275
					c0.979,0,1.879,0.76,2.706,2.277c0.824,1.52,1.237,3.25,1.237,5.191c0,1.944-0.517,3.462-1.546,4.555
					c-8.866,8.744-16.801,13.116-23.809,13.116c-7.01,0-10.513-3.581-10.513-10.748c0-4.008,0.952-9.501,2.86-16.487
					c1.906-6.982,2.86-10.808,2.86-11.477c0-0.666-0.208-1.002-0.619-1.002h-0.309c-2.578,1.093-5.643,4.435-9.199,10.02
					c-3.556,5.587-6.674,12.875-9.354,21.861c-0.927,3.037-1.882,5.101-2.86,6.193c-0.981,1.093-2.45,1.64-4.406,1.64
					c-4.537,0-6.803-5.101-6.803-15.303c0.102-12.751,2.37-25.504,6.803-38.256c1.647-4.856,4.07-7.287,7.266-7.287
					c1.751,0,3.169,0.487,4.252,1.457c1.082,0.974,1.623,2.067,1.623,3.279c0,1.215-0.671,3.797-2.01,7.742
					c-1.341,3.948-2.732,9.869-4.174,17.762c4.638-9.473,9.481-16.788,14.533-21.952c5.049-5.161,9.791-7.984,14.224-8.471
					L404.793,115.76z"/>
				<path fill="#302F35" d="M436.178,177.517c-5.565,0-9.999-2.701-13.296-8.106c-3.3-5.403-4.947-12.417-4.947-21.042
					c0-2.063,0.051-3.643,0.155-4.736c1.546-17.972,5.667-36.252,12.368-54.834c3.297-9.228,7.421-16.788,12.368-22.68
					c4.948-5.889,10.255-8.835,15.924-8.835c7.317,0,10.977,4.736,10.977,14.209s-3.892,21.952-11.673,37.437
					c-7.783,15.484-16.364,27.599-25.741,36.343c-0.208,1.458-0.31,2.915-0.31,4.372c0,9.231,2.165,13.845,6.494,13.845
					c4.843,0,10.254-4.008,16.233-12.023c0.928-1.213,2.061-1.822,3.401-1.822c1.338,0,2.602,0.638,3.788,1.913
					c1.184,1.275,1.778,2.855,1.778,4.736c0,1.885-0.722,3.675-2.164,5.374C453.699,172.233,445.246,177.517,436.178,177.517z
					 M454.112,74.954c-4.02,0-7.962,6.012-11.827,18.035c-3.865,12.023-6.624,24.109-8.271,36.252
					c5.256-7.406,10.228-16.515,14.919-27.326c4.689-10.808,7.085-18.642,7.189-23.5C456.122,76.109,455.45,74.954,454.112,74.954z"
					/>
				<path fill="#302F35" d="M454.266,153.651c0-10.079,2.628-18.792,7.885-26.141c5.256-7.347,11.8-11.021,19.635-11.021
					c5.152,0,9.25,2.035,12.291,6.103c3.039,4.071,4.561,9.2,4.561,15.394c0,1.822-0.154,3.766-0.464,5.83
					c5.667-2.306,10.46-5.767,14.378-10.384c0.618-0.729,1.416-1.093,2.396-1.093c0.978,0,1.957,0.729,2.937,2.186
					c0.979,1.457,1.469,2.764,1.469,3.917c0,1.156-0.154,1.976-0.463,2.459c-4.02,6.194-11.494,11.417-22.418,15.667
					c-4.537,14.09-11.904,21.132-22.108,21.132c-5.875,0-10.694-2.245-14.455-6.74C456.145,166.467,454.266,160.696,454.266,153.651
					z M475.601,164.582c2.885,0,5.153-1.093,6.803-3.279c1.647-2.186,2.679-4.855,3.092-8.015c-4.124-1.822-6.184-4.947-6.184-9.382
					c0-4.432,1.546-8.896,4.638-13.39l-2.783-0.547h-0.155c-4.227,0-7.628,2.218-10.204,6.649
					c-2.578,4.435-3.865,8.958-3.865,13.572c0,4.617,0.747,8.169,2.242,10.657C470.678,163.338,472.818,164.582,475.601,164.582z"/>
				<path fill="#302F35" d="M541.77,120.679l4.175-0.546h0.927c2.988,0,4.484,1.702,4.484,5.101c0,0.851-0.054,1.458-0.155,1.822
					l-4.329,29.33c-0.104,0.364-0.154,0.91-0.154,1.639c0,2.187,0.773,3.279,2.319,3.279s3.58-1.062,6.106-3.188
					c2.524-2.124,4.817-4.888,6.88-8.289c1.133-1.335,2.267-2.004,3.401-2.004c1.133,0,2.111,1.064,2.938,3.188
					c0.824,2.126,1.237,3.979,1.237,5.556c0,1.58-0.155,2.915-0.464,4.008c-2.578,4.008-5.798,7.651-9.663,10.931
					s-7.603,4.918-11.209,4.918c-3.608,0-6.416-1.093-8.426-3.278c-2.01-2.187-3.119-4.797-3.324-7.834l-2.01,3.279
					c-3.609,5.952-8.066,8.927-13.373,8.927c-5.31,0-9.407-2.032-12.291-6.104c-2.887-4.067-4.329-9.259-4.329-15.575
					c0-11.537,3.375-21.192,10.127-28.965c6.749-7.771,13.733-11.659,20.949-11.659c4.225,0,6.338,1.338,6.338,4.008L541.77,120.679
					z M523.991,162.214c2.474,0,4.817-1.304,7.034-3.917c2.215-2.61,3.839-6.709,4.87-12.296l3.556-19.674
					c-6.083,0.364-11.209,3.583-15.383,9.655c-4.174,6.074-6.261,11.964-6.261,17.67
					C517.807,159.361,519.868,162.214,523.991,162.214z"/>
				<path fill="#302F35" d="M559.702,154.562c0-9.837,2.757-18.732,8.271-26.688c5.513-7.953,11.878-11.932,19.094-11.932
					c1.751,0,3.401,0.245,4.947,0.729c2.266-20.523,5.616-35.615,10.049-45.27c4.431-9.655,10.615-14.483,18.553-14.483
					c4.329,0,7.677,1.822,10.05,5.465c2.369,3.643,3.556,8.198,3.556,13.663c0,5.465-1.264,11.75-3.788,18.855
					c-2.526,7.104-5.102,13.088-7.73,17.944c-2.628,4.859-6.365,11.266-11.208,19.219c-4.847,7.956-7.885,13.088-9.122,15.394v2.368
					c0,4.981,0.746,8.533,2.242,10.657c1.492,2.126,3.271,3.188,5.333,3.188c4.021,0,9.378-4.613,16.079-13.845
					c0.31-0.364,1.184-0.515,2.629-0.456c1.441,0.063,2.782,0.7,4.02,1.913c1.236,1.215,1.854,2.733,1.854,4.554
					s-0.463,3.461-1.391,4.919c-7.112,10.93-15.256,16.396-24.428,16.396c-3.196,0-6.416-1.062-9.663-3.188
					c-3.246-2.123-5.541-5.01-6.88-8.653c-2.681,8.139-7.266,12.206-13.76,12.206c-5.154,0-9.561-2.096-13.219-6.285
					C561.531,167.041,559.702,161.485,559.702,154.562z M580.883,162.578c4.639,0,7.576-7.104,8.812-21.314l1.237-13.845
					c-5.566,0.609-9.817,3.25-12.755,7.924c-2.938,4.677-4.406,9.809-4.406,15.394C573.771,158.633,576.141,162.578,580.883,162.578
					z M618.606,74.407c-4.123,0-7.37,5.01-9.74,15.029c-2.372,10.02-4.433,23.107-6.184,39.258
					c12.368-25.504,18.552-42.324,18.552-50.462C621.234,75.682,620.358,74.407,618.606,74.407z"/>
			</g>
		</g>
	</g>
</g>
</svg>
