<?xml version="1.0" encoding="utf-8"?>
<!-- Generator: Adobe Illustrator 22.1.0, SVG Export Plug-In . SVG Version: 6.00 Build 0)  -->
<svg version="1.2" baseProfile="tiny" id="Layer_1" xmlns="http://www.w3.org/2000/svg" xmlns:xlink="http://www.w3.org/1999/xlink"
	 x="0px" y="0px" viewBox="0 0 339.745 87.376" xml:space="preserve">
<g>
	<g transform="translate(-120 -52)">
		<g>
			<g>
				<path fill="#673918" d="M146.656,63.412c-7.146,0-12.625,2.259-16.436,6.776c-2.996,5.866-5.308,8.797-6.942,8.797
					c-1.158,0-2.008-0.574-2.552-1.724c-0.545-1.148-0.783-2.357-0.715-3.626c-0.068-3.882,0.919-7.291,2.96-10.224
					C128.347,55.804,136.958,52,148.8,52c10.275,0,18.273,3.072,23.99,9.213c5.717,6.143,8.575,14.604,8.575,25.381
					c0,7.292-0.886,13.929-2.654,19.913c-1.771,5.985-4.067,10.918-6.891,14.8c-2.825,3.884-6.109,7.174-9.852,9.867
					c-6.737,4.993-14.225,7.727-22.458,8.203h-0.613c-4.016,0-7.86-1.23-11.536-3.686c-1.771-1.188-2.587-2.812-2.45-4.874
					c0-0.238,0-0.515,0-0.832c0-9.986,1.258-20.665,3.777-32.038c2.517-11.372,5.58-20.15,9.188-26.332
					c1.021-1.742,2.45-2.693,4.287-2.853c2.45,0,4.492,1.625,6.125,4.874c-2.995,4.439-5.818,11.929-8.473,22.468
					c-2.654,10.542-3.948,19.537-3.879,26.986v1.902c0,1.824,0.153,3.171,0.459,4.042c0.306,0.873,0.901,1.308,1.787,1.308
					c8.506,0,16.145-4.318,22.917-12.958c6.771-8.638,10.158-18.545,10.158-29.72c0-6.973-2.145-12.759-6.432-17.356
					C160.54,65.712,154.481,63.412,146.656,63.412z"/>
				<path fill="#673918" d="M186.162,118.334c0-6.577,1.735-12.263,5.206-17.059c3.471-4.794,7.792-7.192,12.965-7.192
					c3.402,0,6.107,1.328,8.115,3.983c2.007,2.656,3.012,6.003,3.012,10.045c0,1.189-0.102,2.458-0.306,3.804
					c3.741-1.504,6.906-3.763,9.493-6.776c0.408-0.476,0.935-0.713,1.583-0.713c0.646,0,1.292,0.476,1.939,1.427
					c0.646,0.951,0.97,1.803,0.97,2.556c0,0.754-0.103,1.289-0.307,1.605c-2.654,4.042-7.589,7.45-14.802,10.224
					c-2.996,9.194-7.861,13.79-14.599,13.79c-3.879,0-7.062-1.466-9.545-4.398C187.402,126.697,186.162,122.932,186.162,118.334z
					 M200.249,125.467c1.905,0,3.402-0.713,4.492-2.14c1.088-1.427,1.769-3.169,2.042-5.231c-2.724-1.188-4.084-3.228-4.084-6.122
					c0-2.892,1.021-5.805,3.062-8.738l-1.837-0.356h-0.103c-2.791,0-5.037,1.447-6.737,4.339c-1.702,2.894-2.553,5.846-2.553,8.857
					c0,3.013,0.493,5.331,1.48,6.954C196.999,124.656,198.412,125.467,200.249,125.467z"/>
				<path fill="#673918" d="M276.506,108.349c0.952,0.16,2.229,0.238,3.828,0.238c1.599,0,3.657-0.238,6.176-0.713
					c0.613-0.396,1.31-0.594,2.093-0.594c0.782,0,1.445,0.377,1.991,1.129c0.544,0.754,0.816,1.744,0.816,2.972
					c0,1.229-0.647,2.121-1.939,2.675c-3.675,1.269-6.755,1.902-9.239,1.902s-4.476-0.158-5.972-0.476
					c-2.519,5.944-5.513,10.542-8.983,13.79c-3.608,3.329-6.977,5.071-10.106,5.231h-1.021c-4.221,0-7.112-2.497-8.678-7.49
					c-2.791,4.755-6.16,7.133-10.106,7.133c-3.947,0-7.079-1.347-9.392-4.042c-2.314-2.693-3.471-6.102-3.471-10.224
					c0-4.12,0.919-8.203,2.756-12.245c0.817-1.742,1.599-3.288,2.349-4.636c0.748-1.347,1.531-2.693,2.348-4.042
					c0.816-1.347,1.292-2.14,1.429-2.378c1.226-2.218,2.568-3.329,4.033-3.329c1.462,0,2.67,0.496,3.624,1.486
					c0.952,0.992,1.429,1.863,1.429,2.615c0,0.754-0.035,1.188-0.102,1.308c-0.069,0.119-0.393,0.576-0.971,1.367
					c-0.578,0.793-1.225,1.705-1.939,2.734c-0.714,1.031-1.446,2.2-2.194,3.507c-0.75,1.308-1.531,2.913-2.349,4.814
					c-0.816,1.902-1.225,4.122-1.225,6.657c0,4.518,1.123,6.936,3.369,7.251c0.612,0.238,1.021,0.357,1.225,0.357
					c2.042,0,4.865-5.151,8.474-15.455l2.96-7.371c1.36-4.279,2.722-6.497,4.083-6.657l1.021-0.119c1.7,0,2.552,0.832,2.552,2.497
					c0,1.426-0.443,3.23-1.327,5.409c-0.885,2.181-1.396,3.507-1.531,3.982l0.408,1.427c-0.408,0.951-0.852,2.062-1.327,3.329
					c-0.137,0.397-0.408,1.17-0.816,2.318c-0.408,1.149-0.612,2.437-0.612,3.863c0,4.677,1.599,7.014,4.798,7.014
					c1.974,0,4.015-1.208,6.125-3.626c2.108-2.417,3.811-5.528,5.104-9.332c0.066-0.158,0.169-0.356,0.307-0.594
					c-2.45-1.743-4.356-3.942-5.717-6.598c-1.362-2.654-2.042-5.368-2.042-8.143c0-2.773,0.816-5.091,2.45-6.955
					c1.633-1.861,4.015-2.833,7.146-2.913c2.722,0.08,4.9,1.408,6.533,3.982c1.634,2.577,2.45,5.926,2.45,10.045
					C277.322,103.673,277.05,105.971,276.506,108.349z M269.359,105.496c0.749-2.298,1.123-4.28,1.123-5.944
					c0-2.693-0.816-4.042-2.449-4.042c-1.226,0-1.838,1.229-1.838,3.685C266.195,101.652,267.25,103.753,269.359,105.496z"/>
				<path fill="#673918" d="M308.049,93.608c3.13,0,4.696,1.744,4.696,5.23c0,2.14-0.852,5.747-2.552,10.818
					c-3.2,9.273-3.744,13.909-1.634,13.909c1.634,0,4.321-1.861,8.064-5.587c0.544-0.554,1.139-0.832,1.787-0.832
					c0.646,0,1.24,0.496,1.786,1.486c0.544,0.992,0.816,2.121,0.816,3.388c0,1.269-0.341,2.259-1.021,2.972
					c-5.854,5.707-11.094,8.56-15.721,8.56c-4.629,0-6.942-2.337-6.942-7.014c0-2.615,0.629-6.2,1.889-10.758
					c1.259-4.557,1.889-7.053,1.889-7.489c0-0.435-0.138-0.654-0.408-0.654h-0.204c-1.702,0.713-3.727,2.894-6.074,6.539
					c-2.348,3.646-4.407,8.401-6.176,14.266c-0.613,1.982-1.243,3.329-1.889,4.042c-0.648,0.713-1.618,1.07-2.91,1.07
					c-2.995,0-4.491-3.329-4.491-9.986c0.066-8.322,1.564-16.643,4.491-24.965c1.088-3.169,2.688-4.755,4.799-4.755
					c1.156,0,2.092,0.317,2.807,0.951c0.715,0.635,1.072,1.349,1.072,2.14c0,0.793-0.443,2.478-1.327,5.052
					c-0.886,2.576-1.804,6.44-2.757,11.591c3.063-6.182,6.261-10.956,9.597-14.325c3.333-3.368,6.465-5.21,9.392-5.528
					L308.049,93.608z"/>
				<path fill="#673918" d="M328.772,133.908c-3.675,0-6.602-1.763-8.779-5.29c-2.179-3.525-3.267-8.103-3.267-13.73
					c0-1.347,0.033-2.377,0.102-3.091c1.021-11.729,3.742-23.657,8.167-35.783c2.178-6.022,4.9-10.956,8.167-14.801
					c3.267-3.843,6.771-5.766,10.515-5.766c4.832,0,7.248,3.091,7.248,9.272c0,6.182-2.569,14.325-7.707,24.43
					c-5.14,10.104-10.806,18.01-16.997,23.716c-0.138,0.951-0.204,1.902-0.204,2.853c0,6.024,1.429,9.035,4.287,9.035
					c3.198,0,6.771-2.615,10.719-7.846c0.613-0.792,1.361-1.189,2.246-1.189c0.884,0,1.718,0.416,2.501,1.249
					c0.782,0.832,1.174,1.863,1.174,3.091c0,1.229-0.477,2.398-1.429,3.507C340.342,130.46,334.76,133.908,328.772,133.908z
					 M340.614,66.979c-2.654,0-5.257,3.923-7.81,11.769c-2.552,7.846-4.373,15.733-5.461,23.657
					c3.471-4.833,6.753-10.777,9.851-17.832c3.097-7.053,4.679-12.165,4.747-15.335C341.941,67.733,341.498,66.979,340.614,66.979z"
					/>
				<path fill="#673918" d="M340.717,118.334c0-6.577,1.735-12.263,5.206-17.059c3.471-4.794,7.792-7.192,12.965-7.192
					c3.402,0,6.107,1.328,8.115,3.983c2.007,2.656,3.012,6.003,3.012,10.045c0,1.189-0.102,2.458-0.306,3.804
					c3.741-1.504,6.906-3.763,9.493-6.776c0.408-0.476,0.935-0.713,1.583-0.713c0.646,0,1.292,0.476,1.939,1.427
					c0.646,0.951,0.97,1.803,0.97,2.556c0,0.754-0.103,1.289-0.307,1.605c-2.654,4.042-7.589,7.45-14.802,10.224
					c-2.996,9.194-7.861,13.79-14.599,13.79c-3.879,0-7.062-1.466-9.545-4.398C341.957,126.697,340.717,122.932,340.717,118.334z
					 M354.803,125.467c1.905,0,3.402-0.713,4.492-2.14c1.088-1.427,1.769-3.169,2.042-5.231c-2.724-1.188-4.084-3.228-4.084-6.122
					c0-2.892,1.021-5.805,3.062-8.738l-1.837-0.356h-0.103c-2.791,0-5.037,1.447-6.737,4.339c-1.702,2.894-2.553,5.846-2.553,8.857
					c0,3.013,0.493,5.331,1.48,6.954C351.553,124.656,352.967,125.467,354.803,125.467z"/>
				<path fill="#673918" d="M398.495,96.817l2.757-0.356h0.612c1.973,0,2.96,1.111,2.96,3.329c0,0.555-0.035,0.951-0.102,1.188
					l-2.858,19.14c-0.068,0.238-0.103,0.595-0.103,1.07c0,1.426,0.511,2.14,1.531,2.14c1.021,0,2.364-0.693,4.033-2.081
					c1.666-1.386,3.18-3.189,4.542-5.409c0.748-0.872,1.496-1.308,2.246-1.308c0.748,0,1.395,0.695,1.939,2.081
					c0.544,1.388,0.817,2.597,0.817,3.626c0,1.031-0.103,1.902-0.307,2.615c-1.702,2.615-3.828,4.993-6.38,7.133
					c-2.553,2.14-5.021,3.21-7.401,3.21c-2.384,0-4.236-0.713-5.563-2.14c-1.327-1.426-2.06-3.13-2.195-5.112l-1.327,2.14
					c-2.383,3.884-5.326,5.825-8.83,5.825c-3.506,0-6.211-1.326-8.116-3.982c-1.906-2.654-2.858-6.042-2.858-10.164
					c0-7.528,2.229-13.829,6.687-18.902c4.457-5.071,9.068-7.608,13.833-7.608c2.79,0,4.186,0.873,4.186,2.615L398.495,96.817z
					 M386.756,123.922c1.633,0,3.181-0.851,4.645-2.556c1.463-1.704,2.534-4.378,3.216-8.024l2.348-12.839
					c-4.017,0.237-7.401,2.338-10.157,6.3c-2.756,3.964-4.135,7.807-4.135,11.531C382.672,122.061,384.033,123.922,386.756,123.922z
					"/>
				<path fill="#673918" d="M410.336,118.929c0-6.419,1.819-12.224,5.461-17.416c3.641-5.19,7.844-7.787,12.607-7.787
					c1.157,0,2.246,0.16,3.268,0.476c1.496-13.393,3.708-23.241,6.635-29.542c2.926-6.301,7.009-9.451,12.251-9.451
					c2.857,0,5.068,1.189,6.635,3.566c1.565,2.378,2.349,5.35,2.349,8.916s-0.835,7.668-2.502,12.304
					c-1.668,4.636-3.368,8.541-5.104,11.709c-1.735,3.171-4.203,7.352-7.401,12.542c-3.2,5.191-5.206,8.541-6.023,10.045v1.545
					c0,3.25,0.493,5.568,1.48,6.954c0.986,1.388,2.16,2.081,3.522,2.081c2.654,0,6.191-3.011,10.616-9.035
					c0.204-0.238,0.782-0.336,1.735-0.297c0.952,0.041,1.838,0.457,2.654,1.248c0.817,0.793,1.226,1.783,1.226,2.972
					s-0.307,2.259-0.919,3.21c-4.696,7.132-10.073,10.699-16.13,10.699c-2.11,0-4.236-0.693-6.38-2.08
					c-2.144-1.386-3.659-3.27-4.543-5.647c-1.771,5.311-4.798,7.965-9.086,7.965c-3.403,0-6.312-1.367-8.728-4.101
					C411.543,127.072,410.336,123.446,410.336,118.929z M424.321,124.16c3.062,0,5.002-4.636,5.819-13.909l0.816-9.035
					c-3.675,0.397-6.482,2.122-8.422,5.171c-1.94,3.052-2.91,6.401-2.91,10.045C419.625,121.585,421.19,124.16,424.321,124.16z
					 M449.23,66.622c-2.724,0-4.867,3.269-6.432,9.808c-1.566,6.538-2.927,15.079-4.084,25.619
					c8.167-16.644,12.251-27.619,12.251-32.93C450.966,67.454,450.386,66.622,449.23,66.622z"/>
			</g>
		</g>
	</g>
</g>
</svg>
