<?xml version="1.0" encoding="utf-8"?>
<!-- Generator: Adobe Illustrator 22.1.0, SVG Export Plug-In . SVG Version: 6.00 Build 0)  -->
<svg version="1.2" baseProfile="tiny" id="Layer_1" xmlns="http://www.w3.org/2000/svg" xmlns:xlink="http://www.w3.org/1999/xlink"
	 x="0px" y="0px" viewBox="0 0 159.766 50.285" xml:space="preserve">
<g id="Layer_2_1_">
	<g id="Layer_1-2">
		<g>
			<path fill="#673918" d="M47.896,15.992l-0.462,1.742h-7.643l2.036-14.467h1.974l-1.784,12.725H47.896z"/>
		</g>
		<g>
			<path fill="#673918" d="M49.599,17.734L51.152,6.67h1.932L51.53,17.734H49.599z M53.986,2.785
				c-0.104,0.693-0.65,1.197-1.428,1.197c-0.84,0-1.322-0.631-1.218-1.407c0.105-0.714,0.672-1.218,1.428-1.218
				C53.63,1.357,54.092,1.987,53.986,2.785z"/>
		</g>
		<g>
			<path fill="#673918" d="M63.016,7.782L62.071,9c-0.756-0.714-1.743-1.05-2.625-1.05c-1.428,0-2.288,0.567-2.288,1.491
				c0,0.881,0.734,1.238,2.226,1.68c2.078,0.629,3.128,1.532,3.128,3.359c0,2.414-2.288,3.506-4.598,3.506
				c-1.932,0-3.233-0.756-4.095-1.596l1.176-1.197c0.735,0.777,1.827,1.239,3.003,1.239c1.974,0,2.498-1.134,2.498-1.806
				c0-1.113-0.588-1.449-2.33-2.037c-2.058-0.692-2.961-1.532-2.961-3.044c0-1.448,1.302-3.128,4.241-3.128
				C60.916,6.418,62.071,6.942,63.016,7.782z"/>
		</g>
		<g>
			<path fill="#673918" d="M67.739,16.369c0.504,0,0.966-0.168,1.554-0.504l0.63,1.387c-0.798,0.504-1.617,0.734-2.499,0.734
				c-1.911,0-2.876-1.154-2.583-3.213l0.924-6.613h-1.911l0.21-1.49h1.995l0.693-2.562l1.512-0.168l-0.378,2.73h2.604l-0.42,1.49
				h-2.394l-0.924,6.656C66.584,15.929,66.836,16.369,67.739,16.369z"/>
		</g>
		<g>
			<path fill="#673918" d="M73.058,13.619c0.042,2.016,0.987,2.75,2.394,2.75c1.029,0,1.953-0.314,2.96-1.028l0.819,1.302
				c-1.197,0.861-2.499,1.344-3.968,1.344c-2.708,0-4.22-1.701-4.22-4.493c0-3.023,1.491-7.075,5.69-7.075
				c2.352,0,3.506,1.344,3.506,2.812C80.238,12.338,76.921,13.199,73.058,13.619z M78.223,9.294c0-0.524-0.315-1.344-1.512-1.344
				c-2.31,0-3.275,2.184-3.548,4.199C76.333,11.793,78.223,11.184,78.223,9.294z"/>
		</g>
		<g>
			<path fill="#673918" d="M91.158,9.861l-1.113,7.873h-1.91l1.092-7.727c0.23-1.658-0.378-1.974-1.365-1.974
				c-1.218,0-2.456,1.491-3.338,3.065l-0.903,6.635h-1.91L83.264,6.67h1.638l-0.168,2.162c1.028-1.449,2.372-2.414,3.842-2.414
				C90.444,6.418,91.452,7.762,91.158,9.861z"/>
		</g>
		<g>
			<path fill="#673918" d="M101.899,16.369c0.504,0,0.966-0.168,1.554-0.504l0.63,1.387c-0.798,0.504-1.617,0.734-2.499,0.734
				c-1.91,0-2.876-1.154-2.582-3.213l0.924-6.613h-1.911l0.21-1.49h1.995l0.692-2.562l1.512-0.168l-0.378,2.73h2.604l-0.42,1.49
				h-2.394l-0.924,6.656C100.744,15.929,100.996,16.369,101.899,16.369z"/>
		</g>
		<g>
			<path fill="#673918" d="M115.154,10.994c0,2.667-1.365,6.992-5.711,6.992c-2.751,0-4.241-1.764-4.241-4.577
				c0-2.729,1.406-6.991,5.731-6.991C113.685,6.418,115.154,8.182,115.154,10.994z M107.218,13.619c0,1.932,0.798,2.813,2.288,2.813
				c2.877,0,3.633-3.527,3.633-5.647c0-1.932-0.798-2.814-2.268-2.814C107.994,7.971,107.218,11.498,107.218,13.619z"/>
		</g>
		<g>
			<path fill="#673918" d="M2.1,31.491c0-0.44,0.042-0.734,0.483-1.428l1.827-2.939H5.69l-1.365,3.234
				c0.294,0.209,0.462,0.524,0.462,0.965c0,0.756-0.63,1.323-1.449,1.323C2.604,32.646,2.1,32.143,2.1,31.491z M5.837,31.491
				c0-0.44,0.042-0.734,0.483-1.428l1.827-2.939h1.281l-1.365,3.234c0.294,0.209,0.462,0.524,0.462,0.965
				c0,0.756-0.63,1.323-1.449,1.323C6.341,32.646,5.837,32.143,5.837,31.491z"/>
		</g>
		<g>
			<path fill="#673918" d="M10.94,39.302l-1.596,3.633H7.308l6.635-14.467h2.499l2.541,14.467h-2.037l-0.567-3.633H10.94z
				 M14.951,30.127l-3.317,7.559h4.493L14.951,30.127z"/>
		</g>
		<g>
			<path fill="#673918" d="M32.836,36.51l2.918,6.425h-2.184l-2.667-6.131h-2.289l-0.861,6.131h-1.974l2.037-14.467h3.716
				c3.317,0,4.955,1.197,4.955,3.486C36.49,33.802,35.566,35.733,32.836,36.51z M30.947,35.271c2.729,0,3.464-1.764,3.464-3.359
				c0-1.364-0.924-1.889-2.981-1.889h-1.869l-0.735,5.248H30.947z"/>
		</g>
		<g>
			<path fill="#673918" d="M39.228,38.819c0.042,2.016,0.987,2.75,2.394,2.75c1.029,0,1.953-0.314,2.96-1.028l0.819,1.302
				c-1.197,0.861-2.499,1.344-3.968,1.344c-2.708,0-4.22-1.701-4.22-4.493c0-3.023,1.491-7.075,5.69-7.075
				c2.352,0,3.506,1.344,3.506,2.812C46.408,37.538,43.091,38.399,39.228,38.819z M44.393,34.494c0-0.524-0.315-1.344-1.512-1.344
				c-2.31,0-3.275,2.184-3.548,4.199C42.503,36.993,44.393,36.384,44.393,34.494z"/>
		</g>
		<g>
			<path fill="#673918" d="M57.58,32.562l-1.197,7.853c-0.021,0.168-0.042,0.314-0.042,0.441c0,0.608,0.273,0.84,0.714,1.008
				l-0.546,1.322c-1.113-0.146-1.806-0.65-1.953-1.848c-0.861,1.113-1.995,1.848-3.296,1.848c-2.31,0-3.527-1.701-3.527-4.241
				c0-3.023,1.596-7.327,5.9-7.327C54.956,31.618,56.11,31.849,57.58,32.562z M49.791,38.966c0,1.848,0.693,2.688,1.932,2.688
				c1.176,0,2.037-0.881,2.897-2.036l0.924-6.11c-0.63-0.272-1.092-0.356-1.869-0.356C50.861,33.15,49.791,36.489,49.791,38.966z"/>
		</g>
		<g>
			<path fill="#673918" d="M62.012,41.591c0.252,0,0.504-0.062,0.756-0.168l0.399,1.406c-0.567,0.252-1.05,0.357-1.533,0.357
				c-1.47,0-2.247-0.902-1.995-2.729l1.848-13.038l1.932-0.231l-1.911,13.585C61.445,41.36,61.55,41.591,62.012,41.591z"/>
		</g>
		<g>
			<path fill="#673918" d="M81.603,29.875l-1.301,1.112c-0.903-0.818-1.68-1.133-2.918-1.133c-3.758,0-5.186,4.408-5.186,7.895
				c0,2.688,1.134,3.8,3.275,3.8c0.924,0,1.869-0.21,2.75-0.735l0.63-4.283h-2.52v-1.616h4.703l-0.945,6.887
				c-1.407,0.903-2.918,1.386-4.892,1.386c-3.107,0-5.081-1.91-5.081-5.689c0-4.158,2.163-9.281,7.244-9.281
				C79.23,28.216,80.511,28.825,81.603,29.875z"/>
		</g>
		<g>
			<path fill="#673918" d="M92.607,36.194c0,2.667-1.365,6.992-5.711,6.992c-2.751,0-4.241-1.764-4.241-4.577
				c0-2.729,1.406-6.991,5.731-6.991C91.138,31.618,92.607,33.382,92.607,36.194z M84.671,38.819c0,1.932,0.798,2.813,2.288,2.813
				c2.877,0,3.633-3.527,3.633-5.647c0-1.932-0.798-2.814-2.268-2.814C85.447,33.171,84.671,36.698,84.671,38.819z"/>
		</g>
		<g>
			<path fill="#673918" d="M104.325,36.194c0,2.667-1.365,6.992-5.711,6.992c-2.751,0-4.241-1.764-4.241-4.577
				c0-2.729,1.406-6.991,5.731-6.991C102.855,31.618,104.325,33.382,104.325,36.194z M96.389,38.819
				c0,1.932,0.798,2.813,2.288,2.813c2.877,0,3.633-3.527,3.633-5.647c0-1.932-0.798-2.814-2.268-2.814
				C97.165,33.171,96.389,36.698,96.389,38.819z"/>
		</g>
		<g>
			<path fill="#673918" d="M114.699,42.935h-1.68l0.021-1.826c-0.776,1.28-1.91,2.078-3.338,2.078c-2.289,0-3.507-1.722-3.507-4.389
				c0-2.855,1.365-7.18,5.145-7.18c1.302,0,2.226,0.608,2.834,1.385l0.819-5.815l1.89,0.231L114.699,42.935z M108.232,38.945
				c0,1.868,0.692,2.708,1.848,2.708c1.364,0,2.268-1.008,3.233-2.561l0.65-4.599c-0.546-0.86-1.238-1.344-2.268-1.344
				C109.009,33.15,108.232,36.741,108.232,38.945z"/>
		</g>
		<g>
			<path fill="#673918" d="M123.352,42.935l2.037-14.467h1.974l-2.037,14.467H123.352z M133.514,42.935h-2.352l-4.64-7.727
				l6.341-6.74h2.33l-6.445,6.803L133.514,42.935z"/>
		</g>
		<g>
			<path fill="#673918" d="M135.069,42.935l1.554-11.064h1.932l-1.554,11.064H135.069z M139.458,27.985
				c-0.105,0.693-0.651,1.197-1.428,1.197c-0.84,0-1.323-0.631-1.218-1.407c0.104-0.714,0.672-1.218,1.428-1.218
				C139.101,26.558,139.562,27.188,139.458,27.985z"/>
		</g>
		<g>
			<path fill="#673918" d="M149.033,42.935h-1.68l0.021-1.826c-0.776,1.28-1.91,2.078-3.338,2.078c-2.289,0-3.507-1.722-3.507-4.389
				c0-2.855,1.365-7.18,5.145-7.18c1.302,0,2.226,0.608,2.834,1.385l0.819-5.815l1.89,0.231L149.033,42.935z M142.566,38.945
				c0,1.868,0.692,2.708,1.848,2.708c1.364,0,2.268-1.008,3.233-2.561l0.65-4.599c-0.546-0.86-1.238-1.344-2.268-1.344
				C143.343,33.15,142.566,36.741,142.566,38.945z"/>
		</g>
		<g>
			<path fill="#673918" d="M156.026,28.279c0,0.44-0.042,0.735-0.482,1.428l-1.827,2.939h-1.28l1.364-3.233
				c-0.294-0.21-0.462-0.525-0.462-0.966c0-0.756,0.63-1.323,1.449-1.323C155.522,27.124,156.026,27.628,156.026,28.279z
				 M159.764,28.279c0,0.44-0.042,0.735-0.482,1.428l-1.827,2.939h-1.28l1.364-3.233c-0.294-0.21-0.462-0.525-0.462-0.966
				c0-0.756,0.63-1.323,1.449-1.323C159.26,27.124,159.764,27.628,159.764,28.279z"/>
		</g>
	</g>
</g>
</svg>
