<?xml version="1.0" encoding="utf-8"?>
<!-- Generator: Adobe Illustrator 22.1.0, SVG Export Plug-In . SVG Version: 6.00 Build 0)  -->
<svg version="1.2" baseProfile="tiny" id="Layer_1" xmlns="http://www.w3.org/2000/svg" xmlns:xlink="http://www.w3.org/1999/xlink"
	 x="0px" y="0px" viewBox="0 0 209.511 71.728" xml:space="preserve">
<g id="Layer_2_1_">
	<g id="Layer_1-2">
		<g id="Artwork_1">
			<path fill="#673918" d="M54.885,34.66c-1.138-0.355-2.356,0.23-2.79,1.34c-0.484,1.14-0.908,2.305-1.27,3.49
				c-0.085,0.274-0.085,0.566,0,0.84c0.135,0.57,0.434,1.088,0.86,1.49c0.36,0.29,0.67,0.38,1,0.07c0.681-0.629,1.325-1.297,1.93-2
				c0.385-0.503,0.72-1.042,1-1.61c0.435-0.55,0.69-1.22,0.73-1.92c-0.144-0.773-0.677-1.416-1.41-1.7 M118.946,9.17
				c0.626,0.065,1.243,0.199,1.84,0.4c0.953,0.495,1.75,1.247,2.3,2.17c0.698,1.017,1.174,2.168,1.4,3.38
				c0.028,0.357,0.082,0.711,0.16,1.06c0.188,0.873,0.242,1.77,0.16,2.66c-0.052,0.816-0.159,1.628-0.32,2.43
				c-0.205,1.038-0.541,2.046-1,3c-0.37,0.93-0.79,1.84-1.22,2.75c-0.24,0.5-0.58,1-0.77,1.47c-0.364,0.955-0.888,1.841-1.55,2.62
				c-0.52,0.64-1,1.34-1.56,1.93c-1.201,1.166-2.545,2.174-4,3c-1.268,0.766-2.607,1.406-4,1.91c-0.9,0.32-1.85,0.5-2.77,0.74
				c-0.36,0.1-0.43,0-0.42-0.33c-0.01-0.11-0.01-0.22,0-0.33c0.09-0.55,0.21-1.09,0.29-1.64c0.13-0.78,0.22-1.57,0.34-2.36
				c0.23-1.47,0.48-2.94,0.71-4.4s0.41-3,0.68-4.42c0.34-1.92,0.75-3.83,1.13-5.74c0.15-0.73,0.27-1.46,0.42-2.2
				c0.07-0.34,0.15-0.62,0.63-0.66s0.78-0.36,0.79-1c-0.006-0.261,0.015-0.523,0.06-0.78c0.13-0.747,0.11-1.511-0.06-2.25
				c-0.12-0.54-0.68-1-1.1-0.81c-0.241,0.097-0.502,0.135-0.76,0.11c-0.15,0-0.31,0.4-0.48,0.62c-0.259,0.282-0.496,0.583-0.71,0.9
				c-0.42,0.82-0.83,1.66-1.18,2.52c-0.35,0.86-0.54,1.57-0.84,2.35c-0.78,2.068-1.382,4.199-1.8,6.37c-0.1,0.5-0.16,1-0.24,1.5
				c-0.19,1.22-0.35,2.43-0.56,3.64c-0.17,1-0.39,2-0.58,3c-0.11,0.61-0.23,1.22-0.32,1.83c-0.12,0.77-0.21,1.55-0.33,2.32
				s-0.26,1.59-0.39,2.38c-0.028,0.122-0.079,0.237-0.15,0.34c-0.039,0.073-0.103,0.13-0.18,0.16c-0.328,0.08-0.663,0.134-1,0.16
				c-1.15,0.07-2.3,0.14-3.45,0.15c-0.665-0.015-1.311,0.229-1.8,0.68c-0.293,0.301-0.603,0.585-0.93,0.85
				c-0.586,0.462-1.061,1.05-1.39,1.72c-0.161,0.239-0.118,0.561,0.1,0.75c0.227,0.224,0.51,0.383,0.82,0.46
				c0.872,0.144,1.756,0.204,2.64,0.18c1.4-0.09,2.8-0.32,4.2-0.5c0.27,0,0.34,0,0.29,0.29c-0.17,0.76-0.32,1.53-0.48,2.3
				c-0.21,1-0.43,2.09-0.64,3.13s-0.37,2-0.58,3s-0.5,2.25-0.75,3.38c-0.09,0.41-0.13,0.83-0.25,1.23
				c-0.22,0.73-0.47,1.44-0.71,2.15c-0.566,1.803-1.439,3.494-2.58,5c-0.379,0.514-0.534,1.16-0.43,1.79
				c0.109,0.924,0.28,1.839,0.51,2.74c0.167,0.795,0.555,1.527,1.12,2.11c0.372,0.27,0.849,0.351,1.29,0.22
				c0.646-0.313,1.211-0.772,1.65-1.34c0.32-0.54,0.76-1,1.08-1.55c0.48-0.81,0.91-1.64,1.32-2.49c0.298-0.595,0.555-1.21,0.77-1.84
				c0.36-1,0.67-2,1-3.08c0.5-1.6,0.987-3.203,1.46-4.81c0.18-0.63,0.29-1.28,0.42-1.93s0.31-1.32,0.42-2s0.21-1.54,0.3-2.32
				c0.13-1.27,0.29-2.53,0.38-3.81c0.06-0.92,0-1.86,0-2.78c0-0.3,0.09-0.4,0.4-0.45c0.81-0.14,1.62-0.33,2.43-0.52
				c0.27-0.07,0.53-0.19,0.81-0.28c0.64-0.2,1.32-0.36,1.94-0.62c0.94-0.38,1.83-0.88,2.77-1.26c1.387-0.604,2.725-1.316,4-2.13
				c1.494-0.925,2.842-2.068,4-3.39c1.271-1.374,2.338-2.923,3.17-4.6c0.181-0.388,0.341-0.785,0.48-1.19
				c0.066-0.311,0.16-0.616,0.28-0.91c0.386-0.835,0.691-1.706,0.91-2.6c0.082-0.219,0.149-0.442,0.2-0.67
				c0.12-0.65,0.18-1.31,0.31-2s0.28-1.31,0.44-2c0.35-1.168,0.35-2.412,0-3.58c-0.2-0.63-0.26-1.31-0.47-2c-0.32-1-0.69-2-1.1-2.94
				c-0.208-0.505-0.484-0.98-0.82-1.41c-0.322-0.426-0.71-0.797-1.15-1.1c-0.1-0.08-0.15-0.23-0.25-0.33
				c-0.432-0.472-0.889-0.919-1.37-1.34c-0.56-0.46-1.19-0.84-1.8-1.25c-0.187-0.156-0.396-0.284-0.62-0.38
				c-1.14-0.33-2.28-0.68-3.44-0.92c-0.892-0.225-1.811-0.323-2.73-0.29c-0.969,0.117-1.92,0.355-2.83,0.71
				c-1.18,0.42-2.31,1-3.47,1.44c-1.928,0.743-3.668,1.901-5.1,3.39c-0.896,0.869-1.747,1.784-2.55,2.74
				c-0.83,1.12-1.76,2.16-2.64,3.24c-0.075,0.096-0.139,0.2-0.19,0.31c-0.64,1.21-0.9,2.57-1.65,3.73c0,0,0,0.07,0,0.11
				c-0.213,0.644-0.298,1.323-0.25,2c0.016,0.365,0.196,0.703,0.49,0.92c0.126,0.146,0.347,0.163,0.494,0.036
				c0.013-0.011,0.025-0.023,0.036-0.036c1.11-1.37,2.26-2.71,3.35-4.09c0.81-1,1.52-2.11,2.34-3.13
				c0.788-0.988,1.626-1.936,2.51-2.84c0.883-0.996,1.924-1.84,3.08-2.5c1.06-0.56,2.12-1.13,3.21-1.64
				c0.372-0.114,0.761-0.161,1.15-0.14c0.17,0,0.35,0.09,0.52,0.06c0.658-0.174,1.326-0.311,2-0.41c0.87-0.08,1.76,0,2.64,0
				c-0.005-0.033-0.005-0.067,0-0.1 M139.155,65.75c0.708,0.061,1.388-0.289,1.75-0.9c0.508-0.908,0.891-1.88,1.14-2.89
				c0.019-0.075,0.019-0.155,0-0.23c0-0.23-0.15-0.29-0.36-0.16c-1.367,0.831-2.914,1.321-4.51,1.43c-0.26,0-0.34,0.12-0.27,0.38
				c0.17,0.599,0.482,1.148,0.91,1.6c0.342,0.402,0.842,0.635,1.37,0.64 M174.525,58.62c0.36-0.24,0.66-0.44,0.94-0.65
				c0.736-0.576,1.366-1.277,1.86-2.07c0.656-0.961,1.251-1.963,1.78-3c0.6-1.29,1.05-2.65,1.53-4c0.376-0.884,0.557-1.839,0.53-2.8
				c0.009-0.266-0.158-0.506-0.41-0.59c-0.497-0.15-1.036-0.046-1.44,0.28c-0.855,0.628-1.565,1.433-2.08,2.36
				c-0.46,0.73-0.79,1.54-1.23,2.29c-0.545,1.1-0.932,2.272-1.15,3.48c-0.26,1-0.4,2.09-0.58,3.14
				c-0.099,0.53-0.011,1.078,0.25,1.55 M119.525,61.96c0.594,0.04,1.178-0.162,1.62-0.56c0.37-0.35,0.7-0.76,1.05-1.14
				c0.731-0.781,1.35-1.659,1.84-2.61c0.24-0.47,0.52-0.93,0.77-1.4c0.19-0.32,0.353-0.654,0.49-1c0.33-0.93,0.64-1.86,0.93-2.81
				s0.61-2,0.86-3.08c0.118-0.413-0.019-0.856-0.35-1.13c-0.229-0.186-0.402-0.432-0.5-0.71c-0.378-1.056-0.502-2.187-0.36-3.3
				c0.055-0.214-0.073-0.432-0.287-0.488c-0.027-0.007-0.055-0.011-0.083-0.012c-0.195-0.04-0.395-0.04-0.59,0
				c-0.69,0.164-1.361,0.402-2,0.71c-1.25,0.72-2.46,1.5-3.65,2.31c-1.564,1.118-2.95,2.466-4.11,4
				c-0.087,0.106-0.152,0.228-0.19,0.36c-0.28,0.91-0.56,1.83-0.82,2.74c-0.103,0.295-0.144,0.608-0.12,0.92
				c0.2,1.19,0.41,2.39,0.69,3.57c0.276,1.031,0.939,1.915,1.85,2.47c0.18,0.12,0.38,0.19,0.55,0.3
				c0.705,0.469,1.517,0.751,2.36,0.82 M141.475,57.78C141.475,57.83,141.475,57.78,141.475,57.78c-0.21-0.88-0.41-1.76-0.64-2.63
				c-0.238-0.856-0.342-1.743-0.31-2.63c-0.006-1.531,0.165-3.058,0.51-4.55c0.33-1.19,0.77-2.36,1.18-3.53
				c0.16-0.45,0.4-0.88,0.6-1.32c0-0.06,0-0.13,0-0.2l-0.09-0.06c-0.28,0.32-0.54,0.64-0.83,1c-1.12,1.22-2.21,2.49-3.39,3.66
				c-1.113,1.016-2.405,1.816-3.81,2.36c-1.52,0.611-3.199,0.709-4.78,0.28c-0.32-0.07-0.46,0-0.5,0.33
				c-0.17,1.14-0.3,2.29-0.54,3.42c-0.191,0.743-0.425,1.474-0.7,2.19c-0.36,1-0.68,2.05-1.11,3c-0.311,0.78-0.685,1.532-1.12,2.25
				c-0.671,1.15-1.582,2.143-2.67,2.91c-1.272,0.895-2.776,1.402-4.33,1.46c-0.918,0.045-1.835-0.091-2.7-0.4
				c-0.515-0.212-0.977-0.536-1.35-0.95c-0.695-0.752-1.346-1.543-1.95-2.37c-0.49-0.66-0.9-1.39-1.34-2.09
				c-0.5-0.945-0.867-1.954-1.09-3c-0.228-0.925-0.312-1.879-0.25-2.83c0.004-0.376,0.075-0.749,0.21-1.1
				c0.49-1.16,1-2.33,1.58-3.44c0.42-0.83,1.014-1.559,1.74-2.14c1.19-0.88,2.37-1.76,3.53-2.66c1.205-0.872,2.495-1.619,3.85-2.23
				c0.951-0.501,1.958-0.887,3-1.15c1.175-0.266,2.404-0.165,3.52,0.29c0.779,0.308,1.438,0.858,1.88,1.57
				c0.104,0.197,0.156,0.417,0.15,0.64c0,0.63,0.05,1.26,0,1.89c-0.005,0.23,0.154,0.432,0.38,0.48
				c1.031,0.409,2.147,0.56,3.25,0.44c0.585-0.044,1.164-0.144,1.73-0.3c1.371-0.425,2.613-1.188,3.61-2.22
				c0.49-0.52,0.85-1.24,1.43-1.59c0.78-0.47,1.33-1.17,2.06-1.67c1-0.68,1.89-1.41,2.89-2c1.08-0.642,2.282-1.051,3.53-1.2
				c0.42-0.04,0.82,0.188,1,0.57c0.11,0.391,0.171,0.794,0.18,1.2c-0.034,0.132-0.116,0.246-0.23,0.32
				c-1,0.765-1.879,1.675-2.61,2.7c-0.33,0.46-0.618,0.948-0.86,1.46c-0.38,0.77-0.7,1.56-1,2.34c-0.05,0.12-0.11,0.25-0.15,0.38
				c-0.19,0.62-0.35,1.26-0.56,1.88c-0.326,0.941-0.472,1.935-0.43,2.93c0.09,0.838,0.233,1.67,0.43,2.49
				c0.19,0.92,0.43,1.83,0.58,2.76c0.04,0.479,0.04,0.961,0,1.44c0.066-0.021,0.129-0.047,0.19-0.08
				c0.712-0.617,1.35-1.315,1.9-2.08c0.89-1.27,1.82-2.52,2.71-3.79c0.5-0.72,0.94-1.48,1.43-2.22c0.72-1.09,1.43-2.2,2.19-3.27
				c0.6-0.85,1.25-1.66,1.91-2.47c0.722-0.925,1.628-1.691,2.66-2.25c0.677-0.362,1.508-0.271,2.09,0.23
				c0.516,0.4,0.983,0.86,1.39,1.37c0.312,0.493,0.43,1.085,0.33,1.66c-0.022,0.462-0.089,0.921-0.2,1.37
				c-0.12,0.57-0.28,1.14-0.43,1.72c0,0.15-0.07,0.3-0.11,0.45l0.09,0.06c0.08-0.051,0.154-0.112,0.22-0.18
				c0.36-0.44,0.68-0.91,1.06-1.34c0.69-0.77,1.39-1.56,2.14-2.28c0.614-0.61,1.491-0.876,2.34-0.71
				c0.362,0.08,0.685,0.285,0.91,0.58c0.464,0.604,0.707,1.349,0.69,2.11c0,0.854-0.07,1.707-0.21,2.55
				c-0.245,1.091-0.545,2.169-0.9,3.23c-0.44,1.34-0.91,2.68-1.39,4c-0.24,0.68-0.55,1.35-0.79,2c-0.546,1.381-0.644,2.9-0.28,4.34
				c0.118,0.517,0.537,0.912,1.06,1c1.946,0.407,3.94-0.439,5-2.12c0.25-0.399,0.339-0.878,0.25-1.34
				c-0.092-0.689-0.118-1.386-0.08-2.08c0.028-0.903,0.102-1.804,0.22-2.7c0.09-0.715,0.227-1.423,0.41-2.12
				c0.28-1,0.57-2.09,0.93-3.1c0.346-0.997,0.754-1.973,1.22-2.92c0.295-0.509,0.644-0.985,1.04-1.42
				c0.848-1.09,1.84-2.059,2.95-2.88c0.832-0.541,1.738-0.959,2.69-1.24c0.549-0.234,1.134-0.369,1.73-0.4
				c0.967-0.084,1.89,0.415,2.35,1.27c0.052,0.108,0.089,0.222,0.11,0.34c0.11,0.46,0.22,0.92,0.31,1.38
				c0.02,0.106,0.02,0.214,0,0.32c-0.061,0.215-0.098,0.437-0.11,0.66c0.047,0.983-0.128,1.963-0.51,2.87
				c-0.27,0.76-0.49,1.53-0.78,2.29c-0.168,0.381-0.358,0.752-0.57,1.11c-0.24,0.45-0.47,0.9-0.73,1.33c-0.48,0.78-1,1.57-1.47,2.32
				s-1.24,1.77-1.92,2.61c-0.824,1.024-1.783,1.932-2.85,2.7c-0.57,0.39-0.56,0.49-0.23,1c0.744,1.104,2.196,1.477,3.38,0.87
				c1.47-0.711,2.752-1.759,3.74-3.06c1.016-1.281,1.829-2.711,2.41-4.24c0.19-0.5,0.48-1,0.69-1.44s0.38-1.08,0.58-1.61
				c0.75-2,1.5-3.89,2.24-5.84c0.19-0.52,0.36-1,0.55-1.58s0.39-0.55,0.84-0.28s0.89,0.49,1.34,0.73
				c0.607,0.452,1.125,1.011,1.53,1.65c0.439,0.561,0.843,1.149,1.21,1.76c0.355,0.461,0.561,1.019,0.59,1.6
				c-0.008,0.388,0.057,0.775,0.19,1.14c0.182,0.545,0.101,1.143-0.22,1.62c-0.28,0.55-0.6,1.08-0.92,1.62
				c-0.78,1.33-1.64,2.63-2.32,4c-0.813,1.331-1.242,2.86-1.24,4.42c0.021,0.267,0.078,0.529,0.17,0.78c0.15,0.36,0.35,0.69,0.52,1
				c0.267,0.426,0.711,0.708,1.21,0.77c0.599,0.185,1.241,0.185,1.84,0c1.4-0.47,2.81-0.91,4.2-1.4
				c0.503-0.208,0.994-0.445,1.47-0.71c0.07,0,0.19-0.1,0.23-0.07c0.33,0.21,0.58,0,0.83-0.14c0.721-0.391,1.521-0.613,2.34-0.65
				c0.949-0.113,1.906-0.146,2.86-0.1c0.895,0.129,1.776,0.343,2.63,0.64c0.25,0.07,0.43,0.36,0.65,0.55
				c0.025,0.029,0.042,0.063,0.05,0.1c0.06,0.24-0.4,1-0.66,1c-0.284,0.029-0.571,0.012-0.85-0.05
				c-0.832-0.222-1.711-0.198-2.53,0.07c-1.65,0.54-3.31,1.06-4.93,1.67c-0.776,0.263-1.495,0.67-2.12,1.2
				c-0.13,0.11-0.37,0.1-0.55,0.17c-1.424,0.619-2.929,1.029-4.47,1.22c-1.06,0.13-2.12,0.26-3.18,0.32
				c-1.14,0.037-2.184-0.631-2.63-1.68c-0.906-1.58-1.046-3.485-0.38-5.18c0.41-1.12,1-2.19,1.46-3.28c0.66-1.43,1.36-2.84,2-4.27
				c0.57-1.038,0.882-2.197,0.91-3.38c-0.033-0.337-0.09-0.671-0.17-1c0-0.12-0.14-0.21-0.22-0.33c-0.06,0.06-0.11,0.07-0.11,0.1
				c-0.346,1.261-0.825,2.481-1.43,3.64c-0.19,0.52-0.37,1-0.6,1.56c-0.39,0.84-0.78,1.68-1.21,2.5s-0.8,1.37-1.23,2
				c-0.566,0.945-1.202,1.848-1.9,2.7c-0.795,0.819-1.647,1.581-2.55,2.28c-0.49,0.41-1,0.77-1.54,1.15
				c-0.801,0.519-1.678,0.911-2.6,1.16c-0.27,0.09-0.56,0.13-0.82,0.22c-0.423,0.118-0.876,0.064-1.26-0.15
				c-1.056-0.508-1.954-1.293-2.6-2.27c-0.252-0.414-0.453-0.858-0.6-1.32c-0.12-0.27-0.27-0.28-0.48-0.1
				c-0.77,0.62-1.54,1.22-2.3,1.84c-1.073,0.782-2.312,1.306-3.62,1.53c-0.755,0.213-1.549,0.247-2.32,0.1
				c-1.06-0.25-1.65-0.43-1.89-1.63c-0.223-0.987-0.37-1.99-0.44-3c-0.026-0.993,0.14-1.981,0.49-2.91c0.28-0.83,0.51-1.68,0.8-2.51
				s0.55-1.35,0.79-2s0.56-1.65,0.77-2.49c0.142-0.611,0.229-1.234,0.26-1.86c0-0.37,0.06-0.83-0.35-1s-0.79,0.07-1.09,0.31
				c-0.563,0.424-1.088,0.896-1.57,1.41c-1.814,2.145-3.322,4.531-4.48,7.09c-0.56,1.17-1.1,2.36-1.7,3.51s-1.23,2.21-1.91,3.27
				c-0.459,0.696-0.96,1.364-1.5,2c-0.293,0.468-0.91,0.611-1.378,0.318c-0.168-0.105-0.301-0.257-0.382-0.438
				c-0.303-0.538-0.56-1.1-0.77-1.68c-0.019-0.143,0.029-0.287,0.13-0.39c0.25-0.26,0.54-0.47,0.79-0.73
				c0.677-0.709,1.234-1.523,1.65-2.41c0.35-0.73,0.79-1.41,1.13-2.13s0.66-1.62,1-2.43c0.49-1.2,1-2.41,1.47-3.59s1-2,1.4-3
				c0.627-1.323,1.093-2.716,1.39-4.15c0.052-0.331,0.052-0.669,0-1c-0.07-0.37-0.3-0.47-0.6-0.24
				c-0.465,0.301-0.882,0.668-1.24,1.09c-0.62,0.84-1.15,1.74-1.7,2.62l-2.48,4c-0.59,0.94-1.14,1.9-1.78,2.8s-1.33,1.7-2,2.52
				c-0.46,0.54-1,1-1.43,1.57c-0.716,0.757-1.518,1.428-2.39,2c-0.222,0.158-0.37,0.4-0.41,0.67c-0.311,1.33-0.916,2.574-1.77,3.64
				c-0.405,0.386-0.855,0.722-1.34,1c-0.311,0.219-0.647,0.4-1,0.54c-0.988,0.344-2.076,0.261-3-0.23
				c-1-0.463-1.872-1.163-2.54-2.04c-0.598-0.775-1.043-1.658-1.31-2.6c-0.291-0.844-0.877-1.554-1.65-2
				c-0.452-0.253-0.919-0.477-1.4-0.67c-0.54-0.24-0.65-0.57-0.35-1.08c0.528-0.755,1.44-1.143,2.35-1
				c0.974,0.094,1.93,0.322,2.84,0.68c1.739,0.482,3.602,0.143,5.06-0.92c0.33-0.22,0.68-0.4,1.08-0.62 M60.945,53.83
				c0.024,0.031,0.044,0.065,0.06,0.1c0.382,0.001,0.763-0.029,1.14-0.09c0.873-0.266,1.66-0.76,2.28-1.43
				c1.13-1.046,2.035-2.312,2.66-3.72c0.483-1.092,0.725-2.276,0.71-3.47c0-0.64-0.26-0.94-1-0.73
				c-0.349,0.11-0.626,0.376-0.75,0.72c-0.23,0.48-0.41,1-0.6,1.48c-0.26,0.71-0.48,1.43-0.8,2.12s-0.65,1.16-1,1.74
				c-0.478,0.918-1.11,1.747-1.87,2.45c-0.29,0.25-0.54,0.55-0.81,0.83 M73.446,60.77c0.14,0,0.2,0,0.23-0.05
				c0.635-0.512,1.215-1.088,1.73-1.72c1.03-1.486,1.981-3.025,2.85-4.61c0.683-1.282,1.153-2.667,1.39-4.1
				c0.268-0.881,0.323-1.813,0.16-2.72c-0.117-0.637-0.707-1.074-1.35-1c-0.841,0.132-1.586,0.616-2.05,1.33
				c-1.1,1.29-1.4,3-1.95,4.51c-0.275,1.013-0.446,2.052-0.51,3.1c-0.16,1.21-0.29,2.43-0.41,3.65c0,0.52,0,1-0.07,1.61
				 M38.515,40.57c-0.16,0.36-0.31,0.73-0.48,1.08c-0.63,1.33-1.28,2.66-1.92,4c-0.49,1-1,2-1.48,3c-0.11,0.22-0.28,0.41-0.39,0.63
				c-1.006,1.941-2.327,3.702-3.91,5.21c-0.507,0.469-1.064,0.882-1.66,1.23c-0.378,0.212-0.807,0.316-1.24,0.3
				c-0.62,0-1-0.53-1.13-1.24c-0.082-0.696-0.018-1.401,0.19-2.07c0.454-1.637,0.768-3.31,0.94-5c0.07-0.69,0.26-1.37,0.37-2
				c0.15-1,0.27-2,0.4-3c0.07-0.59,0.18-1.18,0.23-1.77c0.11-1.52,0.2-3.05,0.32-4.57c0-0.6,0.15-1.2,0.23-1.8c0-0.12,0-0.24,0-0.36
				h-0.1c-0.1,0.21-0.19,0.42-0.27,0.64c-0.34,0.89-0.68,1.77-1,2.67s-0.67,1.94-1,2.9c-0.24,0.64-0.53,1.26-0.79,1.89
				c-0.55,1.32-1.08,2.66-1.65,4c-0.22,0.53-0.49,1-0.74,1.54c-0.09,0.2-0.17,0.41-0.26,0.62c-0.67,1.6-1.33,3.22-2,4.81
				c-0.28,0.64-0.65,1.23-1,1.85c-0.12,0.24-0.22,0.49-0.34,0.74c-0.3,0.59-0.61,1.17-0.9,1.77c-0.18,0.39-0.33,0.8-0.5,1.2
				c-0.042,0.141-0.11,0.273-0.2,0.39c-0.466,0.581-0.844,1.228-1.12,1.92c-0.357,0.637-0.747,1.255-1.17,1.85
				c-0.5,0.76-1,1.52-1.51,2.25c-0.27,0.37-0.63,0.67-0.91,1c-1.265,1.433-2.793,2.611-4.5,3.47c-0.82,0.47-1.77,0.71-2.6,1.16
				c-0.857,0.426-1.787,0.687-2.74,0.77c-0.919,0.19-1.877,0.026-2.68-0.46c-0.068-0.032-0.129-0.076-0.18-0.13
				c-0.576-0.674-0.87-1.545-0.82-2.43c0.055-0.475,0.055-0.955,0-1.43c0-0.23,0-0.39,0.24-0.49s0.37-0.21,0.57-0.28
				c1.65-0.62,3.33-1.21,5-1.85c0.576-0.255,1.134-0.549,1.67-0.88c0.287-0.172,0.564-0.359,0.83-0.56
				c0.35-0.27,0.71-0.54,1.05-0.82c0.59-0.51,1.16-1.05,1.78-1.52c0.907-0.735,1.685-1.617,2.3-2.61c0.3-0.44,0.68-0.82,1-1.26
				c0.46-0.64,0.86-1.33,1.33-2c1.125-1.621,2.154-3.307,3.08-5.05c0.67-1.18,1.3-2.39,1.87-3.63s1-2.4,1.46-3.61
				c0.53-1.41,1-2.83,1.51-4.24c0.6-1.69,1.25-3.35,1.77-5.06s0.8-3.21,1.2-4.81c0.14-0.53,0.32-1.05,0.44-1.58
				c0.4-1.65,0.79-3.31,1.15-5c0.31-1.47,0.58-2.95,0.89-4.42c0.23-1.14,0.51-2.28,0.76-3.42c0.08-0.37,0.14-0.75,0.22-1.13
				c0.2-0.87,0.42-1.74,0.59-2.61s0.28-1.54,0.42-2.31c0.3-1.57,0.56-3.15,0.91-4.71c0.082-0.874,0.524-1.675,1.22-2.21
				c0.913-0.621,2.157-0.385,2.779,0.528c0.007,0.011,0.014,0.021,0.021,0.032c0.456,0.858,0.648,1.833,0.55,2.8
				c0.05,1.4,0.1,2.8,0,4.19s-0.29,2.58-0.46,3.88c-0.07,0.61-0.22,1.22-0.26,1.84c-0.147,1.506-0.414,2.997-0.8,4.46
				c-0.28,1.37-0.56,2.74-0.81,4.12s-0.49,2.81-0.74,4.2c-0.051,0.27-0.128,0.535-0.23,0.79c-0.314,0.822-0.487,1.691-0.51,2.57
				c-0.079,0.553-0.206,1.099-0.38,1.63c-0.11,0.47-0.18,0.948-0.21,1.43c-0.064,0.877-0.205,1.747-0.42,2.6
				c-0.328,0.902-0.556,1.838-0.68,2.79c-0.005,0.567-0.062,1.133-0.17,1.69c-0.07,0.33-0.24,0.65-0.29,1
				c-0.18,1.09-0.33,2.18-0.47,3.28s-0.24,2.21-0.34,3.32c-0.02,0.36-0.02,0.72,0,1.08c0,0.08,0.05,0.19,0.11,0.21s0.17,0,0.22-0.07
				c0.155-0.192,0.298-0.392,0.43-0.6c0.42-0.64,0.86-1.27,1.23-1.94c0.37-0.67,0.74-1.43,1.08-2.16c0.48-1,1-2,1.39-3.08
				s0.71-1.88,1.07-2.81c0.24-0.6,0.53-1.18,0.75-1.79c0.41-1.18,0.78-2.38,1.19-3.56c0.23-0.67,0.55-1.31,0.75-2
				c0.72-2.46,1.44-4.93,2.09-7.42c0.42-1.56,0.74-3.14,1.07-4.72c0.18-0.88,0.28-1.77,0.44-2.64c0.2-1.09,0.45-2.16,0.64-3.25
				c0.13-0.77,0.17-1.56,0.32-2.32c0.22-1.08,0.53-2.15,0.78-3.23c0.19-0.85,0.35-1.72,0.54-2.58s0.39-1.66,0.58-2.5
				c0.13-0.54,0.26-1.08,0.36-1.63c0.127-0.483,0.416-0.907,0.82-1.2c0.067-0.056,0.153-0.084,0.24-0.08
				c0.986,0.111,1.791,0.84,2,1.81c-0.005,0.063-0.005,0.127,0,0.19c0.481,0.752,0.609,1.676,0.35,2.53c0,0.32,0,0.64,0,1
				l-0.12,2.26c0,0.32,0,0.64,0,1c-0.07,0.94-0.15,1.89-0.21,2.85c0,0.6,0,1.21-0.08,1.82c-0.043,0.337-0.107,0.671-0.19,1
				c-0.09,0.54-0.16,1.08-0.26,1.62c-0.1,0.54-0.2,1.09-0.3,1.64s-0.21,1.3-0.36,1.94s-0.38,1.41-0.56,2.12
				c-0.12,0.47-0.2,0.94-0.31,1.42c-0.15,0.72-0.3,1.45-0.46,2.18c-0.11,0.52-0.22,1-0.34,1.56c-0.16,0.74-0.31,1.48-0.49,2.22
				c-0.26,1.09-0.54,2.18-0.82,3.28c-0.41,1.57-0.8,3.15-1.23,4.71c-0.37,1.35-0.79,2.69-1.17,4c-0.19,0.68-0.34,1.37-0.54,2
				c-0.16,0.48-0.39,0.94-0.56,1.42s-0.25,0.81-0.37,1.21s-0.32,1-0.45,1.53c-0.21,0.8-0.39,1.61-0.59,2.42
				c-0.33,1.29-0.67,2.57-1,3.86c-0.362,1.187-0.646,2.396-0.85,3.62c-0.14,1.16-0.67,2.21-0.79,3.36
				c-0.08,0.82-0.21,1.65-0.23,2.47c0.025,0.357,0.142,0.702,0.34,1c0.132,0.298,0.481,0.432,0.779,0.3
				c0.007-0.003,0.014-0.007,0.021-0.01c0.912-0.252,1.706-0.818,2.24-1.6c0.7-1.18,1.38-2.36,2.14-3.49
				c0.834-1.354,1.559-2.772,2.17-4.24c0.52-1.11,1-2.26,1.41-3.4c0.73-1.87,1.41-3.77,2.18-5.62c0.374-0.824,0.808-1.62,1.3-2.38
				c0.202-0.264,0.467-0.474,0.77-0.61c0.168-0.057,0.354-0.031,0.5,0.07c0.376,0.229,0.601,0.64,0.59,1.08
				c0.017,0.284,0.064,0.566,0.14,0.84c0.167,1.29,0.065,2.601-0.3,3.85c-0.28,1.08-0.81,2.1-1.19,3.16
				c-0.46,1.26-0.91,2.52-1.32,3.79c-0.435,1.236-0.802,2.494-1.1,3.77c-0.298,1.056-0.403,2.157-0.31,3.25
				c0.06,0.39,0.28,0.53,0.67,0.4c0.555-0.251,1.037-0.64,1.4-1.13c1.741-1.964,3.22-4.146,4.4-6.49c0.27-0.51,0.42-1.08,0.66-1.61
				s0.44-0.83,0.62-1.26c0.773-1.793,1.537-3.59,2.29-5.39c0.825-1.957,1.454-3.99,1.88-6.07c0.48-2.35,0.88-4.71,1.35-7.06
				c0.24-1.19,0.58-2.36,0.83-3.55c0.22-1,0.4-2,0.57-3c0.14-0.79,0.2-1.6,0.34-2.39c0.429-1.953,0.74-3.93,0.93-5.92
				c0.09-1.36,0.18-2.72,0.31-4.07c0.054-0.513,0.161-1.019,0.32-1.51c0.12-0.43,1-1,1.37-0.94c0.287,0.102,0.521,0.314,0.65,0.59
				c0.203,0.504,0.37,1.022,0.5,1.55c0.22,0.829,0.22,1.701,0,2.53c-0.11,0.59-0.18,1.2-0.28,1.8l-0.42,2.61
				c-0.033,0.375-0.096,0.746-0.19,1.11c-0.305,0.995-0.464,2.029-0.47,3.07c0,0.2-0.07,0.39-0.08,0.59c0,0.6-0.06,1.21-0.09,1.81
				c0.016,0.086,0.016,0.174,0,0.26c-0.258,0.881-0.393,1.793-0.4,2.71c-0.2,1-0.38,2.05-0.56,3.07c-0.13,0.71-0.25,1.42-0.39,2.12
				c-0.17,0.88-0.38,1.75-0.56,2.63s-0.38,2-0.58,3c-0.15,0.74-0.36,1.47-0.47,2.22c-0.22,1.45-0.39,2.92-0.58,4.38
				c-0.1,0.79-0.21,1.57-0.33,2.46c0.11-0.082,0.214-0.172,0.31-0.27c0.675-0.902,1.183-1.918,1.5-3c0.16-0.55,0.25-1.12,0.44-1.65
				c0.288-0.776,0.622-1.534,1-2.27c0.37-0.699,0.794-1.368,1.27-2c0.662-0.864,1.547-1.531,2.56-1.93
				c1.03-0.399,2.188,0.112,2.588,1.142c0.024,0.062,0.045,0.124,0.062,0.188c0.325,0.911,0.514,1.864,0.56,2.83
				c-0.013,0.974-0.151,1.941-0.41,2.88c-0.098,0.639-0.263,1.265-0.49,1.87c-0.38,1-0.84,1.87-1.28,2.8
				c-0.09,0.2-0.24,0.37-0.35,0.57c-0.618,1.002-1.387,1.903-2.28,2.67c-0.618,0.615-1.411,1.024-2.27,1.17
				c-0.5,0.09-1,0.24-1.49,0.35c-0.23,0.06-0.29,0.18-0.15,0.38c0.501,0.827,0.789,1.765,0.84,2.73c0.12,0.71,0.37,1.41,0.51,2.13
				c0.128,0.579,0.202,1.168,0.22,1.76c0.047,1.203,1.017,2.164,2.22,2.2c0.762-0.026,1.499-0.284,2.11-0.74
				c0.681-0.454,1.329-0.956,1.94-1.5c0.309-0.308,0.59-0.643,0.84-1c0.06-0.089,0.091-0.193,0.09-0.3c0.07-1.12,0.12-2.24,0.2-3.35
				c0.08-0.95,0.2-1.9,0.29-2.85c0.05-0.51,0.08-1,0.14-1.52c0-0.26,0.13-0.52,0.18-0.79c0.14-0.77,0.32-1.53,0.41-2.31
				c0.17-1.255,0.621-2.455,1.32-3.51c0.69-1.1,1.43-2.17,2.18-3.23c0.197-0.242,0.434-0.448,0.7-0.61
				c0.972-0.795,2.075-1.414,3.26-1.83c0.634-0.146,1.297-0.094,1.9,0.15c0.33,0.1,0.64,0.27,1,0.4
				c0.497,0.273,0.89,0.702,1.12,1.22c0.246,0.441,0.412,0.921,0.49,1.42c0.234,1.349,0.206,2.731-0.08,4.07
				c-0.237,1.295-0.627,2.557-1.16,3.76c-0.403,0.84-0.878,1.643-1.42,2.4c-0.9,1.33-1.81,2.67-2.83,3.91
				c-1.05,1.248-2.276,2.336-3.64,3.23c-0.086,0.046-0.176,0.083-0.27,0.11c-0.57,0.2-0.65,0.47-0.54,1
				c0.466,1.363,1.886,2.153,3.29,1.83c1.336-0.385,2.567-1.069,3.6-2c1.07-1,2.16-2.06,3.2-3.13c0.49-0.541,0.951-1.109,1.38-1.7
				c0.18-0.22,0.33-0.47,0.52-0.68c0.757-0.936,1.427-1.941,2-3c0.33-0.53,0.68-1,1-1.54c0.06-0.1,0.2-0.13,0.32-0.2
				c0.039,0.098,0.073,0.198,0.1,0.3c0.15,0.675,0.109,1.378-0.12,2.03c-0.21,0.61-0.26,1.29-0.51,1.89
				c-0.28,0.657-0.615,1.289-1,1.89c-0.59,0.91-1.19,1.82-1.85,2.69c-0.459,0.586-0.972,1.128-1.53,1.62c-1.11,1-2.11,2-3.31,3
				c-1.257,1.203-2.743,2.142-4.37,2.76c-1.487,0.548-3.155,0.241-4.35-0.8c-0.153-0.159-0.269-0.351-0.34-0.56
				c-0.17-0.319-0.308-0.654-0.41-1c-0.12-0.5-0.14-1-0.22-1.54c-0.029-0.122-0.065-0.243-0.11-0.36
				c-0.113,0.027-0.221,0.071-0.32,0.13c-0.7,0.52-1.37,1.08-2.09,1.56c-0.815,0.54-1.66,1.034-2.53,1.48
				c-0.636,0.346-1.306,0.624-2,0.83c-1.54,0.42-2.26,0.08-3.07-1.33c-0.427-0.886-0.695-1.841-0.79-2.82
				c-0.128-1.082-0.152-2.174-0.07-3.26c0.103-0.777-0.004-1.568-0.31-2.29c-0.106-0.145-0.227-0.279-0.36-0.4
				c-0.09-0.11-0.17-0.24-0.25-0.36s-0.14-0.2-0.17-0.19c-0.1,0.021-0.186,0.087-0.23,0.18c-0.061,0.24-0.108,0.484-0.14,0.73
				c-0.23,1.11-0.41,2.24-0.68,3.34c-0.37,1.51-0.79,3-1.23,4.48c-0.268,0.857-0.746,1.634-1.39,2.26
				c-0.438,0.437-1.147,0.437-1.584-0.001c-0.068-0.068-0.128-0.145-0.176-0.229c-0.446-0.653-0.645-1.444-0.56-2.23
				c0.058-0.405,0.209-0.792,0.44-1.13c0.608-1.098,1.088-2.262,1.43-3.47c0.48-1.4,0.86-2.83,1.22-4.26
				c0.27-1.05,0.43-2.11,0.62-3.18c0.15-0.87,0.29-1.75,0.43-2.63c0.009-0.066,0.009-0.134,0-0.2h-0.1c-0.17,0.32-0.34,0.63-0.49,1
				s-0.35,0.93-0.56,1.38c-0.44,0.94-0.87,1.89-1.37,2.8c-0.78,1.4-1.56,2.82-2.46,4.15c-0.739,1.045-1.537,2.046-2.39,3
				c-0.57,0.67-1.15,1.34-1.76,2s-1.12,1.09-1.71,1.6c-0.792,0.721-2.019,0.663-2.741-0.129c-0.1-0.11-0.187-0.231-0.259-0.361
				c-0.419-0.847-0.644-1.776-0.66-2.72c-0.03-0.403-0.03-0.807,0-1.21c0-0.119-0.051-0.232-0.14-0.31c-0.2,0.34-0.39,0.69-0.61,1
				c-0.38,0.62-0.74,1.24-1.17,1.83c-0.793,0.925-1.803,1.64-2.94,2.08c-0.529,0.228-1.106,0.321-1.68,0.27
				c-0.68,0-1.09-0.47-1.6-0.74c-0.24-0.12-0.35-0.47-0.5-0.73c-0.661-1.062-1.166-2.214-1.5-3.42
				c-0.085-0.488-0.106-0.986-0.06-1.48c-0.007-0.522,0.027-1.043,0.1-1.56c0.23-1.4,0.5-2.81,0.78-4.2
				c0.14-0.65,0.33-1.3,0.52-1.94c0.1-0.35,0.26-0.69,0.38-1c0.95-2.78,1.91-5.57,2.85-8.35c0.51-1.53,1-3.07,1.5-4.6
				c0.01-0.073,0.01-0.147,0-0.22h-0.08"/>
		</g>
	</g>
</g>
</svg>
