<?xml version="1.0" encoding="utf-8"?>
<!-- Generator: Adobe Illustrator 22.1.0, SVG Export Plug-In . SVG Version: 6.00 Build 0)  -->
<svg version="1.1" id="Layer_1" xmlns="http://www.w3.org/2000/svg" xmlns:xlink="http://www.w3.org/1999/xlink" x="0px" y="0px"
	 viewBox="0 0 1578 542" style="enable-background:new 0 0 1578 542;" xml:space="preserve">
<style type="text/css">
	.st0{fill:#673918;}
	.st1{fill:#FEFEFE;}
</style>
<path class="st0" d="M225,374c0-18.9,1.4-39.5,5.5-58c0.6-2.9,2.6-5.2,3.2-8.1c1.3-5.8,0.5-12.1,1.6-17.9c1.2-6.7,4.3-13.2,5.6-20
	c2.7-15,4.1-30.1,6.5-45c1-6.3,4.3-11.8,5.5-18c2.6-13.9,4.2-28.1,7-42c2.5-12.7,6.3-25.3,8.7-38c1.5-7.9,1.2-16.1,2.5-24
	c1.1-6.3,3.1-12.6,3.7-19c1.7-15.5,1.2-31.4,1.2-47c0-10.4-0.1-22.1-10-28.3c-8.9-5.6-19.2,2.1-22.7,10.3c-4.3,10.3-4.6,22-6.7,32.9
	c-1.4,7.6-2.5,15.5-4.1,23c-1.2,5.4-3.7,10.5-4.4,16c-1.7,13.5-5.5,26.7-8.5,40c-1.9,8.6-2.3,17.4-4.1,26c-1,4.5-3.1,8.6-4.2,13
	c-6.6,27.2-11.6,55.1-19.5,82c-4.3,14.6-10.4,28.8-15.7,43c-5.3,14.1-9.1,29-14.9,43c-7.3,17.5-16.9,33.7-26.5,50
	c-8.1,13.9-15.8,28.5-26,41c-6.1,7.5-11.4,15.9-18,22.9c-12.3,13-28,24.8-43.7,33.3c-3.8,2.1-8,2.7-12,4.2c-7.4,2.6-14.8,5.9-22,9
	c-3,1.3-7,1.7-9.6,3.7c-4.5,3.6-2.9,16.8-2,21.9C4.3,538.8,19,542.1,32,539.6c19.1-3.7,39-13.5,54.3-25.4c4.3-3.3,9.1-6.2,12.7-10.3
	c29.6-34,49.6-75.9,67.8-116.9c3.4-7.8,5.9-16.1,9.3-23.8c10.5-23.5,20.7-47,29.6-71.2c4.2-11.3,9.6-22.2,12.3-34
	c1.3,4.6-0.3,8.4-0.8,13c-0.7,6.9-0.3,14-1,21c-2.1,21.8-5.3,43.3-8.7,65c-0.9,6-1,12-2.3,18c-0.8,3.6-0.8,7.4-1.6,11
	c-2.3,10.2-11,25.8-0.4,34.6c3.7,3,7.9,1.9,11.9,0.3c8.7-3.6,15.7-11,22-17.9c18.1-19.8,29.3-45.3,41.3-69c4.2-8.3,6.6-20.1,12.7-27
	c-2.2,8.3-5.8,15.9-8.4,24c-6.2,19.4-11.9,38.9-18.9,58c-9.5,26.2-18.4,53.8-18.8,82c-0.2,12.8,3.8,23.2,10.7,34
	c3.5,5.6,6.7,10.4,13.3,12.4c10.6,3.3,22.8-3.2,31-9.5c10.2-7.8,13.2-20.4,22-29c-1.1,8.8-0.8,22,3.6,30c3.7,6.8,11.6,11.2,19.4,8.4
	c6.7-2.4,13-10.5,18-15.4c17.4-17,33.9-38.4,44.9-60c5.3-10.3,10.4-20.6,15.5-31c2.6-5.2,3.5-10.7,7.6-15c-3.1,14.9-4.5,30.1-7.7,45
	c-2.9,13.4-7.7,27.2-12.5,40c-4.6,12.1-15.5,26.7-9.2,40c0.7,1.4,1.5,2.8,2.6,3.9c8.4,9.5,17.6-1.8,21.3-9.9
	c6.5-14.5,9.5-31.5,12.6-47c1.7-8.5,4.6-16.2,5-25h3c0.9,6,6.2,9.7,6.9,16c1.8,16.9-2.5,34.8,4.5,51c3,6.9,8.4,14.9,16.6,14.9
	c15.2,0.1,31-10.3,42.9-18.8c6-4.3,11.8-10.4,19.1-12.1c0,8.9,0.5,17.7,6.4,25c11.1,13.7,33.5,8.5,46.6,0.8
	c10.2-5.9,19.4-14.7,28-22.6c21.7-20.1,47.2-43.5,52.3-74.2c1.2-7,3.1-11.7,1.7-19c-4.5,1.5-6.4,5.1-8.9,9c-4,6.2-7.4,12.7-11.4,19
	c-9.2,14.5-21.3,27.4-33.6,39.3c-6.5,6.3-13.3,13-21.1,17.7c-9.1,5.5-21.7,10.3-31.8,4.8c-4.3-2.4-12.2-9.9-9.1-15.5
	c1.9-3.4,8.5-5.9,11.7-8.1c6.8-4.8,13.5-11,19.2-17.1c6.3-6.7,11.2-14.6,16.5-22c6.1-8.4,13.1-17.5,17.3-27
	c4.8-10.8,7.1-22.5,9.6-34c3.1-14.2,2.5-34.5-9.4-44.7c-17.3-14.9-44.2-0.2-55.9,14.7c-3.6,4.5-6.9,9.1-10,14
	c-4.1,6.7-8.5,13.5-11.2,21c-4.7,12.7-5.5,26.7-7.2,40c-1,7.7-2.8,15.2-3.5,23c-1,10,1.7,22.4-1.9,32c-1.3,3.3-4.1,6.3-6.5,8.9
	c-9.1,9.6-31.5,26.1-42.8,11c-5-6.6-3.8-15.3-5.5-23c-2.9-13.5-7.3-26.7-10.5-40c29.7-1.4,49.4-29.1,58.5-55
	c1.8-5.1,2.2-10.7,3.5-16c3.5-14.2,5.8-34.1-3.1-47c-5.2-7.5-16.5-7.8-23.9-3.2c-13,8.2-21.9,21-27.6,35.2c-3,7.4-3.9,15.6-6.7,23
	c-3.1,8.2-8.2,15.1-11.7,23c-1.7-15.8,2.6-32.7,5.6-48c0.8-4.3,0.4-8.7,1.3-13c4-19.4,9.4-38.5,12.6-58c1.6-9.6,4.2-19.3,5.2-29
	c0.5-5-0.3-10,0.3-15c0.4-2.9,2.2-5.2,2.6-8.1c1.1-6.3,0.9-13.5,1.3-20c0.3-5.3,0.2-11.9,1.6-17c0.8-2.8,2.6-5.3,3.1-8.2
	c2.2-11.4,2.5-23.4,4.5-34.8c0.9-5.3,2.8-9.5,2.7-15c-0.1-6.1-3.4-22.7-11-23.4c-7.1-0.7-10.8,7.8-11.7,13.4
	c-1.2,7.2,0.1,14.7-0.4,22c-0.8,12.2-3.6,24.9-5.5,37c-1.7,10.7-4.6,21.2-6.1,32c-1.2,8.7-1.8,17.3-3.7,26c-2.1,9.7-5.4,19.3-7.3,29
	c-3,15.2-4.4,30.8-7.8,46c-7.7,34.2-20.2,67.6-35.9,99c-10.3,20.6-19.7,39.6-34,58c-3.7,4.8-10.8,15.9-17.5,16.1
	c-3.6,0.1-4.5-4.3-4.7-7.1c-0.6-6.8,2-15.4,3.6-22c3.7-15.5,8-31.2,13.8-46c5.5-14,12.6-28,14.7-43c1.2-8.4,1.3-18.5-0.7-26.8
	c-0.9-3.7-4.7-7.5-8.7-6.4c-4.4,1.2-7.2,5.5-9.2,9.2c-4.3,7.8-7.2,15.8-10.3,24c-1,2.6-2.9,4.7-4,7.3c-5.8,13.2-9.3,27.4-15,40.7
	c-6.9,16.3-15.6,31.4-24,47c-5.1,9.5-12,22.1-21.5,27.7c-2.9,1.7-8.3,4.8-11.5,2.7c-7.8-5.2-5.1-16.8-3.5-24.3
	c4.8-22.1,10.5-43.9,15.4-66c3.5-15.8,7.5-31.6,12.3-47c2.7-8.8,6.7-17.1,9.4-26c1.1-3.6,1.1-7.4,2.1-11c7-24.3,13.8-48.7,20.7-73
	c3.8-13.4,5.8-27.4,8.8-41c5.1-23.4,10.9-46.6,15.8-70c1-4.6,0.5-9.4,1.5-14c1.8-8.5,1.3-16.4,2.2-25c2-20.6,4.7-41.1,3.8-62
	c-0.4-8.8-7.9-22.8-18-22.6c-9.3,0.2-10.5,14.9-11.6,21.6c-4,24.6-13.2,48.2-16.3,73c-1.5,12.2-4.3,23.9-6.4,36
	c-6.5,36.9-14.9,73.4-26.7,109c-6.4,19.2-14.6,37.9-21.2,57c-3.2,9.4-7.6,17.9-11.6,27c-4.7,10.7-8.7,22.1-14.9,32
	C234.7,362.7,231,370.7,225,374 M808,292c0.3-15.5,4.7-30.9,7.4-46c1.6-8.9,1.6-18,2.9-27c0.8-5.4,2.4-10.6,3.3-16
	c2.8-18.1,5.8-36.1,9.9-54c1.4-6,1.5-13.2,3.8-18.9c1.9-4.8,7.8-3.7,9.7-8.2c1.2-2.7,1-6,1-8.9c0.1-6.4,2.7-17.4-3.4-22
	c-3.5-2.6-8.6-0.9-12.6-1c-2,7.2-9.1,12.8-12.1,20c-9.7,23.5-18.6,48-23.8,73c-1.6,7.9-1.2,16.1-2.6,24c-3.2,17.7-8,35.1-10.2,53
	c-1.2,9.9-2.6,19.4-4.8,29c-0.7,2.9-0.1,6.2-1.6,8.9c-2,3.4-6.3,3.6-9.8,4.2c-9,1.5-18,0.2-27,1c-8.5,0.8-12.9,6-19,11.3
	c-4.3,3.7-11.9,10.9-9.4,17.4c2.1,5.4,10.5,5.8,15.4,6.1c9.5,0.7,19.5,0,29-1.2c5.4-0.7,10.5-2.5,16-2.7c-5.4,22.7-7.8,46.4-13.5,69
	c-0.9,3.7-2.7,7.2-3.6,11c-1.4,5.9-1,12.3-2.7,18c-4.4,14.3-9.6,28.6-16.3,42c-3.1,6.2-9.2,11.4-11.3,18c-3.3,10.7,0.3,26.9,4.6,37
	c1.5,3.5,4.1,7.8,7.4,10c5.8,3.8,12.8-0.4,17.2-4.4c10.7-9.7,17.9-24.8,23.9-37.6c5.7-12.4,9-26,13.2-39c4.6-14.2,8.3-28.4,11.5-43
	c0.8-3.8,2.6-7.2,3.3-11c0.7-3.6,0.3-7.3,0.8-11c0.9-6.7,2.6-13.3,3.5-20c2.1-15.2,1.9-30.7,2.2-46c21.6-2.2,43.6-11.5,63-20.8
	c15.5-7.4,31.2-15.4,44.6-26.4c28-23.1,45.1-56.1,53.2-91c3.8-16.2,8.7-34.1,6.7-50.8c-1.3-11.3-5.8-22.6-10.2-33
	c-2.9-6.7-4.4-12.8-8.7-19c-2.8-4.1-6.6-6.8-9.9-10.4c-8.5-9.3-17.1-18.2-28.6-24c-5.2-2.6-10.5-2.9-16-4.5c-10.3-3.1-22-7-33-5.9
	c-11.6,1.2-23.4,6.5-34,11c-13.5,5.8-28.2,11.3-39.9,20.3c-19.1,14.7-33.7,35.3-48.8,53.8c-5.7,7-8,16.3-11.4,24.6
	c-2.2,5.3-5,10.1-5.7,16c-0.5,3.9-1.1,14.3,5,14.4c4.9,0.1,9.5-8.1,12.1-11.4c9.7-11.8,19.4-23.6,28.3-36
	c18.3-25.6,42.5-50.8,73.4-60.3c4.4-1.4,8.5,0.5,13-0.5c10.5-2.3,20.3-2.3,31-2.3c5,0,10.4-0.5,15,1.9c23.3,12.2,32,44.9,30.6,69.1
	c-0.3,5.4-1.8,10.7-2.7,16c-2.2,12.7-7.2,23.3-12.1,35c-5.2,12.3-10.5,25.7-18,36.9c-16.2,24.2-39.9,41.8-66.7,52.6
	C829.8,286.7,819.3,291.5,808,292 M406,261.5c-12.3,1.8-15.6,14.6-18.9,24.5c-1.5,4.7-3.9,9-4.1,14c-0.1,6,3,17.6,10.9,16.6
	c4.1-0.5,7.1-4.2,10-6.9c8.1-7.7,18.1-20.4,20-31.7C425.8,267.6,416.4,259.9,406,261.5 M976,377c25.4,7.2,50.9-2.5,69.8-20.4
	c10.9-10.3,19.2-23.4,30.2-33.6c-10.6,26.6-19.7,52.7-17.5,82c0.8,11,6.4,21.2,7.5,32c-9.5,1-16.4,9.3-26,10.9
	c-8.6,1.5-16.6,0.9-25-1.3c-3.5-0.9-6.5-3-10-4c-7.6-2.2-19.1-0.8-23.7,6.4c-1.5,2.5-2.2,5.3,0,7.6c1.9,2.1,5.1,2.4,7.5,3.8
	c4.4,2.5,8.6,5.6,11.8,9.5c5.8,7,7.5,16.2,12,24c7.3,12.5,24.1,24.5,39.3,21.6c15.3-2.9,25.7-13.9,31.8-27.6
	c2.2-5,2.6-11.3,5.9-15.8c2.8-3.8,7.5-5.8,11-8.8c6-5,11.6-11,16.8-16.8c15.8-17.7,27.7-37.7,40.4-57.6c7.4-11.6,13.4-24.1,22-34.9
	c2.2-2.7,7.6-9.9,11.8-7.9c3.5,1.7,2.2,7.8,1.7,10.8c-1.7,10.3-6.2,20.6-10.4,30c-13.6,30.3-24.6,62.3-41.5,91
	c-3.6,6.1-10.3,10-13.8,16c-2.6,4.4,3.3,16.2,7.6,18.4c5.6,3,9.9-1.3,13-5.4c5.2-7,10.3-13.5,14.7-21c17-28.5,28.2-59.7,48.2-86.6
	c4.8-6.4,10.4-12.6,16.9-17.3c2.2-1.6,5.8-4.7,8.8-3.7c3.1,1,3.1,4.9,3.1,7.6c0.1,7.6-1.3,16.9-4.2,24c-3.9,9.6-7.1,19.3-10.5,29
	c-5.4,15.4-10.7,30.7-6.9,47c1.4,5.9,1.2,14,5.5,18.7c3.1,3.3,9.8,4.7,14.1,5.1c13.3,1.4,31.6-4.9,42-12.9c4.1-3.1,7.8-6.6,12-9.7
	c1.6-1.2,3.7-3.3,5.9-3.2c4.4,0.1,6.3,9,8.3,11.9c5.1,7.1,15.5,16.7,24.8,16.6c13.1-0.2,27.1-9.4,37-17c8.1-6.2,16.8-12.9,23.5-20.7
	c14.8-17,25.2-38.2,33.6-58.8c4.3-10.5,12.6-22.4,12.9-34h3c0.1,6.9,1.3,13.1-0.2,20c-1.7,7.9-6.3,15.8-9.8,23
	c-8,16.5-17.4,33.5-22.9,51c-4.8,15.1-1.6,36.7,12,46.6c7.1,5.2,21.7,2.6,30,1.6c11.6-1.4,24.2-3.9,35-8.2
	c17.9-7.1,34.1-17.6,53-22.4c6.3-1.6,12.5-4.5,19-4.4c4.6,0,9.4,2.8,14,1.6c3.2-0.8,6.2-4.2,4.9-7.7c-1.5-4-6.2-5.4-9.8-6.4
	c-8.3-2.3-15.5-2.6-24-2.6c-7.8,0-15.4,0.1-23,2.2c-16.7,4.6-31.9,13.9-49,17.8c-10.3,2.4-21.1,7.8-29.5-2.1c-1.7-2-3.1-4.5-4.3-6.9
	c-5-10.2-0.6-21.4,3.4-31c4.6-11.1,10.2-21.7,16.4-32c4.5-7.4,10.6-14.6,13.2-23c1.3-4.2,0-7.9-0.7-12c-0.6-3.2,0-6.6-0.9-9.7
	c-2.4-8.1-8.8-14.7-13.8-21.3c-5.4-7.1-11.7-14.7-20.7-17.1c-4.9-1.3-7.1,2.1-8.8,6.1c-3.7,8.7-5.6,18.4-9.6,27
	c-14.4,30.9-21.5,65-46.9,89.8c-9.9,9.7-28.9,20.9-40.9,8.7c-1.9-1.9-4.2-4.5-3.2-7.3c1-3,5.2-5.2,7.5-7.1
	c5.6-4.6,10.7-9.6,15.4-15.1c17.6-20.7,35-46.4,41.4-73c1.5-6.3,4.1-11.3,4.2-18c0.1-13.9,1.3-32.2-17-34.8
	c-6.5-0.9-11.2,1.4-17,3.7c-10,4-17.8,7.2-26.1,14.2c-32.6,27.3-40.9,69.7-44.7,109.8c-0.6,6.3,1.8,12.8,1.2,18.8
	c-1.3,13.1-22.2,24.9-34.3,22.9c-16.2-2.7-16.5-18.6-13.7-31.7c1.8-8.3,5.7-16.1,8.6-24c5.3-14.5,9.8-29.2,14.2-44
	c1.9-6.3,4.3-12.3,4.8-19c0.9-12.6-1-34.8-18.9-31.4c-2.5,0.5-4.8,1.2-7,2.4c-2.9,1.6-5.6,3.6-8,6c-7.8,7.7-13.6,18-22,25
	c3.8-9.6,7.2-24.7,4.4-35c-2.3-8.5-12.2-17.9-21.4-17.5c-6.2,0.3-12.6,4.5-17.3,8.3c-12,9.9-21.1,24.2-29.6,37
	c-10.4,15.9-20.9,31.7-31.8,47.3c-7.5,10.6-14.6,22.3-25.3,29.9c0-4.6,0.4-9.4-0.3-14c-1.9-12-7.1-23.7-7.4-36
	c-0.3-10.6,3.2-20.1,6.1-30c3.4-11.4,7.6-22.8,14.1-33c6.2-9.8,15.5-16.1,22.2-25c2.7-3.5,3.2-9,0.5-12.7c-3.3-4.4-8.6-3.2-13.1-2.1
	c-6.6,1.7-11.8,3.6-18,6.3c-15.4,6.5-29.7,19.5-41.8,30.7c-11.3,10.5-19.8,21.7-35.2,26.6c-9.2,2.9-18.6,3.5-28,2
	c-3.7-0.6-8.8-1.2-11.4-4.3c-3.6-4.3-0.9-12.4-1.9-17.6c-2-9.5-12.4-14.3-20.7-17c-15.4-5-31.4,2.1-45,8.7
	c-30.4,14.9-62.5,35.8-75.7,68.3c-7.3,18.2-6.2,38.9,1.8,57c3.6,8.2,9.4,15.8,14.6,23c6.4,8.9,13.8,19.4,24.3,23.7
	c14.6,6,32.6,2.1,46-4.7c20.5-10.3,31.2-31.7,39.1-52c3.5-9.1,7.2-18.5,9.4-28C972.9,397.7,973.1,387.2,976,377z"/>
<path class="st1" d="M941,329.5c-10.7,1-21.2,8.5-30,14.1c-15.9,10.2-35.3,23.6-44.6,40.7c-3.4,6.3-5.6,16.7-7,23.7
	c-1.1,5.7,0.4,11.4,1.4,17c1.2,6.9,2.6,15.9,6.1,22c6.4,11.1,23.1,21.2,36.2,19.9c9.7-1,16.4-11,22.1-17.9
	c12.9-15.4,19.1-35.4,25.7-54c2.6-7.3,8-20.1,5.9-27.8c-0.8-2.9-3.4-4.7-5-7.2c-2.9-4.6-4.6-12.6-4.5-18c0.1-2.9,1.2-6,0.3-8.9
	C946.6,330,944,329.2,941,329.5 M460,406c4.7,0,9.6,0,14-1.9c4.5-1.9,8.4-5.7,11.9-9c9.7-9.2,19.8-21.8,22.2-35.1
	c1-5.4,7-21.1-0.4-24.4c-5.3-2.4-10.3,4.1-11.8,8.4c-5.3,15.1-10.5,29.5-19.5,43C471.7,394,464.8,399.1,460,406 M1313,441
	c8.4-2,14.6-9.4,19.7-16c12.1-15.8,20-34.2,25.8-53c2.1-6.8,4.5-12.8,4.5-20c0-2.7,0.3-6.3-2.3-8c-2.5-1.6-6.1-0.6-8.7,0.4
	c-7.3,2.9-12.8,10.1-16.9,16.5c-11.2,17.5-17.3,35.6-20.7,56C1312.9,425.7,1310.2,432.3,1313,441 M554,458c9-5,15-13.6,20.5-22
	c11.2-17.1,19.1-33.4,24.5-53c2.2-8,7.3-25.5-2.1-30.8c-11.7-6.6-23.7,10-27.8,18.8C556.8,397.3,554,429.3,554,458 M1031,475
	c0.3,12,13.6,25.5,25.9,17.3c7.9-5.3,12.2-20.3,13.1-29.3c-5.2,0.9-9.2,3.8-14,5.7C1048.3,471.8,1039.3,474.8,1031,475z"/>
</svg>
