<?xml version="1.0" encoding="utf-8"?>
<!-- Generator: Adobe Illustrator 22.1.0, SVG Export Plug-In . SVG Version: 6.00 Build 0)  -->
<svg version="1.2" baseProfile="tiny" id="Layer_1" xmlns="http://www.w3.org/2000/svg" xmlns:xlink="http://www.w3.org/1999/xlink"
	 x="0px" y="0px" viewBox="0 0 220 220" xml:space="preserve">
<rect fill="#FFFFFF" width="220" height="220"/>
<g>
	<path fill="#FF6B00" d="M57.284,98.592l0.304,1.496h0.127l0.304-1.496l2.966-10.9h1.826l3.067,10.9l0.305,1.496h0.101l0.304-1.496
		l2.535-9.126l-1.648-0.481v-1.04h4.817v1.04l-1.369,0.481l-3.777,12.421h-2.611l-3.017-9.887l-2.941,9.887h-2.611l-3.878-12.421
		l-1.344-0.481v-1.04h5.678v1.04l-1.749,0.481L57.284,98.592z"/>
	<path fill="#FF6B00" d="M76.018,94.942c0,1.233,0.169,2.256,0.507,3.067c0.338,0.795,0.815,1.357,1.432,1.687
		c0.617,0.33,1.297,0.494,2.041,0.494c0.812,0,1.542-0.164,2.193-0.494c0.65-0.33,1.238-0.781,1.762-1.357l0.812,0.61
		c-0.305,0.405-0.63,0.784-0.976,1.14c-0.347,0.354-0.74,0.667-1.179,0.938c-0.439,0.271-0.929,0.481-1.47,0.634
		c-0.542,0.152-1.141,0.227-1.8,0.227c-1.166,0-2.197-0.249-3.092-0.747c-0.897-0.498-1.581-1.23-2.054-2.192
		c-0.253-0.525-0.439-1.103-0.558-1.738c-0.118-0.633-0.177-1.321-0.177-2.066c0-2.383,0.541-4.221,1.622-5.514
		c1.082-1.292,2.569-1.939,4.462-1.939c1.741,0,3.076,0.537,4.006,1.609c0.929,1.074,1.394,2.558,1.394,4.45
		c0,0.169-0.005,0.325-0.012,0.469c-0.009,0.144-0.03,0.385-0.063,0.723H76.018z M79.389,89.061c-2.028,0-3.143,1.546-3.347,4.639
		h6.338v-0.837c0-1.216-0.258-2.154-0.773-2.813C81.091,89.39,80.353,89.061,79.389,89.061z"/>
	<path fill="#FF6B00" d="M95.359,89.466l-1.952-0.481v-1.04h3.65l0.558,2.534h0.101c0.508-0.862,1.188-1.541,2.041-2.041
		c0.853-0.498,1.779-0.747,2.776-0.747c0.676,0,1.284,0.119,1.825,0.354c0.541,0.238,0.972,0.576,1.294,1.015
		c0.337,0.473,0.579,1.137,0.722,1.99c0.144,0.854,0.216,2.007,0.216,3.46v5.603l1.952,0.483v1.038h-6.109v-1.038l1.699-0.483
		v-5.652c0-1.082-0.03-1.897-0.089-2.446c-0.06-0.549-0.165-0.976-0.317-1.281c-0.422-0.828-1.166-1.242-2.23-1.242
		c-0.473,0-0.93,0.085-1.369,0.254c-0.439,0.169-0.828,0.398-1.166,0.685c-0.372,0.337-0.647,0.73-0.824,1.177
		c-0.177,0.449-0.283,1.027-0.317,1.738v6.768l1.699,0.483v1.038h-6.109v-1.038l1.952-0.483V89.466z"/>
	<path fill="#FF6B00" d="M112.852,94.942c0,1.233,0.169,2.256,0.507,3.067c0.338,0.795,0.815,1.357,1.432,1.687
		c0.617,0.33,1.297,0.494,2.041,0.494c0.812,0,1.542-0.164,2.193-0.494c0.65-0.33,1.238-0.781,1.762-1.357l0.812,0.61
		c-0.305,0.405-0.63,0.784-0.976,1.14c-0.347,0.354-0.74,0.667-1.179,0.938c-0.439,0.271-0.929,0.481-1.47,0.634
		c-0.542,0.152-1.141,0.227-1.8,0.227c-1.166,0-2.197-0.249-3.092-0.747c-0.897-0.498-1.581-1.23-2.054-2.192
		c-0.253-0.525-0.439-1.103-0.558-1.738c-0.118-0.633-0.177-1.321-0.177-2.066c0-2.383,0.541-4.221,1.622-5.514
		c1.082-1.292,2.569-1.939,4.462-1.939c1.741,0,3.076,0.537,4.006,1.609c0.929,1.074,1.394,2.558,1.394,4.45
		c0,0.169-0.005,0.325-0.012,0.469c-0.009,0.144-0.03,0.385-0.063,0.723H112.852z M116.223,89.061c-2.028,0-3.143,1.546-3.347,4.639
		h6.338v-0.837c0-1.216-0.258-2.154-0.773-2.813C117.925,89.39,117.187,89.061,116.223,89.061z"/>
	<path fill="#FF6B00" d="M128.797,101.888l-4.513-12.421l-1.42-0.481v-1.04h5.678v1.04l-1.673,0.481l3.574,10.622h0.101
		l3.574-10.622l-1.571-0.481v-1.04h4.817v1.04l-1.471,0.481l-4.487,12.421H128.797z"/>
	<path fill="#FF6B00" d="M140.915,94.942c0,1.233,0.169,2.256,0.507,3.067c0.338,0.795,0.815,1.357,1.432,1.687
		c0.617,0.33,1.297,0.494,2.041,0.494c0.812,0,1.542-0.164,2.193-0.494c0.65-0.33,1.238-0.781,1.762-1.357l0.812,0.61
		c-0.305,0.405-0.63,0.784-0.976,1.14c-0.347,0.354-0.74,0.667-1.179,0.938c-0.439,0.271-0.929,0.481-1.47,0.634
		c-0.542,0.152-1.141,0.227-1.8,0.227c-1.166,0-2.197-0.249-3.092-0.747c-0.897-0.498-1.581-1.23-2.054-2.192
		c-0.253-0.525-0.439-1.103-0.558-1.738c-0.118-0.633-0.177-1.321-0.177-2.066c0-2.383,0.541-4.221,1.622-5.514
		c1.082-1.292,2.569-1.939,4.462-1.939c1.741,0,3.076,0.537,4.006,1.609c0.929,1.074,1.394,2.558,1.394,4.45
		c0,0.169-0.005,0.325-0.012,0.469c-0.009,0.144-0.03,0.385-0.063,0.723H140.915z M144.286,89.061c-2.028,0-3.143,1.546-3.347,4.639
		h6.338v-0.837c0-1.216-0.258-2.154-0.773-2.813C145.988,89.39,145.249,89.061,144.286,89.061z"/>
	<path fill="#FF6B00" d="M159.496,89.415c-0.152-0.101-0.321-0.152-0.508-0.152c-0.321,0-0.659,0.198-1.013,0.596
		c-0.355,0.398-0.668,0.901-0.938,1.509c-0.237,0.574-0.422,1.204-0.558,1.888c-0.135,0.685-0.203,1.391-0.203,2.117v4.741
		l2.738,0.483v1.038h-7.148v-1.038l1.952-0.483V89.466l-1.952-0.481v-1.04h3.65l0.558,3.347h0.101
		c0.388-1.15,0.908-2.038,1.559-2.663c0.651-0.625,1.382-0.938,2.193-0.938c0.659,0,1.208,0.207,1.648,0.62
		c0.439,0.415,0.659,0.969,0.659,1.662c0,0.506-0.132,0.908-0.393,1.204c-0.262,0.296-0.613,0.444-1.052,0.444
		s-0.786-0.141-1.04-0.419c-0.253-0.279-0.38-0.647-0.38-1.102c0-0.102,0.009-0.195,0.026-0.28
		C159.411,89.737,159.445,89.601,159.496,89.415z"/>
	<path fill="#FF6B00" d="M31.592,119.887l-1.952-0.481v-1.04h3.65l0.558,2.534h0.101c0.49-0.862,1.145-1.541,1.965-2.041
		c0.819-0.498,1.694-0.747,2.623-0.747c0.71,0,1.331,0.132,1.864,0.393c0.532,0.261,0.925,0.588,1.178,0.976
		c0.271,0.422,0.49,0.979,0.659,1.673c0.541-0.962,1.242-1.711,2.104-2.244s1.783-0.798,2.763-0.798
		c0.675,0,1.284,0.132,1.825,0.393c0.541,0.261,0.955,0.62,1.242,1.077c0.152,0.237,0.279,0.525,0.38,0.862
		c0.101,0.339,0.186,0.757,0.254,1.255c0.067,0.5,0.114,1.086,0.139,1.762c0.026,0.676,0.038,1.47,0.038,2.383v4.69l1.952,0.483
		v1.038h-6.109v-1.038l1.699-0.483v-5.652c0-1.082-0.03-1.897-0.089-2.446c-0.06-0.549-0.165-0.976-0.316-1.281
		c-0.423-0.828-1.133-1.242-2.13-1.242c-0.439,0-0.858,0.085-1.255,0.254c-0.398,0.169-0.757,0.398-1.078,0.685
		c-0.371,0.337-0.646,0.73-0.824,1.177c-0.177,0.449-0.283,1.027-0.316,1.738v6.768l1.698,0.483v1.038h-5.856v-1.038l1.698-0.483
		v-5.652c0-1.082-0.029-1.897-0.088-2.446c-0.06-0.549-0.165-0.976-0.317-1.281c-0.422-0.828-1.133-1.242-2.13-1.242
		c-0.439,0-0.857,0.085-1.255,0.254c-0.397,0.169-0.756,0.398-1.077,0.685c-0.372,0.337-0.647,0.73-0.824,1.177
		c-0.177,0.449-0.283,1.027-0.317,1.738v6.768l1.699,0.483v1.038H29.64v-1.038l1.952-0.483V119.887z"/>
	<path fill="#FF6B00" d="M54.407,129.089c0-0.659,0.148-1.241,0.444-1.748c0.296-0.508,0.764-0.959,1.406-1.357
		c0.642-0.396,1.471-0.738,2.485-1.026c1.013-0.288,2.23-0.542,3.65-0.761c-0.084-0.996-0.182-1.775-0.292-2.332
		c-0.11-0.559-0.258-1.006-0.443-1.343c-0.237-0.439-0.566-0.766-0.989-0.976c-0.422-0.212-0.879-0.317-1.369-0.317
		c-0.473,0-0.9,0.085-1.28,0.254c-0.381,0.169-0.638,0.398-0.774,0.684c0.237,0.186,0.41,0.41,0.52,0.672
		c0.11,0.263,0.165,0.512,0.165,0.749c0,0.422-0.139,0.757-0.419,1.001c-0.279,0.244-0.621,0.367-1.027,0.367
		s-0.74-0.135-1.001-0.405c-0.262-0.269-0.393-0.65-0.393-1.14c0-0.523,0.143-0.993,0.431-1.406c0.287-0.415,0.663-0.761,1.128-1.04
		c0.465-0.279,0.989-0.49,1.572-0.634c0.583-0.142,1.161-0.215,1.736-0.215c1.437,0,2.569,0.415,3.397,1.242
		c1.048,1.047,1.572,2.907,1.572,5.576v3.676c0,0.845,0.055,1.423,0.165,1.736c0.11,0.314,0.35,0.469,0.723,0.469h1.14v0.761
		c-1.217,0.49-2.163,0.735-2.839,0.735c-0.253,0-0.465-0.042-0.634-0.127s-0.304-0.232-0.405-0.444
		c-0.101-0.21-0.173-0.494-0.216-0.848c-0.042-0.356-0.063-0.803-0.063-1.345h-0.101c-0.524,0.862-1.217,1.538-2.079,2.028
		s-1.791,0.735-2.788,0.735c-1.065,0-1.902-0.283-2.51-0.849C54.711,130.893,54.407,130.104,54.407,129.089z M58.894,130.839
		c0.473,0,0.967-0.122,1.483-0.368c0.515-0.244,0.951-0.586,1.306-1.026c0.523-0.642,0.785-1.589,0.785-2.839
		c0-0.288-0.009-0.571-0.025-0.849c-0.017-0.279-0.043-0.545-0.077-0.798c-1.03,0.203-1.888,0.415-2.573,0.633
		c-0.684,0.22-1.233,0.469-1.648,0.749c-0.414,0.279-0.706,0.599-0.874,0.962c-0.169,0.364-0.254,0.783-0.254,1.255
		c0,0.727,0.165,1.289,0.494,1.687S58.302,130.839,58.894,130.839z"/>
	<path fill="#FF6B00" d="M68.222,125.336c0-1.114,0.144-2.163,0.431-3.142c0.288-0.979,0.719-1.792,1.294-2.434
		c0.49-0.54,1.068-0.95,1.736-1.23c0.668-0.279,1.449-0.418,2.345-0.418c0.76,0,1.445,0.144,2.053,0.432
		c0.609,0.286,1.157,0.801,1.648,1.546v-6.287l-1.952-0.483v-1.038h4.411v18.251l1.952,0.483v1.038l-3.929,0.254l-0.203-2.078
		c-0.525,0.794-1.116,1.338-1.775,1.634c-0.659,0.296-1.394,0.444-2.206,0.444c-0.862,0-1.639-0.127-2.332-0.381
		c-0.693-0.254-1.268-0.659-1.724-1.216c-0.541-0.659-0.967-1.45-1.28-2.37C68.378,127.421,68.222,126.42,68.222,125.336z
		 M77.728,125.312c0-2.078-0.296-3.591-0.887-4.538c-0.27-0.439-0.6-0.772-0.989-1.001c-0.388-0.227-0.904-0.342-1.546-0.342
		c-1.15,0-2.003,0.398-2.561,1.191c-0.304,0.439-0.524,1.048-0.659,1.826c-0.135,0.777-0.203,1.673-0.203,2.686
		c0,2.028,0.296,3.532,0.887,4.513c0.287,0.439,0.625,0.772,1.014,1.001c0.388,0.227,0.904,0.342,1.546,0.342
		c0.592,0,1.099-0.097,1.521-0.291c0.422-0.195,0.752-0.486,0.989-0.876c0.288-0.472,0.507-1.085,0.659-1.837
		C77.653,127.235,77.728,126.342,77.728,125.312z"/>
	<path fill="#FF6B00" d="M86.525,125.363c0,1.233,0.169,2.256,0.507,3.067c0.338,0.795,0.815,1.357,1.432,1.687
		c0.617,0.33,1.297,0.494,2.041,0.494c0.812,0,1.542-0.164,2.193-0.494c0.65-0.33,1.238-0.781,1.762-1.357l0.812,0.61
		c-0.305,0.405-0.63,0.784-0.976,1.14c-0.347,0.354-0.74,0.667-1.179,0.938c-0.439,0.271-0.929,0.481-1.47,0.634
		c-0.542,0.152-1.141,0.227-1.8,0.227c-1.166,0-2.197-0.249-3.092-0.747c-0.897-0.498-1.581-1.23-2.054-2.192
		c-0.253-0.525-0.439-1.103-0.558-1.738c-0.118-0.633-0.177-1.321-0.177-2.066c0-2.383,0.541-4.221,1.622-5.514
		c1.082-1.292,2.569-1.939,4.462-1.939c1.741,0,3.076,0.537,4.006,1.609c0.929,1.074,1.394,2.558,1.394,4.45
		c0,0.169-0.005,0.325-0.012,0.469c-0.009,0.144-0.03,0.385-0.063,0.723H86.525z M89.897,119.482c-2.028,0-3.143,1.546-3.347,4.639
		h6.338v-0.837c0-1.216-0.258-2.154-0.773-2.813C91.599,119.811,90.86,119.482,89.897,119.482z"/>
	<path fill="#FF6B00" d="M103.966,129.089c0-0.659,0.148-1.241,0.444-1.748c0.296-0.508,0.764-0.959,1.406-1.357
		c0.642-0.396,1.471-0.738,2.485-1.026c1.013-0.288,2.23-0.542,3.65-0.761c-0.084-0.996-0.182-1.775-0.292-2.332
		c-0.11-0.559-0.258-1.006-0.443-1.343c-0.237-0.439-0.566-0.766-0.989-0.976c-0.422-0.212-0.879-0.317-1.369-0.317
		c-0.473,0-0.9,0.085-1.28,0.254c-0.381,0.169-0.638,0.398-0.774,0.684c0.237,0.186,0.41,0.41,0.52,0.672
		c0.11,0.263,0.165,0.512,0.165,0.749c0,0.422-0.139,0.757-0.419,1.001c-0.279,0.244-0.621,0.367-1.027,0.367
		c-0.405,0-0.74-0.135-1.001-0.405c-0.262-0.269-0.393-0.65-0.393-1.14c0-0.523,0.143-0.993,0.431-1.406
		c0.287-0.415,0.663-0.761,1.128-1.04c0.465-0.279,0.989-0.49,1.572-0.634c0.583-0.142,1.161-0.215,1.736-0.215
		c1.437,0,2.569,0.415,3.397,1.242c1.048,1.047,1.572,2.907,1.572,5.576v3.676c0,0.845,0.055,1.423,0.165,1.736
		c0.11,0.314,0.35,0.469,0.723,0.469h1.14v0.761c-1.217,0.49-2.163,0.735-2.839,0.735c-0.253,0-0.465-0.042-0.634-0.127
		c-0.169-0.085-0.304-0.232-0.405-0.444c-0.101-0.21-0.173-0.494-0.216-0.848c-0.042-0.356-0.063-0.803-0.063-1.345h-0.101
		c-0.524,0.862-1.217,1.538-2.079,2.028s-1.791,0.735-2.788,0.735c-1.065,0-1.902-0.283-2.51-0.849
		C104.27,130.893,103.966,130.104,103.966,129.089z M108.453,130.839c0.473,0,0.967-0.122,1.483-0.368
		c0.515-0.244,0.951-0.586,1.306-1.026c0.523-0.642,0.785-1.589,0.785-2.839c0-0.288-0.009-0.571-0.025-0.849
		c-0.017-0.279-0.043-0.545-0.077-0.798c-1.03,0.203-1.888,0.415-2.573,0.633c-0.684,0.22-1.233,0.469-1.648,0.749
		c-0.414,0.279-0.706,0.599-0.874,0.962c-0.169,0.364-0.254,0.783-0.254,1.255c0,0.727,0.165,1.289,0.494,1.687
		S107.861,130.839,108.453,130.839z"/>
	<path fill="#FF6B00" d="M130.432,118.112c1.47,0,2.64,0.359,3.511,1.077c0.87,0.719,1.306,1.679,1.306,2.878
		c0,1.301-0.525,1.953-1.572,1.953c-0.49,0-0.87-0.136-1.14-0.407c-0.271-0.269-0.406-0.633-0.406-1.089
		c0-0.422,0.115-0.786,0.343-1.091c0.228-0.303,0.536-0.515,0.925-0.633c-0.49-0.93-1.428-1.394-2.814-1.394
		c-1.386,0-2.396,0.447-3.03,1.343c-0.634,0.896-0.951,2.307-0.951,4.233c0,1.606,0.22,2.831,0.659,3.676
		c0.675,1.301,1.782,1.951,3.321,1.951c0.777,0,1.521-0.169,2.23-0.506c0.71-0.339,1.318-0.82,1.825-1.445l0.76,0.608
		c-0.676,1.048-1.454,1.816-2.332,2.307c-0.879,0.49-1.91,0.735-3.093,0.735c-1.183,0-2.209-0.241-3.08-0.723
		c-0.871-0.481-1.551-1.187-2.041-2.117c-0.288-0.54-0.511-1.162-0.672-1.863c-0.161-0.701-0.241-1.45-0.241-2.244
		c0-1.099,0.152-2.092,0.456-2.978c0.304-0.888,0.74-1.648,1.306-2.282c0.566-0.633,1.25-1.123,2.053-1.47
		C128.56,118.286,129.452,118.112,130.432,118.112z"/>
	<path fill="#FF6B00" d="M149.952,125.084c0,1.116-0.165,2.163-0.494,3.142c-0.33,0.981-0.791,1.792-1.382,2.434
		c-0.997,1.099-2.468,1.648-4.411,1.648c-1.893,0-3.337-0.532-4.335-1.597c-0.575-0.625-1.018-1.399-1.331-2.319
		c-0.313-0.921-0.47-1.923-0.47-3.005c0-1.116,0.161-2.171,0.482-3.169c0.321-0.996,0.786-1.816,1.394-2.459
		c0.541-0.574,1.166-0.993,1.876-1.255c0.709-0.261,1.538-0.393,2.484-0.393c0.929,0,1.766,0.132,2.51,0.393
		c0.743,0.261,1.369,0.664,1.876,1.204c0.592,0.625,1.04,1.408,1.344,2.346C149.8,122.992,149.952,124.003,149.952,125.084z
		 M140.243,125.109c0,2.028,0.304,3.54,0.912,4.538c0.287,0.439,0.63,0.772,1.027,1.001c0.397,0.227,0.917,0.342,1.559,0.342
		c1.167,0,2.037-0.396,2.612-1.191c0.304-0.439,0.528-1.048,0.672-1.826c0.143-0.777,0.215-1.673,0.215-2.686
		c0-2.011-0.304-3.515-0.912-4.513c-0.288-0.439-0.634-0.772-1.04-1.001c-0.405-0.227-0.929-0.342-1.571-0.342
		c-1.184,0-2.037,0.388-2.561,1.167C140.547,121.544,140.243,123.048,140.243,125.109z"/>
	<path fill="#FF6B00" d="M156.923,132.308l-4.513-12.421l-1.42-0.481v-1.04h5.678v1.04l-1.673,0.481l3.574,10.622h0.101
		l3.574-10.622l-1.571-0.481v-1.04h4.817v1.04l-1.471,0.481l-4.487,12.421H156.923z"/>
	<path fill="#FF6B00" d="M169.041,125.363c0,1.233,0.169,2.256,0.507,3.067c0.338,0.795,0.815,1.357,1.432,1.687
		c0.617,0.33,1.297,0.494,2.041,0.494c0.812,0,1.542-0.164,2.193-0.494c0.65-0.33,1.238-0.781,1.762-1.357l0.812,0.61
		c-0.305,0.405-0.63,0.784-0.976,1.14c-0.347,0.354-0.74,0.667-1.179,0.938s-0.929,0.481-1.47,0.634
		c-0.542,0.152-1.141,0.227-1.8,0.227c-1.166,0-2.197-0.249-3.092-0.747c-0.897-0.498-1.581-1.23-2.054-2.192
		c-0.253-0.525-0.439-1.103-0.558-1.738c-0.118-0.633-0.177-1.321-0.177-2.066c0-2.383,0.541-4.221,1.622-5.514
		c1.082-1.292,2.569-1.939,4.462-1.939c1.741,0,3.076,0.537,4.006,1.609c0.929,1.074,1.394,2.558,1.394,4.45
		c0,0.169-0.005,0.325-0.012,0.469c-0.009,0.144-0.03,0.385-0.063,0.723H169.041z M172.412,119.482
		c-2.028,0-3.143,1.546-3.347,4.639h6.338v-0.837c0-1.216-0.258-2.154-0.773-2.813C174.114,119.811,173.375,119.482,172.412,119.482
		z"/>
	<path fill="#FF6B00" d="M187.622,119.836c-0.152-0.101-0.321-0.152-0.507-0.152c-0.321,0-0.659,0.198-1.013,0.596
		c-0.355,0.398-0.668,0.901-0.938,1.509c-0.237,0.574-0.422,1.204-0.558,1.888c-0.135,0.685-0.203,1.391-0.203,2.117v4.741
		l2.738,0.483v1.038h-7.148v-1.038l1.952-0.483v-10.647l-1.952-0.481v-1.04h3.65l0.558,3.347h0.101
		c0.388-1.15,0.908-2.038,1.559-2.663s1.382-0.938,2.193-0.938c0.659,0,1.208,0.207,1.648,0.62c0.439,0.415,0.659,0.969,0.659,1.662
		c0,0.506-0.132,0.908-0.393,1.204c-0.262,0.296-0.613,0.444-1.052,0.444s-0.786-0.141-1.04-0.419
		c-0.253-0.279-0.38-0.647-0.38-1.102c0-0.102,0.009-0.195,0.026-0.28C187.537,120.158,187.571,120.022,187.622,119.836z"/>
</g>
</svg>
