<?xml version="1.0" encoding="utf-8"?>
<!-- Generator: Adobe Illustrator 22.1.0, SVG Export Plug-In . SVG Version: 6.00 Build 0)  -->
<svg version="1.2" baseProfile="tiny" id="Layer_1" xmlns="http://www.w3.org/2000/svg" xmlns:xlink="http://www.w3.org/1999/xlink"
	 x="0px" y="0px" viewBox="0 0 58.334 42.044" xml:space="preserve">
<path fill="#ff6b00" d="M54.176,0.003c-1.039,0.031-2.027,0.469-2.75,1.219C41.5,11.171,30.875,22.57,20.957,32.628L6.801,20.972
	C6,20.187,4.906,19.773,3.785,19.831c-1.117,0.062-2.16,0.59-2.875,1.457c-0.711,0.863-1.027,1.988-0.871,3.102
	c0.16,1.109,0.773,2.102,1.699,2.738l17,14c1.59,1.312,3.914,1.203,5.375-0.25c10.75-10.773,22.414-23.391,33-34
	c1.195-1.156,1.551-2.926,0.898-4.449C57.36,0.902,55.836-0.063,54.176,0.003L54.176,0.003z"/>
</svg>
