<?xml version="1.0" encoding="utf-8"?>
<!-- Generator: Adobe Illustrator 22.1.0, SVG Export Plug-In . SVG Version: 6.00 Build 0)  -->
<svg version="1.2" baseProfile="tiny" id="Layer_1" xmlns="http://www.w3.org/2000/svg" xmlns:xlink="http://www.w3.org/1999/xlink"
	 x="0px" y="0px" viewBox="0 0 675.107 594.56" xml:space="preserve">
<g id="Layer_2_1_">
	<g id="Layer_1-2">
		<path fill="#673918" d="M14.64,335.52c0,0.4-0.15,1-0.34,1c-5.76,2-10.21,6.84-9.89,12.1l0.13,2.06c0.13,2.13,0.91,2.82,2.77,2.71
			l32.63-2c3.53-0.21,4.94-1.17,5.18-7c0.05-0.27,0.7-0.58,1.17-0.61s1.21,0.2,1.23,0.46c0.27,4.4,0.13,7.55,0.38,11.61
			s0.78,7.3,1.05,11.7c0,0.26-0.63,0.57-1.17,0.6s-1.14-0.2-1.23-0.46c-0.95-5.75-2.47-6.53-6-6.31l-32.62,2
			c-2,0.13-2.55,0.9-2.42,3L5.6,368c0.29,4.72,5.67,10.74,11.38,12.26c0.308,0.238,0.479,0.612,0.46,1c0,0.73-0.3,1.55-0.71,1.44
			c-4.61-1-9.59-1.61-14-2.14c0.36-2.7,0.34-9.65-0.41-21.83S0.69,339.19,0,336.62c4.24-0.59,9.07-1.42,13.75-2.45
			C14.15,334.08,14.58,334.66,14.64,335.52z"/>
		<path fill="#673918" d="M52.74,275.92c-0.52,4.44-1.2,7.45-1.68,11.56s-0.45,6.73-1,11.1c0,0.33-0.72,0.46-1.25,0.39
			s-1.1-0.33-1.13-0.66c0.07-5.77-1.35-6.27-4.87-6.68L28.94,290l-2.5,21.54l13.91,1.61c3.51,0.41,5,0.25,6.27-5.38
			c0.1-0.32,0.79-0.45,1.25-0.39s1.17,0.34,1.13,0.67c-0.51,4.37-1.13,6.85-1.61,11s-0.51,7.26-1,11.63c0,0.27-0.73,0.45-1.26,0.39
			s-1.1-0.39-1.13-0.67c0.07-5.76-1.28-6.86-4.8-7.27L9.11,319.6c-3.51-0.41-5.07,0.35-6.4,6c0,0.27-0.72,0.46-1.25,0.39
			s-1.16-0.4-1.13-0.66c0.5-4.38,1.2-7.45,1.68-11.56s0.43-6.67,0.94-11c0-0.33,0.79-0.44,1.26-0.39s1.17,0.34,1.13,0.67
			c0,5.77,1.42,6.28,4.93,6.68l13.45,1.57l2.5-21.53l-13.45-1.57c-3.51-0.41-5-0.25-6.33,5.38c0,0.33-0.72,0.45-1.25,0.39
			s-1.17-0.34-1.13-0.68c0.5-4.37,1.14-6.92,1.61-11s0.5-7.2,1-11.63c0-0.27,0.79-0.45,1.25-0.39c0.46,0.06,1.17,0.4,1.14,0.67
			c0,5.84,1.35,6.87,4.86,7.28l30.08,3.4c3.51,0.41,5.07-0.28,6.33-6c0.1-0.26,0.79-0.45,1.26-0.4S52.77,275.66,52.74,275.92z"/>
		<path fill="#673918" d="M65.55,234.79c-1.37,4.05-4.67,14.2-5.95,18.41c-1.28,4.21-4.35,15-5.45,19.05
			c-0.07,0.26-0.79,0.32-1.3,0.16s-1-0.58-1-0.86c1.09-5.66,0-7-3.42-8l-29-8.82c-3.39-1-5.06-0.56-7.37,4.74
			c-0.08,0.25-0.79,0.31-1.3,0.16s-1.08-0.61-1-0.86c1.35-4,4.61-14,5.89-18.22s4.12-14.23,5.24-18.35
			c4.061,1.008,8.174,1.796,12.32,2.36c0.47,0.07,0.66,0.82,0.38,1.72c-0.13,0.44-0.5,0.75-0.71,0.75c-6.05-0.51-11,2.38-12.65,7.87
			l-1.51,5.1c-0.51,1.66-0.43,3.92,2.7,4.87L35.08,249l1.55-5.11c1.17-3.83,0.19-6.57-4.81-8.71c-0.3-0.16-0.29-0.86-0.16-1.31
			s0.54-1.09,0.86-1c3.19,1,5.2,1.93,8.2,2.84s5.08,1.2,8.27,2.17c0.25,0.08,0.31,0.79,0.16,1.3s-0.59,1-0.86,1
			c-5.35-1-7.88,0.67-9,4.5l-1.56,5.1l14.62,4.45c3.13,1,4.38-0.9,4.89-2.56l1.55-5.1c1.81-5.94-1.07-12.74-6.38-16.38
			c-0.17-0.12-0.14-0.46,0-0.84c0.25-0.83,0.95-1.52,1.36-1.26C57.14,230.35,61.81,232.89,65.55,234.79z"/>
		<path fill="#673918" d="M70.13,133.49c-1.42,3-0.22,5.84,2.39,9.81l23,34.45c0.21,0.28,0,1-0.3,1.53
			c-0.238,0.494-0.68,0.859-1.21,1l-20.2-1.93l10,19.12c0.18,0.35,0.15,0.79-0.3,1.54c-0.34,0.57-0.91,1-1.21,1l-41.24-4.53
			c-4.9-0.51-7.2-0.17-9.82,3.32c-0.17,0.28-1,0.29-1.41,0s-0.93-0.78-0.79-1c2.29-3.84,3.49-5.22,5.58-8.72s2.61-5,4.86-8.82
			c0.14-0.23,0.91-0.09,1.31,0.15s1,0.67,0.86,0.9c-1,2.11-1.19,4,0.36,4.88c0.929,0.407,1.927,0.631,2.94,0.66L76.54,190L70,178
			l-17.5-1.65c-5.34-0.54-7.24-0.35-9.2,2.29c-0.13,0.23-0.91,0.23-1.37,0s-0.93-0.79-0.79-1c2.25-3.78,2.84-4.13,5-7.68
			s2.44-4.76,4.69-8.54c0.14-0.23,0.91-0.08,1.31,0.16s1,0.67,0.86,0.9c-1.28,2.42-1.1,3.93,0.11,4.64
			c1.029,0.461,2.134,0.725,3.26,0.78l9,0.69l-4-7.44c-0.51-1.298-1.368-2.429-2.48-3.27c-1.37-0.82-2.82-0.21-4.37,2.13
			c-0.14,0.23-0.78,0-1.24-0.27s-0.86-0.9-0.72-1.13c1.6-2.7,2.84-4.13,4-6s1.66-3.44,3.16-6c0.1-0.17,0.66-0.07,1.12,0.2
			s1,0.92,0.77,1.32c-1.28,2.8-0.47,5.23,1.34,8.71l6.32,12.07l17.75,1.49L70.23,146c-0.627-1.043-1.469-1.939-2.47-2.63
			c-1.49-0.89-3.11-0.38-4.63,1.9c-0.13,0.23-0.77,0-1.23-0.27s-0.9-0.84-0.73-1.14c1.64-2.75,2.64-3.78,3.8-5.73
			c1.37-2.29,1.66-3.44,3.27-6.13c0.1-0.17,0.69-0.13,1.15,0.15S70.37,133.09,70.13,133.49z"/>
		<path fill="#673918" d="M136.23,126.86c-2.9,3.31-5,5.24-7.51,8c-2.73,3.11-4.73,5.88-7.63,9.19c-0.18,0.2-0.85,0-1.26-0.39
			s-0.76-0.85-0.63-1.09c2.71-3.39,2.75-4.86,1.5-6c-0.782-0.563-1.636-1.017-2.54-1.35l-7.81-3l-9.16,10.43l3.55,6.67
			c0.485,0.994,1.119,1.908,1.88,2.71c1.35,1.19,2.92,1.23,5.84-1.79c0.23-0.16,0.82,0.18,1.17,0.49s0.72,1,0.55,1.19
			c-2.6,3-3.56,3.54-6,6.3c-1.93,2.2-2.7,3.57-4.76,5.93c-0.22,0.25-0.86,0-1.21-0.44c-0.345-0.359-0.5-0.859-0.42-1.35
			c2.56-3.42,2-5.89,0.09-10.21l-17.8-37c-0.036-0.545,0.169-1.078,0.56-1.46c0.49-0.55,1.13-0.87,1.37-0.75l37.88,14.19
			c4,1.58,6.77,1.59,10.43-1.76c0.467-0.123,0.965-0.016,1.34,0.29C136.08,126,136.41,126.66,136.23,126.86z M92,125.09l7.92,15
			l7.79-8.87L92,125.09z"/>
		<path fill="#673918" d="M167.92,100.94c-3.38,2.62-11.77,9.32-15.16,12.13s-11.69,9.93-14.84,12.73c-0.2,0.17-0.83-0.18-1.17-0.59
			s-0.52-1-0.36-1.26c4-4.12,3.82-5.85,1.56-8.57l-19.32-23.32c-2.26-2.72-3.91-3.25-8.75-0.11c-0.21,0.17-0.84-0.17-1.18-0.58
			s-0.56-1.1-0.36-1.27c3.39-2.8,6-4.55,9.2-7.19s5.34-4.85,8.73-7.66c0.25-0.21,0.88,0.22,1.17,0.58s0.62,1,0.36,1.27
			c-4,4.17-3.72,5.86-1.47,8.58l20,24.09c2.09,2.51,4.16,1.66,5.49,0.56l4-3.32c5.24-4.34,4.57-11.32,2-17.63
			c-0.13-0.15,0.09-0.41,0.39-0.67c0.67-0.55,1.64-0.75,1.84-0.39C162.15,92.21,165.42,97.2,167.92,100.94z"/>
		<path fill="#673918" d="M216.34,72c-3.81,2.21-5.71,2.92-9.29,5s-6.93,4.41-10.74,6.61c-0.23,0.14-0.8-0.31-1.06-0.77
			s-0.4-1.08-0.2-1.27c2.17-1.57,2.93-2.78,2.33-3.82c-0.592-0.715-1.399-1.22-2.3-1.44l-15.79-5.43
			c-1.521-0.679-3.292-0.476-4.62,0.53L181.39,83c1.77,3.06,3,4,8.35,1.64c0.26-0.08,0.83,0.36,1.06,0.77s0.37,1.17,0.14,1.3
			c-3.81,2.21-6.46,3.36-10,5.43s-6.1,3.86-9.94,6.07c-0.29,0.17-0.8-0.31-1.06-0.77s-0.4-1.08-0.14-1.31
			c4.6-3.36,4.67-5.1,2.9-8.15l-15.15-26.21c-1.74-3-2.79-4-8.79-1.46c-0.29,0.17-0.8-0.31-1.07-0.77s-0.42-1.14-0.14-1.31
			c3.81-2.21,6.87-3.59,10.45-5.67s6.35-4.06,10.16-6.27c0.23-0.13,0.83,0.37,1.06,0.77s0.37,1.18,0.14,1.31
			c-5.19,3.94-4.9,5.38-3.16,8.38l7,12.07c1.378-0.688,2.344-1.992,2.6-3.51L181,47c0.34-1.28,0.53-2.16,0.13-2.85
			c-0.61-1-1.94-0.95-4.74,0.2c-0.29,0.17-0.8-0.31-1.07-0.77s-0.37-1.17-0.14-1.31c2.83-1.64,5.94-3.05,9-4.82
			c2.77-1.61,4-2.7,6.07-3.9c0.29-0.17,0.83,0.36,1.06,0.77s0.37,1.17,0.08,1.34c-3.264,2.345-5.592,5.771-6.57,9.67l-4.39,15.57
			l25.41,9.41c3.82,1.4,6.07,1,9.33-0.4c0.27-0.08,0.8,0.31,1.07,0.77S216.62,71.79,216.34,72z"/>
		<path fill="#673918" d="M272.81,53c-4.19,1.34-7,1.9-10.58,3c-3.94,1.26-7.08,2.62-11.27,4c-0.26,0.08-0.71-0.47-0.88-1
			s-0.22-1.12,0-1.27c4.07-1.51,4.86-2.75,4.35-4.33c-0.363-0.862-0.845-1.67-1.43-2.4l-5.13-6.62l-13.25,4.22l-0.39,7.55
			c-0.097,1.101-0.023,2.211,0.22,3.29c0.55,1.72,1.87,2.56,5.93,1.47c0.27,0,0.6,0.57,0.75,1s0.11,1.22-0.15,1.3
			c-3.74,1.2-4.86,1.21-8.36,2.33c-2.79,0.9-4.15,1.68-7.14,2.64c-0.31,0.1-0.71-0.47-0.81-1c-0.11-0.485,0.016-0.993,0.34-1.37
			c4-1.62,4.73-4,5.33-8.71l3.77-40.93c0-0.29,0.6-0.75,1.23-1s1.42-0.18,1.57,0.06l25.19,31.71c2.64,3.43,5,4.85,9.85,3.85
			c0.28,0,0.86,0.5,1,0.94S273.06,53,272.81,53z M235.76,28.76l-0.94,17l11.24-3.61L235.76,28.76z"/>
		<path fill="#673918" d="M315,45.52c-4.09,0.62-9.86,4-16.13,4.91c-17.62,2.64-28.06-7.6-29.88-19.81
			c-1.93-12.86,6.73-25.76,23.23-28.23c6.66-1,11.26,0,15.35-0.61c0.83,3.72,2.11,9.13,3.11,12.62c0.05,0.33-0.72,0.65-1.24,0.73
			s-1-0.05-1.14-0.37c-2.19-5.76-8.67-10.71-15.92-9.63C282,6.69,277.67,16.85,279.5,29.05c1.78,11.88,8.83,20.27,19,18.75
			c8.45-1.27,12.56-7.62,14.28-15c0.07-0.42,0.58-0.63,1-0.7s1.23,0.09,1.34,0.34C315.07,35.94,315,41.88,315,45.52z"/>
		<path fill="#673918" d="M369.51,47.26c-2.27,0-6.47-0.45-7.93-0.48c-1.94,0-5.28,0.23-7.21,0.2l-8.95-16.92
			c-2.07-3.77-3.32-4.46-7.39-4.54l-0.25,13.14c-0.07,3.53,0.51,5,6.3,5.72c0.26,0.07,0.52,0.74,0.51,1.21s-0.29,1.2-0.56,1.19
			c-4.4-0.08-7.26-0.47-11.4-0.55s-7.2,0.2-11.61,0.12c-0.33,0-0.52-0.68-0.51-1.21s0.22-1.13,0.56-1.19c5.68-0.5,6.64-2,6.71-5.48
			l0.57-30.28c0.07-3.53-0.84-5-6.5-5.79c-0.33,0-0.52-0.68-0.51-1.21s0.23-1.2,0.56-1.19c4.4,0.08,7.6,0.48,11.73,0.56
			s6.37-0.22,10.74-0.14c12.34,0.23,17.91,5.48,17.78,12.28c-0.1,5.67-3.71,9.4-10.08,11.35l9.7,16c1.49,2.62,3.06,4.19,8.05,4.82
			c0.26,0.07,0.39,0.74,0.38,1.2S369.84,47.27,369.51,47.26z M343.72,3.26c-4.87-0.09-5.3,1.37-5.36,4.57l-0.28,15
			c1.229,0.233,2.479,0.347,3.73,0.34c6.87,0.13,9.66-3,9.79-10c0.12-6.27-2.14-9.85-7.88-9.96V3.26z"/>
		<path fill="#673918" d="M393.08,53c-15.72-3-22.94-15.23-20.4-28.4s13.88-22.24,29.6-19.2s22.84,15.75,20.31,28.85
			S408.8,56,393.08,53z M401.76,8.07c-10-1.94-16.33,6.43-18.67,18.54s0.48,21.83,10.5,23.77s16.23-6,18.58-18.15
			S411.78,10,401.76,8.08L401.76,8.07z"/>
		<path fill="#673918" d="M436.34,64.93c-5.7-2.07-8.07-5.34-12.74-7.52c1.1-3.44,2.89-8.75,3.73-11.85
			c0.09-0.25,0.87-0.25,1.37-0.07s0.9,0.46,0.88,0.89c-0.82,8.35,2.22,14.06,7.8,16.09c5.2,1.88,8.44-0.21,10-4.41
			c3.5-9.66-16.74-18.2-12.31-30.43c2.54-7,10.37-11,19.71-7.61c4.64,1.68,5.5,3.41,9.84,5.55c-1.11,3.64-2.17,7.16-3,10.77
			c0,0.27-0.81,0.27-1.25,0.11s-1.08-0.53-1-0.93c0.84-7-0.95-11.27-5.59-13c-4.33-1.57-8,0.15-9.39,4
			c-3.2,8.84,16.71,17.9,12.33,30C453.55,65.2,445.44,68.22,436.34,64.93z"/>
		<path fill="#673918" d="M469.21,79.18c-5.41-2.76-7.35-6.29-11.71-9c1.52-3.27,3.94-8.32,5.16-11.3c0.12-0.23,0.9-0.14,1.37,0.1
			s0.83,0.58,0.77,1c-1.86,8.18,0.45,14.23,5.74,16.93c4.93,2.51,8.4,0.84,10.44-3.14c4.66-9.15-14.37-20.13-8.45-31.72
			c3.39-6.65,11.65-9.63,20.5-5.11c4.4,2.24,5,4.07,9.08,6.73c-1.55,3.47-3,6.83-4.3,10.31c-0.06,0.27-0.83,0.17-1.25,0
			s-1-0.66-0.88-1c1.69-6.85,0.45-11.3-3.95-13.55c-4.1-2.09-8-0.84-9.81,2.79c-4.27,8.38,14.37,19.83,8.51,31.3
			C486.25,81.59,477.82,83.58,469.21,79.18z"/>
		<path fill="#673918" d="M534.43,121.75c-3.5-2.68-5.57-4.69-8.53-7c-3.28-2.52-6.19-4.32-9.68-7c-0.21-0.16,0-0.86,0.31-1.28
			s0.79-0.82,1.05-0.71c3.56,2.48,5,2.43,6,1.11c0.511-0.819,0.908-1.704,1.18-2.63l2.51-8l-11-8.45l-6.42,4
			c-0.957,0.532-1.827,1.206-2.58,2c-1.1,1.43-1,3,2.18,5.71c0.17,0.22-0.13,0.83-0.41,1.2s-0.95,0.79-1.16,0.62
			c-3.12-2.39-3.77-3.3-6.68-5.54c-2.32-1.78-3.75-2.45-6.23-4.36c-0.27-0.2,0-0.85,0.36-1.24c0.333-0.365,0.819-0.55,1.31-0.5
			c3.59,2.33,6,1.58,10.2-0.59L542.64,69c0.54-0.067,1.082,0.101,1.49,0.46c0.58,0.45,1,1.07,0.84,1.32l-11.64,38.74
			c-1.31,4.12-1.14,6.86,2.45,10.28c0.154,0.459,0.08,0.964-0.2,1.36C535.26,121.55,534.64,121.91,534.43,121.75z M533.25,77.47
			l-14.48,8.91l9.37,7.18L533.25,77.47z"/>
		<path fill="#673918" d="M577.51,169.65c-2.91-3.31-4.86-6-7.59-9.15s-5-5.14-7.87-8.45c-0.22-0.25,0.11-0.89,0.51-1.24
			s1-0.6,1.25-0.39c4.15,3.81,5.92,3.6,8.44,1.11l22.12-21.11l-39.5,14.27c-0.24,0.13-0.88-0.2-1.37-0.75s-0.72-1.23-0.56-1.46
			l18.35-36l-23.12,17.65c-2.88,2.18-3.14,4,0.19,8.71c0.13,0.24-0.29,0.79-0.64,1.09s-1.07,0.6-1.3,0.35
			c-2.24-2.56-3.66-4.68-5.73-7s-4-4-6.06-6.4c-0.18-0.2,0.19-0.79,0.59-1.14s1.07-0.5,1.34-0.29c4.38,4,6.22,3.95,9.1,1.86
			l24.77-17.68c2.88-2.08,3-4.15-0.18-8.8c-0.18-0.2,0.19-0.79,0.59-1.15s1.12-0.54,1.3-0.34c1.54,1.76,3.49,4.48,4.77,5.94
			c1.5,1.7,4.17,4.24,5.84,6.14l-16.5,32.16l34-12.26c2,2.26,3.58,4.58,5.12,6.33c1.85,2.11,3.73,3.74,5.66,6
			c0.18,0.19-0.19,0.88-0.55,1.19s-1,0.64-1.21,0.44c-4.19-3.77-6-3.55-8.53-1.12l-21.78,21.09c-2.52,2.48-3.09,4,0.33,8.86
			c0.12,0.24-0.15,0.84-0.55,1.19S577.68,169.84,577.51,169.65z"/>
		<path fill="#673918" d="M598.13,206.34c-2-3.75-7.28-13.05-9.51-16.85s-8.08-13.36-10.33-16.91c-0.13-0.23,0.31-0.8,0.77-1.07
			s1.11-0.34,1.31-0.15c3.42,4.64,5.16,4.71,8.21,2.92l26.11-15.35c3-1.79,3.84-3.34,1.51-8.62c-0.14-0.23,0.3-0.8,0.77-1.07
			s1.17-0.38,1.3-0.15c2,3.69,7.18,12.88,9.41,16.68s7.68,12.67,10,16.28c-3.491,2.309-6.855,4.802-10.08,7.47
			c-0.37,0.29-1.06-0.08-1.53-0.88c-0.191-0.3-0.218-0.676-0.07-1c4.48-4.1,5.68-9.68,2.78-14.63l-2.71-4.6
			c-0.87-1.49-2.59-3-5.41-1.31l-12.31,7.24l2.71,4.6c2,3.45,4.7,4.58,9.67,2.36c0.32-0.11,0.83,0.37,1.06,0.77s0.44,1.14,0.15,1.31
			c-2.87,1.68-4.94,2.51-7.64,4.1s-4.32,2.93-7.2,4.61c-0.23,0.14-0.8-0.3-1.07-0.76s-0.34-1.11-0.14-1.31
			c4.35-3.25,4.84-6.25,2.81-9.7l-2.7-4.6l-13.18,7.74c-2.82,1.66-2.31,3.84-1.43,5.33l2.7,4.6c3.15,5.35,10.1,7.84,16.37,6.4
			c0.21,0,0.44,0.21,0.64,0.56c0.44,0.74,0.48,1.73,0,1.85C607.1,203.17,602.07,204.88,598.13,206.34z"/>
		<path fill="#673918" d="M618.36,256.62c-0.82-2.11-2-6.16-2.54-7.53c-0.7-1.8-2.21-4.79-2.9-6.6l12.29-14.67
			c2.72-3.33,2.89-4.75,1.42-8.55L614.37,224c-3.3,1.27-4.45,2.36-2.93,8c0,0.27-0.49,0.76-0.93,0.93s-1.21,0.18-1.31-0.07
			c-1.58-4.11-2.3-6.9-3.79-10.76s-2.9-6.6-4.48-10.71c-0.12-0.31,0.43-0.74,0.93-0.93s1.13-0.22,1.31,0.06
			c2.6,5.08,4.31,5.42,7.6,4.15l28.23-10.9c3.29-1.27,4.33-2.67,2.91-8.2c-0.12-0.31,0.43-0.74,0.93-0.93s1.19-0.24,1.31,0.07
			c1.59,4.11,2.43,7.21,3.91,11.07s2.59,5.8,4.17,9.91c4.44,11.51,1.68,18.65-4.67,21.09c-5.29,2-10.11,0.11-14.31-5.06l-11.16,15
			c-1.88,2.36-2.73,4.41-1.44,9.27c0,0.27-0.54,0.63-1,0.8S618.48,256.93,618.36,256.62z M649.44,216.13
			c-1.75-4.54-3.26-4.39-6.25-3.24l-14,5.4c0.255,1.224,0.62,2.422,1.09,3.58c2.47,6.41,6.44,7.81,12.91,5.32
			C649,224.93,651.5,221.49,649.44,216.13L649.44,216.13z"/>
		<path fill="#673918" d="M623.47,281.94c-1-4.29-1.38-7.35-2.32-11.38s-2-7-3-11.35c-0.06-0.26,0.53-0.67,1.05-0.8
			s1.17,0,1.29,0.25c1.91,5.51,3.54,6,7,5.22L657,257c3.44-0.81,4.67-2,4-7.79c-0.06-0.26,0.52-0.67,1-0.79s1.23,0,1.3,0.25
			c1,4.35,1.4,7.48,2.35,11.5s2,6.94,3,11.23c0.08,0.32-0.59,0.68-1.05,0.79s-1.21,0.08-1.29-0.24c-2-5.44-3.58-5.95-7-5.14
			l-29.48,6.9c-3.44,0.81-4.68,2-4,7.71c0,0.34-0.6,0.69-1,0.8S623.55,282.26,623.47,281.94z"/>
		<path fill="#673918" d="M630.54,330c-0.39-4.12-3.44-10.06-4-16.37c-1.69-17.73,9.1-27.6,21.38-28.77c13-1.23,25.37,8.1,27,24.71
			c0.64,6.7-0.6,11.24-0.21,15.36c-3.76,0.63-9.23,1.62-12.77,2.42c-0.33,0-0.61-0.74-0.66-1.28s0.11-1,0.43-1.11
			c5.85-1.9,11.16-8.1,10.46-15.4c-1-10.49-10.9-15.31-23.19-14.14c-11.95,1.14-20.71,7.73-19.73,18
			c0.81,8.5,6.93,12.94,14.23,15.06c0.41,0.1,0.6,0.61,0.64,1.08s-0.15,1.22-0.41,1.31C640.11,330.54,634.18,330.17,630.54,330z"/>
		<path fill="#673918" d="M626,383.35c0.31-4.39,0.85-7.22,1.12-11c0.31-4.13,0.22-7.54,0.54-11.94c0-0.26,0.7-0.48,1.24-0.44
			s1.12,0.21,1.16,0.48c-0.11,4.35,0.74,5.54,2.4,5.66c0.964-0.018,1.92-0.173,2.84-0.46l8.06-2.29l1-13.84l-6.86-3.17
			c-0.989-0.493-2.048-0.83-3.14-1c-1.79-0.13-3.06,0.78-3.57,5c-0.08,0.26-0.76,0.34-1.22,0.31s-1.18-0.36-1.16-0.62
			c0.28-3.93,0.69-5,1-8.63c0.21-2.93,0-4.48,0.22-7.61c0-0.33,0.7-0.48,1.23-0.38c0.487,0.082,0.908,0.385,1.14,0.82
			c0,4.29,2,5.9,6.1,8.2l36.56,18.78c0.349,0.416,0.502,0.963,0.42,1.5c0,0.74-0.36,1.38-0.63,1.43l-38.77,11.56
			c-4.17,1.17-6.36,2.82-7.25,7.71c-0.302,0.378-0.766,0.59-1.25,0.57C626.58,383.93,625.94,383.62,626,383.35z M662.31,358
			l-15.4-7.21l-0.85,11.78L662.31,358z"/>
		<circle fill="#FF6B00" cx="338.09" cy="347.18" r="247.38"/>
		<path fill="#F1D09F" d="M442.75,399.47c2.44-0.62,5,0.53,7.49,0.52c5.13,0,9.15-5.08,9.7-10.19s-1.53-10.12-3.89-14.68
			c-6.32-12.22-15.37-24.85-12.66-38.34c1.33-6.62,5.39-12.31,8.71-18.21c8.6-15.29,12.52-33.61,8.71-50.74
			s-15.94-32.69-32.46-38.62c-7.87-2.83-16.34-3.46-24.69-4c-37.18-2.387-74.4-3.457-111.66-3.21
			c-2.818-0.143-5.638,0.216-8.33,1.06c-3.6,1.37-6.29,4.36-8.87,7.22c-13.799,15.277-28.674,29.546-44.51,42.7
			c-12.3,10.23-25.64,20.34-32.34,34.86c-8.1,17.56-4.92,38.12,0,56.83c3.44,13.15,8.52,27.24,20.2,34.19
			c5.58-9.7,12-20.14,22.62-23.74c1.87,9.53,10.7,16.68,20.23,18.58c9.53,1.9,19.47-0.73,28.11-5.16
			c-2.673,29.989,1.322,60.197,11.7,88.46c41.453,4.067,83.162,4.863,124.74,2.38c2-0.12,4.15-0.31,5.66-1.62
			c1.131-1.179,1.926-2.64,2.3-4.23c4.241-12.91,7.743-26.052,10.49-39.36c1.47-7.06,1.38-13.37-3-19.2c-2.35-3.14-3.65-3-3.16-7.8
			C438.2,404,439.21,400.36,442.75,399.47z"/>
		<path fill="#673918" d="M483.54,233.12c-4.16-2.16-9.14-1.66-13.8-1.1c3-14.11-8.12-29.54-22.44-31.24
			c2.41-4.28-0.9-9.43-4.05-13.2c-6.56-7.88-13.29-15.87-21.93-21.39s-19.65-8.29-29.31-4.84c1.34-7.8-5.32-15.17-12.89-17.49
			s-14,0-21.41,0.21c-6.39,0.21-10.81-0.64-16.9,2.78c-4.86,2.73-10.13,6-15.58,4.85c-3.13-0.69-5.78-2.81-8.85-3.75
			c-7.67-2.34-15.33,3-21.89,7.64c-9.1,6.42-19.23,12.15-30.34,13c-2.333,0.03-4.659,0.267-6.95,0.71
			c-2.359,0.699-4.586,1.783-6.59,3.21c-6.85,4.477-12.992,9.955-18.22,16.25c-1.63,2.231-3.535,4.247-5.67,6
			c-6.47,4.68-15.68,3-22.87,6.45c-9,4.36-12.65,15.56-20.85,21.32c-1.82,1.28-3.89,2.3-5.29,4c-2.91,3.6-2,8.82-2.81,13.38
			c-1.56,9-9.67,15.21-13.41,23.49c-2.8,6.2-3,13.22-3.17,20c-0.51,21.17-0.72,43.56,9.84,61.92c3.89,6.77,9.23,15.15,4.74,21.55
			c-0.94,1.35-2.27,2.43-3,3.91c-2.12,4.25,1.44,9,2.62,13.59c0.77,3.05,0.47,6.26,0.16,9.39l-2,20.07
			c-0.5,5.13-0.41,11.47,4.1,13.95c5.3,2.9,11.82-2.22,17.75-1c1.58,9.92,11.57,17.72,21.58,16.86c5.36-0.47,10.93-3,15.88-0.91
			c1.6,0.69,3,1.82,4.58,2.48c15.23,6.19,15.19-23,14.5-30.8l-3.18-35.76c-0.36-4.1-0.63-8.58,1.71-12
			c0.93-1.28,2.094-2.373,3.43-3.22c6.636-4.31,15.091-4.67,22.07-0.94c7.79,4.29,12.73,14.15,10.47,22.95
			c-0.94,3.65-2.55,6.21-2.81,10.12c-0.39,5.93-0.19,11.53-2.29,17.23c-1.6,4.33-4.18,8.33-5,12.86c-1,5.48,0.65,11.28-0.92,16.63
			c-1.09,3.71-3.67,6.89-4.52,10.66s0.12,7.77,1.1,11.55l8.09,31.26c0.229,1.332,0.805,2.581,1.67,3.62
			c1.74,1.71,4.68,1.4,6.69,2.79c3,2,2.58,6.56,4.44,9.65c2.21,3.67,7.24,4.77,9.7,8.28c1.16,1.67,1.68,3.8,3.16,5.2
			c3.51,3.31,10.49,0.88,13.22,4.87c0.84,1.21,1,2.77,1.82,4c2.49,3.89,10.12,3.88,10.12,8.5c2-1.41,4.89-0.31,6.73,1.35
			s3.24,3.84,5.41,5c1.822,0.836,3.787,1.318,5.79,1.42c6.27,0.78,14.07,3.59,19.93,0.07c1.045-0.775,2.197-1.395,3.42-1.84
			c3.92-1,7.05,3.47,11,4.43c5.32,1.29,10.26-4.09,15.73-3.76s7.49,2.41,12.83,0c3.61-1.65,6.21-4,9.54-6
			c8.08-4.84,16.1-6,22.34-13.89c1.044-1.319,1.99-2.713,2.83-4.17c2.94-5.1,4.56-10.83,6.15-16.5l6.26-22.35
			c0.295-0.881,0.454-1.801,0.47-2.73c-0.06-1.94-1.33-3.6-2-5.41c-0.522-1.619-0.828-3.301-0.91-5c-0.7-7.21-1.48-14.69-3.26-21.72
			c-1.27-5-5.33-10.19-1.29-15.16c0.91-1.11,2.11-1.94,3.12-3c5.25-5.31,3.62-14.87-1.78-20s-13.28-6.74-20.74-7
			c-7.53-0.217-15.048,0.727-22.29,2.8c-8.81,2.53-18.67,10-16.1,18.65c-0.2-0.27-0.4-0.53-0.62-0.79
			c-7.51-8.95-23.78-3.9-32.05-12.15c-6-6-5.93-17.33-13.66-20.73c-9.91-4.37-19,3.59-25.25-8.64
			c-3.464-7.236-3.782-15.581-0.88-23.06c2.82-7.42,11.26-15.46,11.06-23.63c-0.16-6.56-13-16.64-5.84-23
			c4.8-4.25,12,2.37,18.36,1.82c5.74-0.5,9.28-6.88,9.47-12.64s-1.86-11.36-2.31-17.11s0.9-11.81,4.9-15.9s11-5.43,15.57-2
			s6.64,11.31,12.52,11.8c7.63,0.63,11.69-12.24,19.19-10.74c2.67,0.54,4.69,2.89,7.34,3.48c6.37,1.4,13.74-7.38,18.29-2.71
			c3.1,3.18,0.23,9.23,3.1,12.62c2.66,3.15,7.9,1.41,11-1.32s5.95-6.39,10.05-6.79c-0.685,7.687-0.26,15.433,1.26,23
			c8.167,1.78,16.413,3.177,24.74,4.19c3,0.37,6.75,0.36,8.32-2.25c1.91-3.18-1.07-6.9-2.77-10.2c-4.81-9.27,0.71-20.22,4.71-29.87
			C491.72,251.58,492.81,237.93,483.54,233.12z M408.54,437.63c7,0.47,14.79,0.4,19.82,5.26c1.28,7.94-6.81,15.35-14.84,14.94
			s-14.82-7-17.33-14.66c-1.25-3.81-1.7-8-3.12-11.71c3.35,4.16,9.79,5.78,15.45,6.17H408.54z"/>
	</g>
</g>
</svg>
