<?xml version="1.0" encoding="utf-8"?>
<!-- Generator: Adobe Illustrator 22.1.0, SVG Export Plug-In . SVG Version: 6.00 Build 0)  -->
<svg version="1.2" baseProfile="tiny" id="Layer_1" xmlns="http://www.w3.org/2000/svg" xmlns:xlink="http://www.w3.org/1999/xlink"
	 x="0px" y="0px" viewBox="0 0 494.75 494.75" xml:space="preserve">
<g id="Layer_2_1_">
	<g id="Layer_1-2">
		<circle fill="#FF6B00" cx="247.38" cy="247.38" r="247.38"/>
		<path fill="#F1D09F" d="M352,299.66c2.44-0.62,5,0.54,7.49,0.53c5.14,0,9.16-5.09,9.7-10.2s-1.52-10.11-3.88-14.68
			C359,263.09,350,250.47,352.68,237c1.33-6.63,5.39-12.32,8.7-18.21c8.61-15.3,12.52-33.61,8.72-50.74s-15.94-32.69-32.46-38.63
			c-7.87-2.83-16.34-3.46-24.7-4c-37.173-2.393-74.4-3.477-111.68-3.25c-2.814-0.163-5.635,0.176-8.33,1
			c-3.6,1.37-6.29,4.37-8.87,7.23c-13.802,15.274-28.676,29.544-44.51,42.7c-12.3,10.22-25.64,20.33-32.34,34.85
			c-8.11,17.56-4.92,38.13,0,56.83c3.44,13.16,8.51,27.25,20.2,34.2c5.58-9.7,12-20.14,22.62-23.75
			c1.87,9.53,10.7,16.69,20.22,18.58s19.47-0.73,28.12-5.16c-2.652,29.989,1.361,60.193,11.75,88.45
			c41.456,4.072,83.169,4.868,124.75,2.38c2-0.12,4.15-0.31,5.66-1.62c1.128-1.177,1.922-2.634,2.3-4.22
			c4.24-12.895,7.749-26.019,10.51-39.31c1.46-7.06,1.37-13.38-3-19.21c-2.35-3.14-3.66-3-3.16-7.8
			C347.48,304.17,348.49,300.55,352,299.66z"/>
		<path fill="#673918" d="M392.83,133.32c-4.16-2.16-9.15-1.66-13.8-1.11c3-14.11-8.12-29.54-22.44-31.24c2.41-4.28-0.9-9.43-4-13.2
			c-6.57-7.88-13.3-15.86-21.94-21.38s-19.65-8.3-29.3-4.85c1.33-7.8-5.32-15.17-12.89-17.48s-14-0.05-21.42,0.2
			c-6.38,0.22-10.8-0.63-16.89,2.79c-4.86,2.73-10.14,6-15.58,4.84c-3.14-0.68-5.78-2.8-8.85-3.74c-7.68-2.35-15.34,3-21.89,7.63
			c-9.1,6.43-19.24,12.15-30.34,13c-2.35,0.032-4.692,0.27-7,0.71c-2.359,0.704-4.585,1.792-6.59,3.22
			c-6.847,4.474-12.985,9.948-18.21,16.24c-1.636,2.229-3.544,4.244-5.68,6c-6.47,4.67-15.67,3-22.86,6.45
			c-9,4.35-12.65,15.55-20.85,21.31c-1.83,1.28-3.89,2.31-5.29,4c-2.92,3.6-2,8.82-2.81,13.38c-1.56,8.95-9.68,15.22-13.42,23.5
			c-2.8,6.2-3,13.21-3.17,20c-0.5,21.18-0.71,43.56,9.84,61.93c3.9,6.77,9.23,15.14,4.75,21.54c-1,1.35-2.27,2.44-3,3.91
			c-2.12,4.26,1.44,9,2.61,13.6c0.78,3.05,0.48,6.25,0.16,9.38L80,314c-0.51,5.12-0.42,11.46,4.1,13.94c5.3,2.91,11.81-2.22,17.74-1
			c1.59,9.91,11.58,17.72,21.59,16.85c5.36-0.46,10.93-3,15.87-0.91c1.6,0.69,3,1.83,4.59,2.48c15.22,6.19,15.19-23,14.5-30.8
			l-3.18-35.76c-0.36-4.1-0.64-8.58,1.7-12c0.934-1.278,2.101-2.367,3.44-3.21c6.629-4.318,15.084-4.682,22.06-0.95
			c7.8,4.3,12.73,14.16,10.48,22.95c-0.94,3.66-2.55,6.21-2.81,10.13c-0.4,5.93-0.19,11.53-2.3,17.23c-1.59,4.32-4.17,8.32-5,12.85
			c-1,5.48,0.65,11.29-0.92,16.63c-1.1,3.71-3.67,6.89-4.53,10.66s0.12,7.77,1.1,11.55l8.1,31.26c0.225,1.334,0.801,2.583,1.67,3.62
			c1.74,1.71,4.68,1.41,6.68,2.79c3,2,2.58,6.56,4.44,9.65c2.22,3.67,7.25,4.77,9.7,8.29c1.17,1.67,1.68,3.79,3.16,5.19
			c3.52,3.32,10.5,0.89,13.23,4.87c0.83,1.21,1,2.77,1.82,4c2.49,3.89,10.12,3.89,10.12,8.51c2-1.42,4.89-0.31,6.73,1.34
			s3.24,3.84,5.41,5c1.822,0.84,3.787,1.325,5.79,1.43c6.27,0.78,14.06,3.58,19.93,0.07c1.045-0.778,2.197-1.401,3.42-1.85
			c3.92-1,7.05,3.48,11,4.43c5.32,1.3,10.26-4.09,15.72-3.75s7.49,2.41,12.83,0c3.62-1.65,6.22-4,9.54-6
			c8.09-4.85,16.11-6,22.35-13.9c1.04-1.32,1.982-2.713,2.82-4.17c2.95-5.09,4.56-10.83,6.15-16.49l6.28-22.34
			c0.294-0.877,0.453-1.795,0.47-2.72c-0.07-1.94-1.34-3.6-2-5.42c-0.526-1.619-0.836-3.3-0.92-5
			c-0.536-7.311-1.623-14.572-3.25-21.72c-1.27-5-5.33-10.19-1.29-15.15c0.987-1.053,2.029-2.055,3.12-3
			c5.25-5.31,3.62-14.87-1.78-20s-13.28-6.75-20.75-7c-7.526-0.212-15.04,0.733-22.28,2.8c-8.81,2.53-18.67,10-16.11,18.66
			c-0.19-0.27-0.39-0.54-0.61-0.8c-7.51-8.94-23.79-3.89-32.06-12.14c-6-6-5.92-17.33-13.65-20.74c-9.92-4.37-19,3.6-25.25-8.64
			c-3.473-7.214-3.821-15.541-0.96-23.02c2.83-7.42,11.27-15.46,11.07-23.63c-0.16-6.56-13-16.64-5.85-23
			c4.81-4.25,12,2.38,18.37,1.82c5.74-0.49,9.27-6.88,9.46-12.64s-1.86-11.36-2.3-17.11s0.9-11.8,4.89-15.89s11-5.44,15.58-2
			c4.73,3.53,6.64,11.32,12.52,11.8c7.62,0.63,11.69-12.23,19.19-10.73c2.67,0.53,4.68,2.88,7.34,3.47
			c6.36,1.41,13.74-7.37,18.29-2.71c3.1,3.18,0.23,9.23,3.09,12.62c2.67,3.15,7.9,1.41,11-1.31s5.95-6.4,10.06-6.79
			c-0.689,7.687-0.268,15.433,1.25,23c8.18,1.793,16.43,3.193,24.75,4.2c3,0.36,6.75,0.36,8.32-2.26c1.9-3.18-1.07-6.9-2.78-10.19
			c-4.8-9.28,0.71-20.22,4.71-29.87S402.1,138.13,392.83,133.32z M317.83,337.82c7,0.48,14.79,0.4,19.81,5.26
			c1.29,7.94-6.8,15.36-14.83,14.94s-14.82-7-17.33-14.66c-1.26-3.81-1.71-8-3.13-11.7c3.36,4.15,9.8,5.77,15.46,6.16H317.83z"/>
	</g>
</g>
</svg>
