<?xml version="1.0" encoding="utf-8"?>
<!-- Generator: Adobe Illustrator 22.1.0, SVG Export Plug-In . SVG Version: 6.00 Build 0)  -->
<svg version="1.2" baseProfile="tiny" id="Layer_1" xmlns="http://www.w3.org/2000/svg" xmlns:xlink="http://www.w3.org/1999/xlink"
	 x="0px" y="0px" viewBox="0 0 23.66 23.66" xml:space="preserve">
<g id="Layer_2_1_">
	<g id="Layer_1-2">
		<path d="M11.84,0c6.534,0.006,11.826,5.306,11.82,11.84c-0.006,6.534-5.306,11.826-11.84,11.82C5.286,23.654-0.006,18.354,0,11.82
			c0-0.003,0-0.007,0-0.01C0.017,5.283,5.313,0,11.84,0z M10.11,6.2v0.06c-0.44,0-0.87,0-1.31,0C8.02,6.32,7.22,6.38,6.45,6.5
			C5.759,6.632,5.075,6.799,4.4,7C3.916,7.135,3.592,7.589,3.62,8.09c0.015,0.618,0.528,1.108,1.147,1.093
			C4.873,9.18,4.979,9.162,5.08,9.13c1.579-0.441,3.211-0.659,4.85-0.65c0.701-0.007,1.402,0.027,2.1,0.1
			c0.788,0.067,1.573,0.173,2.35,0.32c1.587,0.274,3.114,0.826,4.51,1.63c0.243,0.128,0.525,0.161,0.79,0.09
			c0.482-0.096,0.837-0.509,0.86-1c0.045-0.413-0.17-0.811-0.54-1c-0.23-0.14-0.46-0.27-0.7-0.39
			c-2.235-1.092-4.659-1.748-7.14-1.93C11.48,6.24,10.79,6.23,10.11,6.2z M9.7,10.3c-0.2,0-0.56,0-0.9,0
			c-0.76,0.08-1.52,0.16-2.27,0.28C6.051,10.689,5.58,10.829,5.12,11c-0.503,0.129-0.805,0.642-0.676,1.145
			c0.012,0.046,0.027,0.091,0.046,0.135c0.217,0.457,0.74,0.68,1.22,0.52c1.106-0.326,2.248-0.514,3.4-0.56c0.56,0,1.11,0,1.67,0
			s1.23,0.11,1.85,0.21c1.698,0.256,3.331,0.837,4.81,1.71c0.171,0.097,0.364,0.145,0.56,0.14c0.413-0.019,0.763-0.309,0.86-0.71
			c0.092-0.394-0.087-0.802-0.44-1c-0.46-0.26-0.92-0.52-1.4-0.74C14.723,10.803,12.224,10.274,9.7,10.3z M10,14.18L10,14.18
			c-0.87,0.07-1.74,0.12-2.6,0.23c-0.65,0.08-1.3,0.23-1.95,0.37c-0.395,0.104-0.631,0.509-0.527,0.904
			c0.002,0.009,0.005,0.017,0.007,0.026c0.108,0.392,0.504,0.629,0.9,0.54c1.08-0.26,2.181-0.42,3.29-0.48
			c1.002-0.062,2.007-0.018,3,0.13c1.458,0.221,2.858,0.727,4.12,1.49c0.348,0.19,0.783,0.081,1-0.25
			c0.263-0.313,0.222-0.78-0.091-1.043C17.104,16.059,17.054,16.026,17,16c-0.492-0.291-0.999-0.555-1.52-0.79
			C13.748,14.478,11.879,14.127,10,14.18z"/>
	</g>
</g>
</svg>
