<?xml version="1.0" encoding="utf-8"?>
<!-- Generator: Adobe Illustrator 22.1.0, SVG Export Plug-In . SVG Version: 6.00 Build 0)  -->
<svg version="1.2" baseProfile="tiny" id="Layer_1" xmlns="http://www.w3.org/2000/svg" xmlns:xlink="http://www.w3.org/1999/xlink"
	 x="0px" y="0px" viewBox="0 0 80.051 14.131" xml:space="preserve">
<g id="Layer_2_1_">
	<g id="Layer_1-2">
		<g>
			<path fill="#FFFFFF" d="M6.812,3.995c0,1.514-0.899,3.003-3.5,3.003H2.259L1.845,9.99H0.733L1.88,1.843h2.093
				C5.747,1.843,6.812,2.528,6.812,3.995z M5.629,3.995c0-0.958-0.674-1.277-1.738-1.277H2.862L2.389,6.111h0.946
				C5.18,6.111,5.629,5.047,5.629,3.995z"/>
		</g>
		<g>
			<path fill="#FFFFFF" d="M8.94,9.233c0.142,0,0.284-0.035,0.425-0.095l0.225,0.792C9.271,10.073,9,10.132,8.728,10.132
				c-0.828,0-1.266-0.508-1.124-1.537l1.041-7.344l1.088-0.13L8.656,8.772C8.621,9.104,8.68,9.233,8.94,9.233z"/>
		</g>
		<g>
			<path fill="#FFFFFF" d="M16.228,4.148l-0.674,4.423c-0.012,0.095-0.023,0.178-0.023,0.248c0,0.343,0.153,0.474,0.402,0.567
				l-0.308,0.745c-0.626-0.082-1.017-0.366-1.1-1.04c-0.485,0.626-1.124,1.04-1.856,1.04c-1.301,0-1.987-0.958-1.987-2.389
				c0-1.703,0.899-4.127,3.323-4.127C14.749,3.616,15.399,3.746,16.228,4.148z M11.84,7.755c0,1.041,0.391,1.514,1.088,1.514
				c0.663,0,1.147-0.496,1.632-1.146l0.52-3.441c-0.354-0.154-0.615-0.201-1.052-0.201C12.443,4.479,11.84,6.359,11.84,7.755z"/>
			<path fill="#FFFFFF" d="M16.762,12.509l-0.047-0.852c1.289-0.213,1.727-0.721,2.211-1.69L18.571,9.99l-1.194-6.232h1.135
				l0.875,5.404l2.389-5.404h1.123l-2.885,6.292C19.411,11.374,18.488,12.32,16.762,12.509z"/>
			<path fill="#FFFFFF" d="M31.854,6.194c0,1.502-0.769,3.938-3.216,3.938c-1.549,0-2.389-0.993-2.389-2.578
				c0-1.537,0.792-3.938,3.229-3.938C31.026,3.616,31.854,4.609,31.854,6.194z M27.384,7.673c0,1.088,0.45,1.584,1.289,1.584
				c1.62,0,2.046-1.986,2.046-3.181c0-1.088-0.449-1.585-1.277-1.585C27.821,4.491,27.384,6.479,27.384,7.673z"/>
			<path fill="#FFFFFF" d="M38.467,5.556L37.84,9.99h-1.076l0.615-4.352c0.13-0.935-0.213-1.112-0.769-1.112
				c-0.686,0-1.384,0.84-1.88,1.727L34.222,9.99h-1.076l0.875-6.232h0.922l-0.095,1.219c0.58-0.816,1.336-1.36,2.164-1.36
				C38.065,3.616,38.633,4.373,38.467,5.556z"/>
			<path fill="#FFFFFF" d="M48.629,2.682l-0.698,0.65c-0.52-0.52-1.052-0.709-1.69-0.709c-0.887,0-1.68,0.473-1.68,1.324
				c0,0.615,0.331,0.935,1.525,1.336c1.136,0.355,2.129,0.84,2.129,2.235c0,1.018-0.733,2.613-3.192,2.613
				c-1.195,0-2.059-0.426-2.638-1.088l0.71-0.662c0.484,0.532,1.088,0.828,1.951,0.828c1.04,0,2.01-0.567,2.01-1.632
				c0-0.71-0.378-1.029-1.502-1.419c-1.383-0.426-2.128-0.994-2.128-2.164c0-0.935,0.815-2.295,2.791-2.295
				C47.293,1.7,48.025,2.056,48.629,2.682z"/>
			<path fill="#FFFFFF" d="M55.017,6.064c0,1.75-0.875,4.067-3.311,4.067c-0.426,0-0.792-0.07-1.183-0.201l-0.331,2.472l-1.1,0.143
				l1.229-8.787h0.923l-0.024,0.793c0.663-0.733,1.254-0.935,1.904-0.935C54.308,3.616,55.017,4.491,55.017,6.064z M51.174,5.378
				L50.665,9.08c0.391,0.142,0.662,0.188,1.1,0.188c1.55,0,2.129-1.892,2.129-3.287c0-1.111-0.461-1.502-1.111-1.502
				S51.623,4.905,51.174,5.378z"/>
			<path fill="#FFFFFF" d="M61.949,6.194c0,1.502-0.769,3.938-3.216,3.938c-1.55,0-2.39-0.993-2.39-2.578
				c0-1.537,0.793-3.938,3.229-3.938C61.122,3.616,61.949,4.609,61.949,6.194z M57.479,7.673c0,1.088,0.449,1.584,1.289,1.584
				c1.62,0,2.046-1.986,2.046-3.181c0-1.088-0.449-1.585-1.277-1.585C57.917,4.491,57.479,6.479,57.479,7.673z"/>
			<path fill="#FFFFFF" d="M65.168,9.222c0.284,0,0.544-0.095,0.875-0.284l0.355,0.78c-0.449,0.284-0.911,0.414-1.407,0.414
				c-1.076,0-1.62-0.65-1.455-1.809l0.521-3.726H62.98l0.118-0.84h1.124l0.39-1.442l0.852-0.095l-0.213,1.537h1.467l-0.237,0.84
				h-1.348l-0.521,3.749C64.518,8.974,64.66,9.222,65.168,9.222z"/>
			<path fill="#FFFFFF" d="M67.44,9.99l0.875-6.232h1.088L68.528,9.99H67.44z M69.912,1.57c-0.06,0.391-0.367,0.674-0.805,0.674
				c-0.473,0-0.744-0.354-0.686-0.792c0.06-0.402,0.379-0.686,0.804-0.686C69.711,0.767,69.971,1.121,69.912,1.57z"/>
			<path fill="#FFFFFF" d="M72.917,2.931l-0.118,0.827h1.502l-0.236,0.84h-1.384l-0.71,5.05c-0.248,1.762-0.946,2.271-2.329,2.861
				l-0.308-0.815c0.852-0.379,1.372-0.71,1.561-2.046l0.71-5.05h-1.1l0.118-0.84h1.1l0.13-0.887c0.142-1.04,0.887-1.75,2.117-1.75
				c0.603,0,1.005,0.166,1.466,0.449l-0.414,0.722c-0.366-0.249-0.721-0.296-1.017-0.296C73.308,1.996,73,2.327,72.917,2.931z"/>
			<path fill="#FFFFFF" d="M73.911,12.509l-0.047-0.852c1.289-0.213,1.727-0.721,2.211-1.69L75.721,9.99l-1.194-6.232h1.135
				l0.875,5.404l2.39-5.404h1.123l-2.886,6.292C76.561,11.374,75.638,12.32,73.911,12.509z"/>
		</g>
	</g>
</g>
</svg>
