<?xml version="1.0" encoding="utf-8"?>
<!-- Generator: Adobe Illustrator 22.1.0, SVG Export Plug-In . SVG Version: 6.00 Build 0)  -->
<svg version="1.2" baseProfile="tiny" id="Layer_1" xmlns="http://www.w3.org/2000/svg" xmlns:xlink="http://www.w3.org/1999/xlink"
	 x="0px" y="0px" viewBox="0 0 855.44 547.82" xml:space="preserve">
<g id="Layer_2_1_">
	<g id="Layer_1-2">
		<polygon class="polygon" fill="#F1D09F" points="695.84,229 691.57,232.72 691.08,230.02 		"/>
		<path class="polygon" fill="#F1D09F" d="M425.67,170.06l-1.14,4.83l2.33,14.51l14,40.11l57.87-1.45l2.35,2.48l5-8.84c-3.56-4-4.28-6.62-2.41-8.45
			c0.5-0.49,4.24-6.2,4.24-6.2h7.44l2.44-5.39l-14.34-16.5L501,172.22l-2.67-2.16H425.67z"/>
		<path class="polygon" fill="#F1D09F" d="M685.75,231.15l-15.17,3.24l-1.45-5.79c-0.36,2-1.42,7.64-1.42,7.64l-16.18,15.62l-3.6,12.25V270l9.1,12.3
			l4.6,2.41l17.68-9.7l6.14-27l3,1.18c2.47,1,4,1.62,5,2.07c1.61-1.8,4.77-5.7,7.47-9.25l2-9.72l-2.93,0.46l-12,10.47L685.75,231.15
			z"/>
		<path class="polygon" fill="#F1D09F" d="M560.54,198.89c-1.22-2.84-2.71-6.25-4.18-9.6l-38.61,3.38l6.36,8.25l-5.25,11.59h-7.95
			c-0.69,1.05-1.59,2.41-2.4,3.44c0.6,0.91,4.29,5,4.29,5l-8,14.19c0.41,1.47,1.6,11.55,1.79,12.56c1.47,1.1,11.18,6.91,11.18,6.91
			l1.76,8.86l2.07-2l7,9.12l-4,9.5l13.47,11.81l2.49,9.63h0.4l4.24-3.41l4.9,1.55l5.9-10.15V278.7l7-12.64l-2.39-5.67L560.54,198.89
			z"/>
		<path class="polygon" fill="#F1D09F" d="M561.41,284.83l7.29-5.37l6.4,4l14.15-5l9.07-17.64l6.68-2.36l-6.33-60.22l-32.25,0.39
			c-0.14,0.32-0.26,0.59-0.41,0.89v60.17l3,6.49l-7.68,13.84L561.41,284.83z"/>
		<path class="polygon" fill="#F1D09F" d="M593.1,282.94l-18.7,6.58l-5.48-3.45l-8.18,6l-8.14,13.95l-6.26-2l-0.83,0.67l3.31,5.22l-0.52,1.29
			c-0.4,1-0.78,1.94-1.14,2.74l8.33-0.93l4.2-3.41l72.78-8l19.11-17.58l-9.1-12.29v-6.56l-5.37-3.4l-6.92,3.95l-12.49-3.02
			l-3.58-6.1l-3.92-0.86l0.69,6.47l-8.7,3.07L593.1,282.94z"/>
		<path class="polygon" fill="#F1D09F" d="M483,141.16c2.14,1.3,7.26,5.27,21.58,17.31l1.66,1.39l-3.47,6.75l3.25,2.63l2.44,12.87l5.37,5.44
			l40.23-3.55c-1.91-4.36-3.38-7.72-3.46-7.83c-0.22-0.35,9.79-50.6,9.79-50.6l-14.63,15.83l4.81-10.17
			c-5.09-3.73-5.1-4.49-5.1-5.64V117l-10.34-2l-18.3-6.14l-7-5.47V98.9l-5.12,3l-1.38-6.66l-14.85,7.08l-1.59,13.57l-5.73,6.21
			l2.75,7.37l-2.95,3.6C481.461,135.809,482.142,138.511,483,141.16z"/>
		<path class="polygon" fill="#F1D09F" d="M732.82,239.77l-3.25,8.23c1.72,0.44,4.18,1,6.34,1.42h6.49l-5-21.75l3.07-8.16L728.41,222l3,7.69
			l-5.56,4.8C727.17,235.46,732.82,239.77,732.82,239.77z"/>
		<polygon class="polygon" fill="#F1D09F" points="749.94,246.38 743.34,227.63 740.68,233.89 748.86,249.51 752.08,269.5 757.96,244.28 		"/>
		<polygon class="polygon" fill="#F1D09F" points="754.3,227.36 746.93,221.36 753.41,239.84 759.8,236.34 		"/>
		<path class="polygon" fill="#F1D09F" d="M441.18,246.44L341.4,246l-2.4,58.29c13.67,0.53,81.88,2.37,112.5,3.17V265c-8-7.2-8-8.21-8-9.36v-5.36
			L441.18,246.44z"/>
		<path class="polygon" fill="#F1D09F" d="M413.63,186.88c-1.44,0.82-10.26,6.34-10.26,6.34s-6.08-9.86-7.22-11c-5-0.33-48.33-2-78.8-3.18
			c-1,15.95-1.88,29.25-2.38,37.18l27.53,3l-0.87,21.28L439,241l-17.05-49.12C418.79,189.81,415.2,187.62,413.63,186.88z"/>
		<path class="polygon" fill="#F1D09F" d="M752.51,283.48l-3.66-8.48l-5.07-20.16h-8.4c-10.68-2.06-11.1-2.76-11.7-3.83
			c0.689-3.167,1.537-6.298,2.54-9.38c-2.35-1.76-4.74-3.5-5.65-4c-1.28-0.16-4.41-0.65-12.83-2.16l-2.15,9.36
			c-10.12,13.3-11,13.39-13.21,12c-0.4-0.23-1.74-0.78-3-1.32l-5.26,23.2l-22.39,12.27l-6.08-3.16l-14,13l17.35-2.08L752.51,283.48z
			"/>
		<path class="polygon" fill="#F1D09F" d="M604.16,198.22L609.6,250l8,1.77l3.62,6.15l8.14,2l7.85-4.5l6.38,4l3.1-10.53l16-15.4
			c1.28-6.87,3.16-17.22,3.28-18.21c-0.12-0.77-2.83-19.23-5-33.67l-26.16,19.47l-10.51-4.38L621,198L604.16,198.22z"/>
		<path class="polygon" fill="#F1D09F" d="M724.94,228.11l-1.94-4.92l-8.92,1.91l6,6.88l0.3,0.05L724.94,228.11z"/>
		<path class="polygon" fill="#F1D09F" d="M674.59,228l69.9-14.92l12.62-12l-9.24-8.88l-3.35-19.2l-3.39-1.2c-11.51,0.65-15.19,0.76-16.56,0.68
			c-2.84,0.46-49.28,11.56-49.28,11.56l-6-8.58l-3.4,2.54c4.32,29.12,5.22,35.58,5.41,37.07L674.59,228z"/>
		<path class="polygon" fill="#F1D09F" d="M677.67,177.83c46.21-11.13,46.7-11,47.7-10.7c0.53,0,8.71-0.42,16-0.82l3.51,1l6.71-0.76l4.41,12.51
			l6.31-3.73l16.32,6.74l1.66-1.12l-3.71-8l-0.31-13.3v-0.06l-0.35-14.91l-3.41-16l-5.08-12.41v-7.64l-4.62-10.33l-28.4,4.14
			l-15.69,22l2.56,11.84c0,0-13.13,11.34-14.18,12s-11.58-3.91-11.58-3.91l-12.27,8.81l4.19,8.77l-13.7,10.2L677.67,177.83z"/>
		<polygon class="polygon" fill="#F1D09F" points="607.79,344.79 612.35,365.52 623.1,397.66 625.95,426.4 628.46,429.95 671.68,426.27
			672.63,427.03 672.63,420.9 683.45,420.9 692.72,403.32 647.29,350.47 635.45,344.83 638.4,342.32 		"/>
		<path class="polygon" fill="#F1D09F" d="M333.55,304.14l3.29-80.07l-23.29-2.57l-76-8.06c-3,22.68-6.89,51.29-10.74,80.08l92.7,10.61
			L333.55,304.14z"/>
		<polygon class="polygon" fill="#F1D09F" points="817.94,128.58 815.57,114.72 855.44,76.02 829.4,26.24 809.13,28.63 801.42,78.26 798.56,81.82
			816.44,128.66 		"/>
		<polygon class="polygon" fill="#F1D09F" points="810.87,129.36 794.59,86.72 793.41,88.18 795.83,99.8 791.58,110.86 791.58,138.35 805.27,134.99
					"/>
		<polygon class="polygon" fill="#F1D09F" points="772.89,115.73 777.67,127.05 780.68,141.05 786.11,139.7 786.3,109.39 790.15,99.39 788.56,91.75
			768.21,97.21 772.89,108.06 		"/>
		<polygon class="polygon" fill="#F1D09F" points="695.45,398.16 719.97,351.64 700.54,336.94 685.79,340.01 676.24,332.09 656.21,334.24
			645.37,343.54 651.05,346.49 		"/>
		<polygon class="polygon" fill="#F1D09F" points="652.14,311.77 656.46,304.49 561.88,314.91 557.68,318.32 540.69,320.23 537.94,333.11
			533.68,339.95 532.87,345.3 618.32,338.51 647.91,311.79 		"/>
		<path class="polygon" fill="#F1D09F" d="M232.17,212.73L201.79,208l2.79-21.75c-14.22-2.34-33-5.39-39.47-6.35l-19,100.5l75.31,12.39
			C226,258.68,230.19,227.39,232.17,212.73z"/>
		<path class="polygon" fill="#F1D09F" d="M309.52,215.58c0.64-9.93,2.84-44.37,5.17-80.79l-96-10.32l-1.43,5.06l-9.41,73.89l27.64,4.32
			L309.52,215.58z"/>
		<path class="polygon" fill="#F1D09F" d="M381.06,362.94l1.7,3.62l16,3l4.89,6l12.52-1.93l10.41,4.72l22.58-4.78l6.16,4v-33.68l-3.55-30.95
			c-34.78-0.9-108.07-2.88-115.39-3.34h-14.32l-0.2,6.76H370v43.74L381.06,362.94z"/>
		<path class="polygon" fill="#F5D9B1" d="M536.13,315.24l4.49-0.49c0.787-1.358,1.482-2.768,2.08-4.22l-2.31-3.66h-4.1l-3.09-12.08L518,281.47
			l4.33-10.19l-1.33-1.74l-4.9,4.76l-3.25-16.3c-9.92-5.86-10.61-6.84-10.93-7.32c-0.64-0.93-2.05-12.73-2.37-14
			c-1.114-0.966-2.176-1.991-3.18-3.07l-53.75,1.34l2.65,7.93l3.62,5.88v6.14c1.05,1.23,4.32,4.34,7.11,6.83l0.92,0.81v47.6l0.92,8
			c6.47-0.56,69.83-1.82,69.83-1.82l5.86,6.34l-5.53,4.91l5.41,0.93L536.13,315.24z"/>
		<path class="polygon" fill="#F1D09F" d="M521,361.62v-8.72l6.14-5.95l1.62-9.4l2.41-3.89L516,331l9.83-8.7l-0.41-0.46
			c-23.74,0.39-57.65,1.11-66.9,1.64l2.3,20.09v37l7.69,2.3v8.48h43.23l-0.88-3.13l3-20.64L521,361.62z"/>
		<path class="polygon" fill="#F1D09F" d="M64.52,219.07L126.23,313c0.6-5.22,2.12-18,2.12-18h7.43l1.68,1.75L159.72,179
			c-8.75-1.82-36.5-8.05-82.76-18.55L64.52,219.07z"/>
		<path class="polygon" fill="#F1D09F" d="M560.53,348.55l-29.65,2.37l-4.39,4.29v9l-7.49,6.2l-2.55,17.41l6.47,23l-6.71,10.5L513,434.17h30.61
			L542.7,443l7.24,7.48c0.27-0.58,0.52-1,0.64-1s6-0.85,13.68-2l-3.66-29.62L560.53,348.55z"/>
		<path class="polygon" fill="#F1D09F" d="M620.34,425l-2.55-26.16L607.11,367l-4.78-21.75L566,348.13v69.41l3.64,29.15c3.23-0.47,6.55-1,9.88-1.47
			l-5.29-15.45L620.34,425z"/>
		<path class="polygon" fill="#F1D09F" d="M545.17,464.49c-0.38-0.13,1-4.48,2.5-8.48L537,445l0.54-5.39h-31.6l5.4-20.82L517,410l-3.71-13.21h-44.8
			v19.29l4.7,4.88l5.95,14.8l-4.59,15.08l1.45,4.76l-3,9.21c12.38,1.74,62.49,9.9,63.1,9.9s1.63-6.59,1.63-6.59l12.15,8.41
			l4.92-0.69C554.8,475.84,545.86,464.73,545.17,464.49z"/>
		<path class="polygon" fill="#F1D09F" d="M473.38,436l-5-12.5l-5.3-5.16v-31.47l-6.44-2.05l-8.47-5.5L426,384.05l-10.56-4.78l-14,2.14l-5.59-6.9
			L379,371.39l-1.8-3.85l-12.68-3.26v-42.5h-43l-7.36,95l-61.32-6.72l0.46,5.12c7.65,8.26,25.49,27.47,26.9,28.27
			c1.79,1,0,15.68,0,15.68L301.4,478l9.7-15.62l25.07,1.92l38.41,69.2c0,0,32.61,14.32,33.67,14.32l-3.15-34.41
			c0,0,47.4-35.41,61.22-45.91l3.92-12l-1.39-4.73L473.38,436z"/>
		<path class="polygon" fill="#F1D09F" d="M684.75,426.38h-6.66v12.19l-8.15-6.67l-44.11,3.77l-3.83-5.41l-40.42,4.24l3.4,9.89l18.16-2.73l15.67,16
			c0,0,21.28-13.63,21.6-13.63s29.82,21.81,29.82,21.81s-1.16,16.82-0.94,18s39.05,56.82,39.76,57.49s12.87-5.68,13.81-5.91
			s0.69-35,0.69-35.68S693,441.9,684.75,426.38z"/>
		<path class="polygon" fill="#F1D09F" d="M515.27,100.75l4.54,3.54l16.66,5.45l14.44,2.71v12.1c0.46,0.41,1.22,1,2,1.62l3.79-8
			c0,0,26.61-5.3,27.3-5.84c0,0-14.11,32.81-13.87,34.57s6.37,29.62,6.37,30c0,0.21-4,8.67-7.55,16.31l51.39-0.64l0.71-0.31
			l2.15-50.45c0,0-14.35,11.19-16.14,11.92s7.76-19.42,7.76-19.42l-4.9-14.66l-37.17-22.16l-27-6.14l-10.14,1.3l14.33-12.88l-4.2-2
			l-30.47,18V100.75z"/>
		<path class="polygon" fill="#F1D09F" d="M804.65,164.25l-3.15-7.85c-7.84,2-16.23,4.13-19.75,5.13l0.25,10.69l2.79,5.69L804.65,164.25z"/>
		<path class="polygon" fill="#F1D09F" d="M806.85,155.06l2.49,6.21l3.41-2.15l-4.67-4.37L806.85,155.06z"/>
		<path class="polygon" fill="#F1D09F" d="M813.67,134.28l-5.61,5.64l-26.65,6.58l0.22,9.46c4.36-1.32,28-7.18,28-7.18l7.88,7.36l4.64-2.93
			L818.87,134L813.67,134.28z"/>
		<path class="polygon" fill="#F1D09F" d="M779.24,188.23l-16.52-6.83l-4.89,2.89l4.09,11.7L779,211.56l0.94-11L804.71,175c0,0-2.5-0.76-4.05-1.15
			L779.24,188.23z"/>
		<path class="polygon" fill="#F1D09F" d="M749.48,215.8l14.57,11.31l3.08-16.46l-6-5.79C760.89,205,749.48,215.8,749.48,215.8z"/>
		<polygon class="polygon" fill="#F1D09F" points="753.86,288.77 663.36,303.54 655.24,317.24 650.02,317.24 627.24,337.79 645.43,336.34
			653.95,329.04 677.94,326.45 687.24,334.15 701.85,331.13 724.69,348.41 732.45,346.58 734.4,337.48 761.44,304.29 754.68,288.55
					"/>
		<path class="polygon" fill="#F1D09F" d="M178.8,79l-6.06,21.68l6.38-6.28l4.93,8l6.22,23l6.64-2.33l15.74,2.76l2.06-7.32L315,129.32
			c2.6-40.63,5.25-82.23,6-94.11L166.67,13.3L161.88,47l5.3,12.72L178.8,79z"/>
		<polygon class="polygon" fill="#F1D09F" points="58.75,68.3 79.2,71.97 112.76,71.92 135.41,80.49 150.34,10.98 72.94,0 77.15,19.77 68.03,33.75
			67.33,18.06 44.88,3.06 43.19,47.35 58.74,57.57 		"/>
		<path class="polygon" fill="#F1D09F" d="M422.36,81.16l3.93,36.4l-0.33,0.69c-1.411,2.845-2.611,5.789-3.59,8.81c0.26-0.22,3.86,2.43,3.86,2.43
			v35.12h71.41l1.72-3.37c-8.2-6.88-16.87-13.93-19-15.33c-1.74-0.27-5.31-14.29-5.31-14.29l2.6-3.16l-2.84-7.56l6.84-7.38
			l1.72-14.8l6.86-3.27l13-15.33L521,70.57h-28.69l-38.07-13.63l-7.42-13.51l-4.12,9.08l-24-3.41c-0.11,5.93-0.08,22.55,0.16,24.37
			C419.12,74.16,422.36,81.16,422.36,81.16z"/>
		<path class="polygon" fill="#F1D09F" d="M117.21,163.94l12.09-42.65L123,115l17.26-23l-4.48-5.58l-24-9.07h-33l-25.49-4.49V60.5L41.93,53
			l-28.25,61.7l-0.93,19.43l63,20.41C88.25,157.4,103.22,160.79,117.21,163.94z"/>
		<path class="polygon" fill="#F1D09F" d="M397.69,176.88c0.9,0.2,2.47,0.54,7.51,8.73c2.344-1.576,4.793-2.989,7.33-4.23c1-0.34,2-0.55,8,3.13
			L419,174.7l1.8-7.68v-34.56c-1.8-1.31-3.85-3.29-3.85-5.53c0-1.17,0.84-3.65,2.43-7.3l-97.94-4.45
			c-1.26,19.9-2.58,40.49-3.73,58.38C348.16,174.72,396.17,176.57,397.69,176.88z"/>
		<path class="polygon" fill="#F1D09F" d="M417,82.21c-0.93-1.91-3.07-6.35-3.42-7.35c-0.47-1.36-0.54-19.29-0.24-26.54L326.43,36
			c-0.65,10.65-2.56,40.69-4.67,73.75l98.68,4.48L417,82.21z"/>
		<path class="polygon" fill="#F1D09F" d="M147.15,91.92l-17,22.53l5.23,5.23l-12.87,45.45c21.3,4.8,66.34,13,82.72,15.67l6.3-49.6l-14.2-2.49
			l-10.83,3.8l-8.41-29.46l-6.88,6.8l-4.63-9.15l6.25-20.93L162.3,62.12l-6.06-14.44l5-35.16l-5.5-0.78l-15.4,71.71L147.15,91.92z"
			/>
		<path class="polygon" fill="#F1D09F" d="M309.22,410.78l7.12-91.84l0.27-9.66l-90.5-10.35c-6.74,50.41-13.36,100.08-15.63,117.75l9.08,1.21
			l3.15-6.48h24.84l-0.68-7.5L309.22,410.78z"/>
		<path class="polygon" fill="#F1D09F" d="M145.09,285.75l-4.24,22.42l-7.66-7.74c-1.2,10.16-2.78,23.71-2.83,24.83c0.21,0.62,2.91,7.29,5.37,13.13
			l0.81,1.92l-6.85,5.41l-9.3,14.57l5.33,4.54l-3.9,8.85l-1.13-0.35l50.48,38.1l33.94,4.57c2.39-18.74,9.25-70.22,15.62-117.79
			L145.09,285.75z"/>
		<path class="polygon" fill="#F1D09F" d="M24.9,306.86L43.84,315l27.7,29.75l2.11,19.33l36.75,4l3.19-2.64l5.2,1.62l0.29-0.67l-5.86-5L126,341.7
			l4-3.12c-5-11.94-5-12.86-5-13.4c0-0.28,0.15-1.68,0.37-3.72l-66.65-101.3l13-61.18l-59.24-19.19l-0.56,11.55L0,167.33l1.41,33.78
			c0,0,25.6,89,25.6,90S24.9,306.86,24.9,306.86z"/>
	</g>
</g>
</svg>
