<?xml version="1.0" standalone="no"?>
<!DOCTYPE svg PUBLIC "-//W3C//DTD SVG 20010904//EN"
 "http://www.w3.org/TR/2001/REC-SVG-20010904/DTD/svg10.dtd">
<svg version="1.0" xmlns="http://www.w3.org/2000/svg"
 width="1425.000000pt" height="1425.000000pt" viewBox="0 0 1425.000000 1425.000000"
 preserveAspectRatio="xMidYMid meet">
<metadata>
Created by potrace 1.11, written by Peter Selinger 2001-2013
</metadata>
<g transform="translate(0.000000,1425.000000) scale(0.100000,-0.100000)"
fill="#000000" stroke="none">
<path d="M7915 13305 c-55 -8 -199 -18 -320 -24 -256 -11 -273 -15 -454 -115
-145 -81 -247 -116 -334 -116 -71 0 -118 14 -211 61 -105 54 -161 69 -255 69
-149 0 -270 -54 -538 -242 -296 -206 -544 -326 -768 -372 -44 -9 -138 -21
-210 -26 -165 -13 -224 -32 -359 -120 -206 -134 -364 -277 -561 -505 -173
-201 -232 -232 -525 -279 -358 -57 -442 -109 -676 -417 -137 -182 -206 -254
-301 -319 -170 -115 -197 -162 -214 -368 -20 -244 -47 -309 -235 -571 -183
-257 -234 -369 -265 -591 -19 -131 -20 -1068 -1 -1225 53 -453 133 -703 343
-1070 105 -183 150 -335 129 -430 -14 -61 -39 -108 -93 -174 -75 -90 -82 -154
-30 -291 58 -155 72 -204 78 -267 4 -47 -6 -192 -34 -468 -44 -432 -47 -480
-30 -570 13 -69 31 -109 68 -148 70 -76 160 -85 361 -37 69 16 148 30 176 30
l50 0 13 -53 c21 -84 87 -199 149 -264 110 -112 228 -173 375 -194 78 -12 97
-11 214 10 296 52 311 51 468 -31 127 -66 188 -73 270 -33 38 18 67 42 90 74
92 124 145 374 145 675 0 107 -47 677 -96 1171 -22 220 -16 346 20 418 51 104
186 196 341 233 93 22 266 14 348 -15 228 -80 384 -262 433 -501 23 -114 14
-185 -41 -350 -44 -129 -46 -143 -56 -305 -17 -286 -32 -346 -156 -630 -62
-141 -67 -167 -68 -400 -1 -239 -8 -273 -80 -416 -111 -218 -112 -287 -15
-654 22 -82 83 -316 136 -520 52 -203 103 -381 111 -395 25 -38 41 -48 128
-75 121 -39 142 -62 185 -211 16 -52 40 -113 55 -135 16 -23 70 -68 130 -108
115 -79 153 -117 194 -199 32 -64 72 -105 115 -122 15 -5 72 -17 125 -26 179
-28 197 -39 248 -154 35 -78 72 -111 173 -158 98 -45 136 -76 150 -118 10 -29
14 -32 30 -24 57 30 131 -3 229 -103 98 -100 140 -121 271 -141 58 -8 141 -22
185 -31 44 -9 127 -19 185 -22 126 -7 190 8 289 68 100 60 142 53 300 -49 108
-70 185 -70 353 2 160 69 184 72 342 46 113 -19 141 -21 186 -11 71 15 153 58
280 146 110 76 188 118 379 204 134 60 264 143 330 209 113 114 202 270 270
474 69 212 271 943 271 984 0 22 -13 65 -30 102 -40 86 -47 114 -65 292 -36
353 -71 539 -134 710 -49 132 -56 177 -40 242 10 44 24 65 94 137 45 47 92
104 103 127 78 155 31 378 -110 517 -158 156 -341 211 -698 211 -546 1 -949
-158 -1077 -424 -22 -44 -27 -70 -27 -132 l-1 -76 -46 43 c-92 86 -183 118
-469 164 -215 35 -271 50 -363 98 -123 65 -178 144 -306 443 -47 108 -97 179
-159 227 -73 55 -123 65 -362 73 -137 4 -228 12 -250 20 -98 37 -156 97 -216
225 -56 120 -78 222 -77 360 1 200 44 326 194 565 149 236 184 312 195 420 8
87 -11 138 -119 318 -101 168 -121 221 -115 302 5 70 38 119 101 151 56 29
128 21 282 -31 66 -22 145 -43 175 -46 107 -12 193 30 261 125 90 125 102 269
48 556 -52 276 -44 427 32 576 103 204 340 301 516 210 51 -25 99 -76 197
-207 45 -60 100 -122 124 -139 39 -27 52 -30 116 -30 67 0 77 3 127 37 30 20
98 79 151 131 111 110 166 145 235 153 45 6 57 2 155 -50 156 -82 184 -80 438
28 109 46 173 49 221 9 47 -40 61 -83 69 -219 6 -98 11 -128 28 -156 32 -52
76 -72 148 -66 78 5 145 38 219 108 88 84 171 148 212 165 71 30 68 39 69
-203 0 -223 23 -444 47 -468 29 -28 657 -134 807 -137 139 -3 206 45 204 146
0 44 -11 73 -68 182 -70 136 -86 192 -86 300 0 136 39 273 158 560 81 196 108
289 124 433 20 174 -14 324 -96 425 -31 38 -62 63 -120 92 l-79 40 -161 0
-161 0 0 130 c0 153 -15 215 -80 352 -107 222 -302 385 -525 442 -62 16 -74
22 -72 38 13 82 13 105 -2 155 -21 73 -90 176 -216 323 -303 352 -480 506
-715 621 -235 114 -482 150 -676 99 -30 -8 -59 -15 -65 -15 -7 0 -13 30 -16
80 -4 66 -11 92 -41 153 -63 127 -200 241 -347 289 -84 27 -308 33 -455 13z
m983 -8821 c96 -59 221 -87 462 -104 80 -6 172 -15 205 -20 144 -25 287 -100
298 -157 8 -44 -12 -133 -45 -195 -63 -118 -213 -221 -345 -234 -209 -22 -436
122 -547 347 -30 61 -56 133 -72 204 -15 61 -34 138 -44 173 l-18 63 31 -25
c18 -14 51 -38 75 -52z"/>
</g>
</svg>
